<?xml version="1.0" encoding="utf-8"?>
<svg version="1.1" id="_x32_" xmlns="http://www.w3.org/2000/svg" xmlns:xlink="http://www.w3.org/1999/xlink" x="0px" y="0px"
	 viewBox="0 0 6077 3131.3" style="enable-background:new 0 0 6077 3131.3;" xml:space="preserve">
<style type="text/css">
	.st0{fill:rgba(149,153,154,.25);}
</style>
<path class="st0" d="M4714.8,2476.7c0.2,0.5,0.4,1,0.5,1.5c0.2,0.2,0.5,0.3,0.7,0.5c1.1,0.8,2.2,1.6,3.3,2.4c-0.9-1-1.9-2.1-2.8-3.2
	C4716,2477.5,4715.4,2477.1,4714.8,2476.7z M4724,2466.7c-0.2,0-0.5,0-0.7,0c0.6,0.4,1.3,0.7,1.9,1.1c-0.1-0.1-0.1-0.2-0.2-0.4
	C4724.6,2467.2,4724.3,2467,4724,2466.7z M4747.5,2556.6c0.2,0.1,0.4,0.1,0.6,0.2c-0.5-0.7-1-1.3-1.6-2
	C4746.9,2555.4,4747.2,2556,4747.5,2556.6z M4732.2,2460.7c-1-1.3-2.1-2.7-3.1-4c-0.3,0.8-0.7,1.6-1.3,2.3c0.4,0.1,0.9,0.2,1.3,0.4
	c0.6,0.3,1.2,0.6,1.9,0.9C4731.3,2460.4,4731.7,2460.5,4732.2,2460.7z M4710.5,2500.4c0,0.1,0,0.3,0,0.4c0.2,0.1,0.4,0.3,0.5,0.4
	c0.1,0.1,0.2,0.2,0.3,0.3c0.1,0,0.1-0.1,0.2-0.1C4711.1,2501.1,4710.8,2500.8,4710.5,2500.4z M4733.1,2492.3
	c0.5,0.4,0.9,0.8,1.4,1.2c0.2-0.7,0.3-1.4,0.3-2C4734.3,2492,4733.7,2492.3,4733.1,2492.3z M5038,1556.4c-0.1-0.1-0.2-0.3-0.2-0.4
	c0,0.4-0.1,0.7-0.1,1.1c-0.3,4-0.7,8.1-1,12.1c0.7-3.8,1.4-7.6,2-11.4C5038.4,1557.3,5038.2,1556.9,5038,1556.4z M4733.3,2480
	c-0.6,0.3-1.4,0.4-2.3,0c-0.4-0.2-0.8-0.3-1.2-0.5c0.2,0.2,0.3,0.3,0.5,0.5c0.3-0.1,0.7,0,1,0.3c1.2,0.9,2.4,1.7,3.6,2.5
	c0.3,0.1,0.5,0.2,0.8,0.3c-0.6-1-1.3-2-1.9-2.9C4733.7,2480,4733.5,2480,4733.3,2480z M5041.3,1488c0-0.3,0-0.6,0.1-1
	c-0.2,0-0.4,0-0.6-0.1C5040.9,1487.3,5041.1,1487.6,5041.3,1488z M5048.3,1487.8c-0.2,0-0.3,0-0.5-0.1c0,0.2,0,0.4-0.1,0.6
	C5047.9,1488.2,5048.1,1488,5048.3,1487.8z M5029,1457.5c-2.6-4.8-5.4-9.5-8.3-14.2C5023.6,1447.9,5026.3,1452.7,5029,1457.5z
	 M5015.7,1436.7c5.9,12.9,11.9,25.7,18.5,38.2c1.6,3.1,3.3,6.2,5,9.2c0.7,0.1,1.4,0.1,2.1,0.2c0-0.1-0.1-0.2-0.1-0.3
	c-5.1-10-10.2-20-15.6-29.8C5022.3,1448.5,5019.2,1442.5,5015.7,1436.7z M5040.6,1563c0-0.1,0-0.2,0-0.3c0,0,0,0.1,0,0.1
	C5040.6,1562.9,5040.6,1563,5040.6,1563z M5047.8,1467c1.7-16.3,3.4-32.7,4.3-49.1C5049.6,1434.1,5048.5,1450.6,5047.8,1467z
	 M5294.7,1049.8c0.1,0.1,0.2,0.2,0.3,0.4c-0.1-0.2-0.2-0.3-0.4-0.5C5294.6,1049.7,5294.6,1049.8,5294.7,1049.8z M5037.8,1555.9
	c0.3,0.6,0.6,1.1,0.9,1.7c0.4-2.5,0.8-5.1,1.1-7.6c-0.4-6.3-0.5-12.7-0.4-19.1C5038.9,1539.3,5038.4,1547.6,5037.8,1555.9z
	 M5048.4,1493.4c0.6,0,1.3,0.1,1.9,0.1c11.5,0.6,23.1,1.2,34.6,2c-3.6-0.4-7.2-0.8-10.7-1.1c-8.8-0.9-17.7-1.7-26.6-2.5
	C5047.9,1492.4,5048.1,1492.9,5048.4,1493.4z M5044.3,1496.3c-0.1-0.2-0.3-0.5-0.4-0.7c-0.1,0-0.3,0-0.4,0
	c-0.3,5.8-0.6,11.7-0.7,17.5c0,1.4-0.1,2.8-0.1,4.2c0.4-4.6,0.8-9.2,1.3-13.8C5044.1,1501.1,5044.2,1498.7,5044.3,1496.3z
	 M5337.3,1007.3c-0.2,0-0.3,0.1-0.3,0.1C5337.1,1007.3,5337.2,1007.3,5337.3,1007.3z M5044.6,1491.9c0-0.1,0-0.2,0-0.4
	c-0.3,0-0.6-0.1-0.9-0.1c0,0.2,0,0.5,0,0.7c0.1,0.1,0.2,0.3,0.2,0.4C5044.1,1492.4,5044.4,1492.2,5044.6,1491.9z M5045.1,1481.5
	c1.2-23.5,2.7-47.2,7.2-70.2c0.2-4.6,0.3-9.2,0.3-13.8c-2.7,22.6-5.1,45.3-7,68c-0.5,6.4-1,12.8-1.5,19.2c0.3,0,0.5,0.1,0.8,0.1
	C5045,1483.7,5045.1,1482.6,5045.1,1481.5z M5047,1495.8c-0.1,0.6-0.1,1.3-0.2,1.9c0.9,1.5,1.8,3,2.7,4.5c2,3.2,4,6.4,6.1,9.6
	c-2.9-5.3-5.7-10.7-8.5-16C5047.1,1495.8,5047.1,1495.8,5047,1495.8z M4790.1,2317.7c-1.2-0.1-2.4-0.2-3.5-0.3
	c1.1,0.2,2.2,0.5,3.2,0.7C4789.9,2318,4790,2317.9,4790.1,2317.7z M4780.4,2373.7c0.2,0.7,0.4,1.4,0.6,2.1c0.1,0,0.2,0.1,0.3,0.1
	c4.2,0.7,8.5,1.5,12.7,2.5c-3.4-1.4-6.7-2.7-10.1-4C4782.7,2374.2,4781.6,2373.9,4780.4,2373.7z M4891.3,2432.4
	c-8-7.8-17.3-14.1-27.2-19.5C4873.1,2419.4,4882.2,2425.9,4891.3,2432.4z M4774.1,2322.9C4774.1,2322.9,4774.1,2322.9,4774.1,2322.9
	C4774.1,2322.9,4774,2322.9,4774.1,2322.9C4774,2322.9,4774,2322.9,4774.1,2322.9z M4751.7,2441.4c0.1,0.6,0.2,1.2,0.3,1.7
	c6.5,2.3,13,4.6,19.4,6.9c-1.1-0.6-2.2-1.1-3.4-1.6C4762.7,2445.9,4757.3,2443.5,4751.7,2441.4z M4759.8,2492.3
	c0.3,0.1,0.6,0.3,0.9,0.5c0.8,0.2,1.7,0.3,2.5,0.4c-4-1.8-8.2-3.3-12.4-4.5C4753.7,2490,4756.8,2490.9,4759.8,2492.3z
	 M4806.8,2321.9c0.4,0.1,0.8,0.2,1.2,0.3c-0.1-0.3-0.2-0.6-0.2-0.9C4807.5,2321.5,4807.1,2321.7,4806.8,2321.9z M4748,2489.2
	C4748.1,2489.2,4748.1,2489.2,4748,2489.2c-0.5-0.5-1-0.9-1.6-1.2c0.2,0.3,0.5,0.6,0.7,0.9C4747.4,2489,4747.7,2489.1,4748,2489.2z
	 M4933,2321.4c0-0.2,0-0.3,0-0.5c0-0.1,0-0.2,0-0.3c-0.3,0.1-0.6,0.2-0.9,0.3C4932.5,2321.1,4932.8,2321.3,4933,2321.4z
	 M4931.8,2317.1c0.9,0.7,1.7,1.3,2.6,2c0.2-0.1,0.4-0.2,0.7-0.3c-0.2-0.1-0.3-0.2-0.5-0.3
	C4933.9,2318.1,4932.8,2317.4,4931.8,2317.1z M4946,2331.9c1.6,0.5,3.1,1.1,4.6,1.8c-2.4-1.8-5-3.5-7.5-5.1
	C4944.2,2329.6,4945.2,2330.8,4946,2331.9z M4929.9,2318.7c0,0.1,0,0.1-0.1,0.1c0,0.3,0,0.6,0,0.9c0.8,0.4,1.5,0.8,2.3,1.2
	c0.3-0.1,0.7-0.2,1-0.4c0-0.1,0.1-0.2,0.1-0.3c0.1-0.1,0.2-0.3,0.3-0.4c-1-0.9-2.1-1.8-3.1-2.7
	C4930,2317.3,4929.8,2317.7,4929.9,2318.7z M4878.6,2348.3c-14.1-3.7-28.1-8.1-42.1-12c-0.7,1.3-1.7,2.4-2.9,3.2c0,0,0,0,0.1,0
	c12,3.1,24.1,5.8,36.4,7.6C4872.9,2347.6,4875.7,2348,4878.6,2348.3z M4919.9,2341.5c0.3,0.2,0.6,0.3,0.8,0.5
	c0.2-0.1,0.4-0.1,0.6,0.1c0.7,0.5,2.1,1.1,3.4,1.9c-1.4-1.7-2.8-3.4-4.2-5.1C4920.4,2339.7,4920.2,2340.6,4919.9,2341.5z
	 M4928.6,2315.4c0.4,0.6,0.7,1.3,0.9,2c0.1-0.3,0.3-0.5,0.5-0.7C4929.6,2316.3,4929.1,2315.8,4928.6,2315.4z M5337.4,1007.3
	C5337.4,1007.3,5337.4,1007.3,5337.4,1007.3c0.1,0,0.3-0.1,0.5-0.1c-0.2,0.1-0.4,0.1-0.6,0.1
	C5337.3,1007.3,5337.3,1007.3,5337.4,1007.3z M4442.6,2260.9C4442.8,2261,4442.7,2261,4442.6,2260.9L4442.6,2260.9z M4441.6,2260.4
	C4442.7,2260.6,4442.7,2260.6,4441.6,2260.4C4441.6,2260.4,4441.6,2260.4,4441.6,2260.4z M4462,2186.2
	C4461.9,2185.9,4461.9,2185.9,4462,2186.2L4462,2186.2z M4465.1,2188.9C4465.6,2188.9,4465.6,2188.9,4465.1,2188.9
	C4465.1,2188.8,4465.1,2188.8,4465.1,2188.9z M4486.1,2226.2C4486.1,2226.3,4486.1,2226.3,4486.1,2226.2
	C4485.9,2225.6,4486,2226,4486.1,2226.2z M4751.4,2573c0,0,0.1,0.1,0.1,0.1c0.3,0,0.6,0,0.9,0.2c0.1,0.1,0.2,0.1,0.3,0.2
	c-0.3-0.2-0.6-0.5-0.8-0.8C4751.8,2572.9,4751.6,2573,4751.4,2573z M5688.4,2228.5c0,0.6,0,1.3,0,1.9c0.1,0,0.1-0.1,0.2-0.1
	c0.1-0.9,0.1-1.8,0.2-2.7c-0.1,0-0.3,0.1-0.4,0.1C5688.4,2228,5688.4,2228.2,5688.4,2228.5z M5434.6,883.6c0.3,0.1,0.7,0.2,1.1,0.4
	c-0.3-0.1-0.5-0.2-0.8-0.3C5434.8,883.6,5434.7,883.6,5434.6,883.6z M411.8,1220.3c-2.9,0-5.3,2.4-5.3,5.3c0,2.9,2.4,5.3,5.3,5.3
	c2.9,0,5.3-2.4,5.3-5.3C417.1,1222.6,414.7,1220.3,411.8,1220.3z M488,1844.2c-2.9,0-5.3,2.4-5.3,5.3c0,2.9,2.4,5.3,5.3,5.3
	c2.9,0,5.3-2.4,5.3-5.3C493.3,1846.6,490.9,1844.2,488,1844.2z M521.8,1548.5c-3.8-5-4.6-12.8-1.9-17.4c2.4-4.2,5-8.4,7.7-12.5
	c3-4.6,1.8-7.3-3.2-6.3c-4.5,1-9.1,1.9-13.9,2.8c-5.2,1-12.1-2.4-15.1-7.8c-2.7-4.9-5.2-9.9-7.6-15c-2.6-5.6-5.5-5.2-6.6,1.2
	c-0.9,5.8-1.6,11.6-2.1,17.4c-0.6,6.4-5,12.8-10.2,14.5c-4.7,1.5-9.4,3.2-14,5c-5,2-5,5.5,0.1,7.7c4.7,2,9.6,4,14.6,6
	c5.5,2.2,10.9,8.7,12.2,13.8c1.1,4.7,2.5,9.1,3.9,13.2c1.6,4.4,5.3,5.1,7.8,2c2.3-2.9,4.5-6,6.7-9.3c2.5-3.6,9.2-5.2,14.9-3.1
	c5.2,1.8,10.3,3.7,15.2,5.6c5.4,2,6,0.1,1.9-4.6C528.8,1557.4,525.2,1553,521.8,1548.5z M640,1154c0,2.9,2.4,5.3,5.3,5.3
	c2.9,0,5.3-2.4,5.3-5.3c0-2.9-2.4-5.3-5.3-5.3C642.3,1148.7,640,1151,640,1154z M676.4,2190.7c-0.4,0-0.9,0-1.3,0.1
	c-0.3-0.3-0.8-0.6-1.4-0.7c-0.7-0.1-1.2,0.2-1.8,0.5c-0.6,0.4-1.1,0.3-1.6,0.8c-0.4,0.3-0.7,0.8-1,1.3c-0.2,0.4-0.4,0.7-0.6,1.1
	c-2.7-1.4-5.4-2.6-8.3-3.5c-4.2-1.2-8.4-2.2-12.7-3.2c2.8-9.2,5.4-18.4,7.7-27.7c1.8,0.7,4.2-0.6,4.8-2.4c0.3-0.8,0.5-1.7,0.4-2.6
	c0.6-0.8,1-1.8,1.1-2.8c0,0.3-0.2,0.3-0.1,0c0.2-0.8,0.2-1.1,0.1-2c-0.1-1.3-1-2.3-2-3.1c-1-0.7-2.2-0.8-3.2-0.3
	c-0.3-0.1-0.6-0.2-0.9-0.3c-2-0.8-4.1,0.5-4.9,2.4c-0.6,1.7-1.1,3.4-1.2,5.2c-0.1,1.4,0.2,2.9,1.2,3.9c1.1,1.1,2.3,1.4,3.5,1.2
	c0,0,0,0,0,0c-3.1,9.3-6.3,18.6-9.4,27.9c-8.4-1.9-17-3.3-25.3-5.7c-0.3-1.1-0.7-2.1-1.5-2.9c0-0.7-0.3-1.3-1-1.7
	c-0.4-0.2-1-0.8-1.7-1.2c-0.3-0.2-0.8-0.3-1.2-0.4c0-0.2,0-0.4,0-0.6c0-0.4-0.6-0.7-0.8-0.3c-0.2,0.3-0.3,0.6-0.4,0.9
	c-1.2,0.3-2.1,1.1-2,2.5c0,0.5,0.1,1,0.1,1.5c-0.1,0.1-0.2,0.2-0.3,0.3c-1.1,1.3,0,3.4,1.5,3.7c0.5,0.8,1.2,1.5,1.7,2.2
	c0.9,1.2,2.7,1.4,4,0.8c1.3-0.6,1.8-1.8,1.8-3.1c7.6,2.9,15.5,5.3,23.4,7.2c0.2,0,0.3,0.1,0.5,0.1c-1.8,5.4-3.6,10.7-5.2,16.1
	c-1.3,4.3-2.4,8.8-3.5,13.2c-0.9,0.2-1.7,0.7-2.3,1.5c-0.2,0.3-0.4,0.6-0.6,0.9c0,0,0,0,0,0c0,0-0.1,0.1-0.1,0.1
	c-1.5,0.6-2.4,2.4-2.5,3.9c0,0.5,0,1.3,0.3,1.9c0,0.3,0.1,0.5,0.1,0.8c0,0,0,0,0,0c0,0.2,0,0.4,0,0.6c0,2.1,1.1,4.1,3.3,4.8
	c1.9,0.6,4.4-0.1,5.5-1.9c1.2-2.1,2-4.4,1.3-6.7c0.6-1.1,0.3-2.4-0.4-3.5c-0.5-0.7-1.2-1.3-1.9-1.8c-0.4-0.3-0.9-0.5-1.4-0.6
	c0.3-0.9,0.7-1.7,1.1-2.5c1.3-2.9,2.6-5.7,3.7-8.7c2-5.7,3.9-11.5,5.7-17.3c3.9,1,7.7,2,11.5,3.1c3.2,1,6.5,1.7,9.8,2.6
	c-0.2,1.1-0.1,2.2,0.1,3.3c0-0.1,0-0.1,0-0.2c0.2,1.7,1.5,3.3,3.4,3.2c1.6-0.1,2.6-0.8,3.8-1.7c1.2-1,2.4-2,3.6-3.1
	C681.2,2195.4,680.1,2190.6,676.4,2190.7z M1252.8,410.3c2.9,0,5.3-2.4,5.3-5.3s-2.4-5.3-5.3-5.3c-2.9,0-5.3,2.4-5.3,5.3
	S1249.9,410.3,1252.8,410.3z M837.6,2226.7c-2.9,0-5.3,2.4-5.3,5.3s2.4,5.3,5.3,5.3c2.9,0,5.3-2.4,5.3-5.3
	S840.5,2226.7,837.6,2226.7z M843.9,1874.7c-5.5,0-10,4.5-10,10c0,5.5,4.5,10,10,10s10-4.5,10-10
	C854,1879.1,849.5,1874.7,843.9,1874.7z M1173.6,1225.5c2.9,0,5.3-2.4,5.3-5.3c0-2.9-2.4-5.3-5.3-5.3s-5.3,2.4-5.3,5.3
	C1168.3,1223.2,1170.6,1225.5,1173.6,1225.5z M991.7,1373.1c-5.5,0-10,4.5-10,10c0,5.5,4.5,10,10,10c5.5,0,10-4.5,10-10
	C1001.7,1377.6,997.2,1373.1,991.7,1373.1z M991.7,2907.2c-2.9,0-5.3,2.4-5.3,5.3s2.4,5.3,5.3,5.3c2.9,0,5.3-2.4,5.3-5.3
	S994.6,2907.2,991.7,2907.2z M1150.6,2034.1c-5.5,0-10,4.5-10,10s4.5,10,10,10c5.5,0,10-4.5,10-10S1156.2,2034.1,1150.6,2034.1z
	 M1258.1,1801.1c-2.9,0-5.3,2.4-5.3,5.3c0,2.9,2.4,5.3,5.3,5.3c2.9,0,5.3-2.4,5.3-5.3C1263.4,1803.5,1261,1801.1,1258.1,1801.1z
	 M1275.9,2951.8c-2.9,0-5.3,2.4-5.3,5.3c0,2.9,2.4,5.3,5.3,5.3c2.9,0,5.3-2.4,5.3-5.3C1281.2,2954.2,1278.8,2951.8,1275.9,2951.8z
	 M1334.2,1472.3c-3.2-0.8-6.5-1.3-9.6-2.6c-3-1.2-7.3-1.1-10.6-1.5c-1.3-0.2-2.5-0.3-3.8-0.5c0.2-0.5,0-1.3-0.7-1.5
	c-6.4-1.7-13.2-2.3-19.8-3.1c-7.4-0.9-14.8-1.8-22.3-2.5c-9.3-1-18.5-1.8-27.8-2.6c0.3-0.3,0.5-0.6,0.8-0.9
	c26.6,3,53.1,6.9,79.8,8.2c1.1,0.1,1-1.5,0-1.6c-25.8-3.4-51.8-6.4-77.7-9.1c17.7-20.5,35-41.3,55.8-58.7c0.2-0.1-0.1-0.4-0.2-0.2
	c-16.8,13.6-31.3,29.7-45.6,45.8c-3.8,4.3-7.6,8.6-11.4,13c-0.8-0.1-1.6-0.2-2.4-0.2c0-0.1,0-0.2,0-0.3
	c14.2-16.8,27.9-33.9,43.1-49.8c0.1-0.1-0.1-0.4-0.2-0.2c-15.5,14.9-28.9,31.8-42.7,48.2c0.3-3.1,0.6-6.2,0.9-9.2
	c2-20.9,3.6-41.7,4-62.6c1.8-10.6,4.3-21,7.7-31.2c0-0.1-0.1-0.1-0.1,0c-3.2,9-5.6,18.1-7.6,27.4c0-4.4,0-8.7-0.1-13.1
	c0.8-6.6,1.6-13.2,2.5-19.7c0-0.2-0.4-0.3-0.4-0.1c-0.7,4.7-1.5,9.4-2.2,14.2c-0.1-1.9-0.2-3.9-0.3-5.8c0-0.1-0.2-0.1-0.2,0
	c0.1,2.5,0.1,5,0.2,7.5c-3.8,25-7.4,50.1-9.6,75.3c-0.4,5-0.9,10-1.2,15c-0.8-1.7-1.7-3.3-2.5-5c-7.6-14.8-15.5-29.7-25.5-43.1
	c-1.7-3.8-3.4-7.6-5.1-11.3c0-0.1-0.2,0-0.2,0.1c1.1,3,2.3,5.9,3.5,8.8c-0.2-0.2-0.3-0.5-0.5-0.7c-0.1-0.2-0.5,0-0.3,0.2
	c0.6,0.8,1.1,1.6,1.6,2.5c5.9,14.5,12.6,28.7,19.7,42.6c1.6,3.2,3.3,6.3,5,9.4c-14.7-1.5-29.4-2.7-44.1-3.2
	c-7.9-0.3-15.9-0.5-23.9-0.4c-8.1,0-16,0.8-24,1.2c-0.9,0-1.9,0-2.8,0c-0.2,0-0.3,0.3,0,0.4c6.1,1.1,12.3,1.9,18.5,2.6
	c25.2,6.2,51,8.9,76.8,10.7c-4.5,5.1-9,10.2-13.6,15.1c-7.7,8.2-16,15.6-24.1,23.3c-0.3,0.3,0.1,0.9,0.5,0.6
	c8.6-6.4,16.3-14.5,23.6-22.3c5.1-5.4,10.1-11,15-16.7c0.5,0,1.1,0.1,1.6,0.1c0,0.3-0.1,0.6-0.1,1c-7.9,8.9-15.9,17.7-24.1,26.3
	c-0.3,0.3,0.2,0.7,0.5,0.5c8.2-7.8,15.9-16.1,23.4-24.5c-1.8,18.5-2.7,37.1-3.9,55.6c-1.5-2-3.5-3.8-6-3.9c-0.1,0-0.1,0.2,0,0.2
	c2.4,0.3,4.4,1.7,6,3.7c0,0.2,0,0.3,0,0.5c-0.5,8.2-1.2,16.4-1.9,24.6c-0.7,3.1-1.4,6.3-2.2,9.4c-0.2,0.8,0.5,1.2,1.1,1.1
	c-0.3,2.3-0.5,4.6-1,6.9c-0.4,1.8-0.7,4.4-2,5.9c-0.1,0.1,0,0.2,0.1,0.1c1.1-1.1,1.4-3,1.8-4.4c0.9-3.3,1.5-6.5,2-9.8
	c2.7-8.3,4.7-16.8,6.1-25.4c0,0.1,0,0.2,0.1,0.3c0.1,1.2,0.1,2.4,0.2,3.6c0,0.4,0.3,0.6,0.5,0.7c0.1,0.7,0.1,1.4,0.2,2.1
	c0,0,0,0,0,0c0-0.7-0.1-1.4-0.1-2.1c0.4,0.1,0.8-0.2,0.8-0.7c0.7-9.7,1.1-19.4,1.5-29.2c1-10.1,1.6-20.3,2.1-30.4
	c0.2-2.4,0.4-4.7,0.6-7.1c0.6,0.9,1.1,1.9,1.7,2.8c2.7,4.5,5.5,8.8,8.4,13.2c1.9,2.8,3.8,5.8,5.9,8.5c3.4,6.2,7.1,12.4,11.5,17.9
	c0.4,0.6,1.3-0.2,0.9-0.7c-4.2-7.8-8.9-15.3-13.4-22.9c-4-7.6-8-15.3-12-22.9c15.9,1,31.8,1.9,47.7,3.2c7.9,0.6,15.9,1.4,23.8,2.4
	c4,0.5,8,1,11.9,1.7c1.4,0.2,2.8-0.1,4.1,0.1c2,0.3,3.9,0.6,5.9,0.9C1334.6,1473.4,1334.9,1472.5,1334.2,1472.3z M1366,965.9
	c-2.4,0-2.4,3.7,0,3.7C1368.4,969.6,1368.4,965.9,1366,965.9z M1396.1,667.5c0-2.9-2.4-5.3-5.3-5.3c-2.9,0-5.3,2.4-5.3,5.3
	s2.4,5.3,5.3,5.3C1393.8,672.8,1396.1,670.4,1396.1,667.5z M1397.7,885.2c-4.4,0-4.4,6.8,0,6.8
	C1402.1,892,1402.1,885.2,1397.7,885.2z M1426.2,978.6c-1.1,0-1.7,0.8-1.8,1.8c-0.1,1-0.4,2.1-0.4,3.2c0,1.2,1,2.2,2.2,2.2
	c1.2,0,2.2-1,2.2-2.2c0-1-0.3-2.1-0.4-3.2C1427.9,979.4,1427.3,978.6,1426.2,978.6z M1441.3,1059.6c-0.4,3.2-0.4,6.3-0.4,9.5
	c0,1.5,2.3,1.5,2.3,0c0-3.2-0.1-6.3-0.4-9.5C1442.7,1058.7,1441.4,1058.7,1441.3,1059.6z M1515.2,943.3c0,2.7,3.7,4.6,5.6,2.3
	c0.3-0.3,0.6-0.7,0.9-1c0.7-0.8,0.7-1.7,0-2.6c-0.3-0.3-0.6-0.7-0.9-1C1518.9,938.7,1515.2,940.7,1515.2,943.3z M1488.1,951.1
	c0.2,0,0.8-0.1,1-0.1c1.6-0.1,2.7-1,3.3-2.5c0-0.1,0.1-0.2,0.1-0.3c0.3,0,0.7-0.1,1-0.1c0.7-0.1,0.7-1.1,0-1.1c-0.3,0-0.7-0.1-1-0.1
	c0-0.1-0.1-0.2-0.1-0.3c-0.6-1.5-1.7-2.4-3.3-2.5c-0.2,0-0.8,0-1-0.1c-2.3-0.6-4.6,1.1-4.6,3.5
	C1483.5,950,1485.8,951.6,1488.1,951.1z M1470.6,912.3c2,0,2-3,0-3C1468.6,909.2,1468.6,912.3,1470.6,912.3z M1458.9,915
	c0.3-0.3,1.8-0.1,2.3-0.1c1,0,2-0.1,3-0.1c1,0,1-1.5,0-1.6c-0.9,0-1.9-0.1-2.8-0.1c-0.5,0-2.2,0.2-2.5-0.1c-0.9-0.8-2.5-0.3-2.5,1
	C1456.4,915.3,1458,915.8,1458.9,915z M1457.6,1010c1.5-0.1,1.5-2.2,0-2.3c-1.2-0.1-2.4-0.2-3.6,0.1c-1.5,0.3-2.5,1.7-2.6,3.2
	c-0.2,2.5,3.9,2.5,3.9,0c0-0.2,0-0.4,0-0.5c0,0,0,0,0.1,0C1456,1010.1,1456.8,1010.1,1457.6,1010z M1466,2459.6
	c0-2.9-2.4-5.3-5.3-5.3c-2.9,0-5.3,2.4-5.3,5.3c0,2.9,2.4,5.3,5.3,5.3C1463.6,2464.9,1466,2462.6,1466,2459.6z M1469.1,2796.4
	c-5.5,0-10,4.5-10,10c0,5.5,4.5,10,10,10c5.5,0,10-4.5,10-10C1479.1,2800.9,1474.6,2796.4,1469.1,2796.4z M1476.9,969.1
	c-2.7,0-5,2.3-5,5c0,2.7,2.3,5,5,5s5-2.3,5-5C1481.9,971.4,1479.6,969.1,1476.9,969.1z M1495.6,1054c-4.4,0-4.4,6.8,0,6.8
	C1499.9,1060.8,1499.9,1054,1495.6,1054z M1496.9,1004.8c0.1-1.3-1.6-2.2-2.4-1c-0.2,0-0.4,0-0.7-0.1c-1.7-0.2-3.7,1.1-4.5,2.6
	c-0.9,1.7-2,3.3-3.1,4.9c-0.2,0.1-0.3,0.3-0.5,0.4c-0.6,0.6-1,1.3-1.3,2c-0.7,1-1.4,1.9-2,2.9c-2.3,3.4,0.7,8.4,4.7,8.3
	c3.4-0.1,8-1.3,8.7-5.3c0.2-1.2,0.2-2.4,0-3.4c0.9-1.5,1.8-3,2.5-4.5c0.9-2,1.1-4.7-0.8-6.3
	C1497.3,1005.1,1497.1,1005,1496.9,1004.8z M1501.9,971.7c-4.2,0-4.2,6.6,0,6.6S1506.2,971.7,1501.9,971.7z M1504,851.7
	c-3.9,0-3.9,6,0,6C1507.9,857.6,1507.9,851.7,1504,851.7z M1516.2,924.1c0.5-0.5,0.9-1.1,0.9-1.9c0-0.7-0.3-1.4-0.9-1.9
	c-0.7-1.4-2.1-2.3-3.7-2.3c-2.3,0-4.2,1.9-4.2,4.2c0,2.3,1.9,4.2,4.2,4.2C1514,926.4,1515.5,925.5,1516.2,924.1z M1514.9,954.5
	c-4.8,0-4.8,7.4,0,7.4S1519.7,954.5,1514.9,954.5z M1521.6,975.9c0.6,0.1,1.1,0.3,1.7,0.4c1.1,0.5,2.3,0.6,3.5,0.3
	c0.3,0,0.6-0.1,1-0.1c0,0,0.1,0,0.4-0.1c0.6,0,1.1-0.1,1.7-0.2c0.8-0.2,2-0.8,2.6-1.5c1.6-1.9,1.8-4.2,0.7-6.4
	c-0.1-0.3-0.3-0.5-0.5-0.8c0-0.2,0-0.5,0-0.7c0.2-1.6-0.7-3.1-2-4.1c-0.9-0.7-2-1.2-3.3-1.2c-1.3,0-2.4,0.4-3.3,1.2
	c-0.4,0.3-0.8,0.7-1.2,1.2c-0.5,0.1-0.9,0.3-1.4,0.6c-0.5,0.3-0.9,0.6-1.3,0.9c-0.4,0.2-0.9,0.5-1.2,0.8c-1.1,1.1-1.5,2.8-1.1,4.3
	c0,0.1,0,0.2,0,0.3C1517.6,973.1,1519.4,975.4,1521.6,975.9z M1521.2,1033.2c2.7,0,2.7-4.2,0-4.2
	C1518.5,1029,1518.5,1033.2,1521.2,1033.2z M1524.4,1115.1c-1.9-0.2-3.5,0.3-4.4,2c-0.4,0.7-0.7,1.6-0.8,2.5
	c-0.2,1.1-0.7,2.5-0.1,3.5c1.3,2.2,4.6,1.4,4.6-1.3c0-0.8-0.2-1.5-0.1-2.3c0.1-0.6,0.4-1,0.6-1.5c0,0,0,0.1,0,0.1
	c-0.1,0.2,0.4-0.1,0.7-0.1C1526.6,1117.7,1525.9,1115.3,1524.4,1115.1z M1527.7,1003.8c-0.8-0.4-1.5-0.2-2.3-0.1
	c-0.8,0.1-1.6,0.1-2.4,0.2c-0.9,0.1-0.9,1.3,0,1.4c0.7,0.1,1.5,0.1,2.2,0.2c0.8,0.1,1.7,0.3,2.5-0.1
	C1528.3,1005.1,1528.3,1004.1,1527.7,1003.8z M1537.4,987c-2.1-0.6-4.5-0.4-6.7-0.5c-4.4-0.2-4.4,7,0,6.8c2.2-0.1,4.6,0.1,6.7-0.5
	C1540.3,992,1540.3,987.9,1537.4,987z M1543.4,889.6c0.5,0.4,1,0.7,1.6,0.9c0.4,0.1,0.8,0.1,1.1,0.2c0.8,0,1.5-0.2,2.2-0.6
	c0,0,0.1,0,0.1,0c0.6-0.4,1.1-0.9,1.5-1.5c0.4-0.7,0.6-1.4,0.6-2.1c0-0.8-0.2-1.5-0.6-2.1c-0.4-0.6-0.9-1.1-1.5-1.5c0,0-0.1,0-0.1,0
	c-0.7-0.4-1.4-0.6-2.2-0.6c-1,0-2,0.4-2.8,1c0,0-0.1,0-0.1,0c-1.4,0.4-2.4,1.7-2.4,3.2c0,1.5,1,2.8,2.4,3.2
	C1543.3,889.6,1543.4,889.6,1543.4,889.6z M1549.7,933.9c5.4,0,5.4-8.3,0-8.3C1544.4,925.6,1544.4,933.9,1549.7,933.9z
	 M1554.2,953.9c0-3.2-2.7-5.8-5.8-5.8c-3.2,0-5.8,2.7-5.8,5.8c0,3.2,2.7,5.8,5.8,5.8C1551.6,959.8,1554.2,957.1,1554.2,953.9z
	 M1552.9,965.5c-3,0-3,4.6,0,4.6C1555.9,970.1,1555.9,965.5,1552.9,965.5z M1556.1,983.8c4.4,0,4.4-6.8,0-6.8
	C1551.7,977,1551.7,983.8,1556.1,983.8z M1548.4,976.6c-0.6,0-1.1-0.3-1.3-0.8c0-0.1-0.1-0.2-0.1-0.3c0-0.1,0-0.1,0-0.2c0,0,0,0,0,0
	c0,0,0,0,0,0c0-0.1,0-0.2,0-0.3c0-0.8-1.3-0.8-1.3,0c0.1,1.5,1.2,2.7,2.8,2.6C1549.1,977.6,1549,976.7,1548.4,976.6z M1551.9,1065.4
	c-0.8,0.3-1.6,0.6-2.3,1c-1.2,0.6-1.2,2.6,0,3.1c0.8,0.4,1.5,0.7,2.3,1c0.6,0.2,1.5,0.1,2-0.3c0.8-0.5,1.3-1.3,1.3-2.3
	c0-0.7-0.3-1.4-0.8-1.9C1553.9,1065.5,1552.8,1065.1,1551.9,1065.4z M1552.6,1033.4c-1.5,0-2.3,1-2.8,2.2c-0.5,0.1-1,0.1-1.5,0.2
	c-0.7,0.1-0.7,1,0,1c0.5,0.1,1,0.1,1.5,0.2c0.4,1.2,1.3,2.2,2.8,2.2c1.6,0,2.9-1.3,2.9-2.9
	C1555.5,1034.7,1554.2,1033.4,1552.6,1033.4z M1562.5,997.9c-1.1-0.5-2.1-0.9-3.2-1.4c-0.1-0.1-0.3-0.1-0.4-0.2
	c-1.8-0.8-4.1-0.4-5.5,1.3c-0.5,0.5-0.8,1.2-0.9,1.9c-0.2,1.1,0,2.1,0.4,2.9c1.1,2.2,3.8,2.9,5.9,2.1c0.1,0,0.3-0.1,0.4-0.2
	c1.1-0.5,2.1-0.9,3.2-1.4C1564.4,1002,1564.4,998.7,1562.5,997.9z M1575.3,959.9c0.6-0.8,1-1.7,1.3-2.6c0.4-1.4,0.4-2.9,0-4.3
	c-0.3-0.9-0.7-1.8-1.3-2.7c-0.4-0.6-0.8-1.2-1.4-1.8c-1.8-1.8-4.1-2.6-6.6-2.7c-0.6,0-1.1-0.1-1.7-0.1c-2.3-0.1-4.3,0.7-5.9,2.1
	c-0.8,0.4-1.6,0.9-2.3,1.7c-1.4,1.4-2.1,3-2.5,4.8c-0.7,1.8-0.8,3.9-0.1,5.9c0.2,0.6,0.4,1.1,0.5,1.7c0.1,0.4,0.3,0.8,0.4,1.2
	c0.7,2.2,1.5,3.6,3.1,5.3c4.9,5.5,14.7,2.6,16.4-4.3C1575.3,962.6,1575.4,961.3,1575.3,959.9z M1568.7,805.5
	c-2.1-0.1-4.2-0.1-6.3-0.2c-1.2,0-1.2,1.9,0,1.8c2.1-0.1,4.2-0.1,6.3-0.2C1569.7,807,1569.7,805.5,1568.7,805.5z M1568,931.8
	c0.4,0.4,0.9,0.8,1.3,1c0.8,0.5,1.7,0.7,2.6,0.7c1.4,0,2.7-0.5,3.6-1.5c0.4-0.4,0.7-0.8,0.9-1.3c1-1.2,1.6-2.7,1.6-4.2
	c0-3.5-2.9-6.4-6.4-6.4c-3.5,0-6.4,2.9-6.4,6.4c0,1.7,0.7,3.3,1.9,4.5C1567.4,931.3,1567.7,931.5,1568,931.8z M1584.2,996.5
	c0-2.9-2.4-5.3-5.3-5.3c-2.9,0-5.3,2.4-5.3,5.3c0,2.9,2.4,5.3,5.3,5.3C1581.8,1001.8,1584.2,999.4,1584.2,996.5z M1597.8,977.2
	c3.1-5.4-5.9-9.4-7.9-3.3C1588.3,978.5,1595.3,981.4,1597.8,977.2z M1604,922.2c0-2.7-2.2-4.9-4.9-4.9c-2.7,0-4.9,2.2-4.9,4.9
	c0,2.7,2.2,4.9,4.9,4.9C1601.7,927.1,1604,924.9,1604,922.2z M1590.6,1044c1.9,0,3.5-1.6,3.5-3.5c0-1.7-1-2.7-2.4-3.3
	c-0.1-0.4-0.1-0.8-0.2-1.2c-0.1-0.9-1.7-0.9-1.8,0c-0.1,0.4-0.1,0.8-0.2,1.2c-1.4,0.6-2.4,1.6-2.4,3.3
	C1587.1,1042.4,1588.7,1044,1590.6,1044z M1584.3,1001c1.4,0,2.8-0.1,4.2-0.1c0.7,0,0.7-1.1,0-1.1c-1.4,0-2.8-0.1-4.2-0.1
	C1583.4,999.7,1583.4,1001,1584.3,1001z M1589.4,852c0-2.9-2.4-5.3-5.3-5.3c-2.9,0-5.3,2.4-5.3,5.3c0,2.9,2.4,5.3,5.3,5.3
	C1587.1,857.2,1589.4,854.9,1589.4,852z M1582.2,888.2c2.4,0,2.4-3.7,0-3.7C1579.8,884.5,1579.8,888.2,1582.2,888.2z M1584.6,1082.5
	c-3.1,0-3.1,4.9,0,4.9C1587.7,1087.4,1587.7,1082.5,1584.6,1082.5z M1594.2,1353c-5.5,0-10,4.5-10,10s4.5,10,10,10
	c5.5,0,10-4.5,10-10S1599.7,1353,1594.2,1353z M1612.1,1150.2c-0.8-1.4-0.7-3.5-0.8-5.1c-0.2-1.7-2.5-1.7-2.7,0
	c-0.2,1.6,0,3.7-0.8,5.1c-1,1.6,0.3,3.8,2.2,3.8C1611.8,1154,1613.1,1151.8,1612.1,1150.2z M1529.5,529.1c5.1-0.8,10.4-1.8,15.9-2.8
	c6-1.1,14.1,1.5,18.1,5.3c3.5,3.5,7.1,6.5,10.6,9.2c3.8,2.9,7.3,1.6,7.8-2.5c0.4-3.7,0.6-7.6,0.7-11.6c0.2-4.5,5.1-9.5,11.2-10.8
	c5.5-1.2,10.9-2.4,16.1-3.5c5.8-1.2,5.3-3.2-0.8-5c-5.5-1.6-11-3.5-16.4-5.6c-6-2.2-10.9-8.5-11.1-14c-0.2-4.9-0.2-9.9-0.2-15
	c0.1-5.6-2.5-7.3-6.2-3.6c-3.4,3.3-6.8,6.6-10.4,10c-3.9,3.7-11.7,4.5-17.2,1.5c-5-2.8-9.9-5.7-14.7-8.7c-5.3-3.4-7.6-1.5-5,4.6
	c2.4,5.5,4.9,10.9,7.7,16.2c3,5.8,2.7,13.7-0.9,18c-3.2,3.9-6.4,7.9-9.3,11.9C1522.1,527,1523.9,530.1,1529.5,529.1z M1625.6,859.7
	c1.1-0.3,1.9-1.1,2.5-2c0.1-0.2,0.2-0.4,0.3-0.6c0.4-0.7,0.5-1.4,0.5-2.2c0-1.4-1.2-2.6-2.6-2.6c-0.4,0-0.9,0-1.3,0.1
	c-0.2,0.1-0.5,0.2-0.7,0.3c-0.2,0-0.4,0-0.6,0.1c-1.2,0.3-2.2,1.3-2.5,2.5C1620.4,857.9,1623,860.4,1625.6,859.7z M1624.4,963.3
	c2.8,0,5.2-2.3,5.2-5.2c0-2.8-2.3-5.2-5.2-5.2c-2.8,0-5.2,2.3-5.2,5.2C1619.3,960.9,1621.6,963.3,1624.4,963.3z M1629.1,1010.1
	c0,0.3,0,0.5,0,0.8c0,2,1.7,3.7,3.7,3.7c2,0,3.8-1.7,3.7-3.7c0-0.2,0-0.5,0-0.7c0-0.6,0.1-1.5-0.2-2.1c-0.2-0.6-0.5-1.2-0.9-1.6
	c-0.7-0.7-1.6-1.1-2.6-1.1c-0.7,0-1.3,0.2-1.8,0.5c-0.2,0.2-0.5,0.4-0.7,0.6c-0.5,0.5-0.8,1-0.9,1.6
	C1629.1,1008.6,1629.2,1009.5,1629.1,1010.1z M1631.3,1655c0,2.9,2.4,5.3,5.3,5.3c2.9,0,5.3-2.4,5.3-5.3c0-2.9-2.4-5.3-5.3-5.3
	C1633.7,1649.7,1631.3,1652.1,1631.3,1655z M1459,2115.5c0,5.5,4.5,10,10,10c5.5,0,10-4.5,10-10c0-5.5-4.5-10-10-10
	C1463.5,2105.5,1459,2109.9,1459,2115.5z M4021.1,705.2c0,2.9,2.4,5.3,5.3,5.3c2.9,0,5.3-2.4,5.3-5.3c0-2.9-2.4-5.3-5.3-5.3
	C4023.4,699.9,4021.1,702.2,4021.1,705.2z M4214.8,1046.4c-0.4,0-0.9,0-1.3,0.1c-0.3-0.3-0.8-0.6-1.4-0.7c-0.7-0.1-1.2,0.2-1.8,0.5
	c-0.6,0.4-1.1,0.3-1.6,0.8c-0.4,0.3-0.7,0.8-1,1.3c-0.2,0.4-0.4,0.7-0.6,1.1c-2.7-1.4-5.4-2.6-8.3-3.5c-4.2-1.2-8.4-2.2-12.7-3.2
	c2.8-9.2,5.4-18.4,7.7-27.7c1.8,0.7,4.2-0.6,4.8-2.4c0.3-0.8,0.5-1.7,0.4-2.6c0.6-0.8,1-1.8,1.1-2.8c0,0.3-0.2,0.3-0.1,0
	c0.2-0.8,0.2-1.1,0.1-2c-0.1-1.3-1-2.3-2-3.1c-1-0.7-2.2-0.8-3.2-0.3c-0.3-0.1-0.6-0.2-0.9-0.3c-2-0.8-4.1,0.5-4.9,2.4
	c-0.6,1.7-1.1,3.4-1.2,5.2c-0.1,1.4,0.2,2.9,1.2,3.9c1.1,1.1,2.3,1.4,3.5,1.2c0,0,0,0,0,0c-3.1,9.3-6.3,18.6-9.4,27.9
	c-8.4-1.9-17-3.3-25.3-5.7c-0.3-1.1-0.7-2.1-1.5-2.9c0-0.7-0.3-1.3-1-1.7c-0.4-0.2-1-0.8-1.7-1.2c-0.3-0.2-0.8-0.3-1.2-0.4
	c0-0.2,0-0.4,0-0.6c0-0.4-0.6-0.7-0.8-0.3c-0.2,0.3-0.3,0.6-0.4,0.9c-1.2,0.3-2.1,1.1-2,2.5c0,0.5,0.1,1,0.1,1.5
	c-0.1,0.1-0.2,0.2-0.3,0.3c-1.1,1.3,0,3.4,1.5,3.7c0.5,0.8,1.2,1.5,1.7,2.2c0.9,1.2,2.7,1.4,4,0.8c1.3-0.6,1.8-1.8,1.8-3.1
	c7.6,2.9,15.5,5.3,23.4,7.2c0.2,0,0.3,0.1,0.5,0.1c-1.8,5.4-3.6,10.7-5.2,16.1c-1.3,4.3-2.4,8.8-3.5,13.2c-0.9,0.2-1.7,0.7-2.3,1.5
	c-0.2,0.3-0.4,0.6-0.6,0.9c0,0,0,0,0,0c0,0-0.1,0.1-0.1,0.1c-1.5,0.6-2.4,2.4-2.5,3.9c0,0.5,0,1.3,0.3,1.9c0,0.3,0.1,0.5,0.1,0.8
	c0,0,0,0,0,0c0,0.2,0,0.4,0,0.6c0,2.1,1.1,4.1,3.3,4.8c1.9,0.6,4.4-0.1,5.5-1.9c1.2-2.1,2-4.4,1.3-6.7c0.6-1.1,0.3-2.4-0.4-3.5
	c-0.5-0.7-1.2-1.3-1.9-1.8c-0.4-0.3-0.9-0.5-1.4-0.6c0.3-0.9,0.7-1.7,1.1-2.5c1.3-2.9,2.6-5.7,3.7-8.7c2-5.7,3.9-11.5,5.7-17.3
	c3.9,1,7.7,2,11.5,3.1c3.2,1,6.5,1.7,9.8,2.6c-0.2,1.1-0.1,2.2,0.1,3.3c0-0.1,0-0.1,0-0.2c0.2,1.7,1.5,3.3,3.4,3.2
	c1.6-0.1,2.6-0.8,3.8-1.7c1.2-1,2.4-2,3.6-3.1C4219.5,1051.1,4218.4,1046.3,4214.8,1046.4z M4382.3,750.4c5.5,0,10-4.5,10-10
	c0-5.5-4.5-10-10-10s-10,4.5-10,10C4372.2,745.9,4376.7,750.4,4382.3,750.4z M4689,889.8c-5.5,0-10,4.5-10,10c0,5.5,4.5,10,10,10
	c5.5,0,10-4.5,10-10C4699,894.2,4694.5,889.8,4689,889.8z M4796.4,667.3c2.9,0,5.3-2.4,5.3-5.3c0-2.9-2.4-5.3-5.3-5.3
	c-2.9,0-5.3,2.4-5.3,5.3C4791.2,665,4793.5,667.3,4796.4,667.3z M5007.4,981.2c5.5,0,10-4.5,10-10c0-5.5-4.5-10-10-10s-10,4.5-10,10
	C4997.4,976.7,5001.9,981.2,5007.4,981.2z M1628,2766.4c-5.5,0-10,4.5-10,10s4.5,10,10,10c5.5,0,10-4.5,10-10
	S1633.6,2766.4,1628,2766.4z M1735.5,2533.4c-2.9,0-5.3,2.4-5.3,5.3c0,2.9,2.4,5.3,5.3,5.3c2.9,0,5.3-2.4,5.3-5.3
	C1740.8,2535.8,1738.4,2533.4,1735.5,2533.4z M1811.6,2204.6c-3.2-0.8-6.5-1.3-9.6-2.6c-3-1.2-7.3-1.1-10.6-1.5
	c-1.3-0.2-2.5-0.3-3.8-0.5c0.2-0.5,0-1.3-0.7-1.5c-6.4-1.7-13.2-2.3-19.8-3.1c-7.4-0.9-14.8-1.8-22.3-2.5c-9.3-1-18.5-1.8-27.8-2.6
	c0.3-0.3,0.5-0.6,0.8-0.9c26.6,3,53.1,6.9,79.8,8.2c1.1,0.1,1-1.5,0-1.6c-25.8-3.4-51.8-6.4-77.7-9.1c17.7-20.5,35-41.3,55.8-58.7
	c0.2-0.1-0.1-0.4-0.2-0.2c-16.8,13.6-31.3,29.7-45.6,45.8c-3.8,4.3-7.6,8.6-11.4,13c-0.8-0.1-1.6-0.2-2.4-0.2c0-0.1,0-0.2,0-0.3
	c14.2-16.8,27.9-33.9,43.1-49.8c0.1-0.1-0.1-0.4-0.2-0.2c-15.5,14.9-28.9,31.8-42.7,48.2c0.3-3.1,0.6-6.2,0.9-9.2
	c2-20.9,3.6-41.7,4-62.6c1.8-10.6,4.3-21,7.7-31.2c0-0.1-0.1-0.1-0.1,0c-3.2,9-5.6,18.1-7.6,27.4c0-4.4,0-8.7-0.1-13.1
	c0.8-6.6,1.6-13.2,2.5-19.7c0-0.2-0.4-0.3-0.4-0.1c-0.7,4.7-1.5,9.4-2.2,14.2c-0.1-1.9-0.2-3.9-0.3-5.8c0-0.1-0.2-0.1-0.2,0
	c0.1,2.5,0.1,5,0.2,7.5c-3.8,25-7.4,50.1-9.6,75.3c-0.4,5-0.9,10-1.2,15c-0.8-1.7-1.7-3.3-2.5-5c-7.6-14.8-15.5-29.7-25.5-43.1
	c-1.7-3.8-3.4-7.6-5.1-11.3c0-0.1-0.2,0-0.2,0.1c1.1,3,2.3,5.9,3.5,8.8c-0.2-0.2-0.3-0.5-0.5-0.7c-0.1-0.2-0.5,0-0.3,0.2
	c0.6,0.8,1.1,1.6,1.6,2.5c5.9,14.5,12.6,28.7,19.7,42.6c1.6,3.2,3.3,6.3,5,9.4c-14.7-1.5-29.4-2.7-44.1-3.2
	c-7.9-0.3-15.9-0.5-23.9-0.4c-8.1,0-16,0.8-24,1.2c-0.9,0-1.9,0-2.8,0c-0.2,0-0.3,0.3,0,0.4c6.1,1.1,12.3,1.9,18.5,2.6
	c25.2,6.2,51,8.9,76.8,10.7c-4.5,5.1-9,10.2-13.6,15.1c-7.7,8.2-16,15.6-24.1,23.3c-0.3,0.3,0.1,0.9,0.5,0.6
	c8.6-6.4,16.3-14.5,23.6-22.3c5.1-5.4,10.1-11,15-16.7c0.5,0,1.1,0.1,1.6,0.1c0,0.3-0.1,0.6-0.1,1c-7.9,8.9-15.9,17.7-24.1,26.3
	c-0.3,0.3,0.2,0.7,0.5,0.5c8.2-7.8,15.9-16.1,23.4-24.5c-1.8,18.5-2.7,37.1-3.9,55.6c-1.5-2-3.5-3.8-6-3.9c-0.1,0-0.1,0.2,0,0.2
	c2.4,0.3,4.4,1.7,6,3.7c0,0.2,0,0.3,0,0.5c-0.5,8.2-1.2,16.4-1.9,24.6c-0.7,3.1-1.4,6.3-2.2,9.4c-0.2,0.8,0.5,1.2,1.1,1.1
	c-0.3,2.3-0.5,4.6-1,6.9c-0.4,1.8-0.7,4.4-2,5.9c-0.1,0.1,0,0.2,0.1,0.1c1.1-1.1,1.4-3,1.8-4.4c0.9-3.3,1.5-6.5,2-9.8
	c2.7-8.3,4.7-16.8,6.1-25.4c0,0.1,0,0.2,0.1,0.3c0.1,1.2,0.1,2.4,0.2,3.6c0,0.4,0.3,0.6,0.5,0.7c0.1,0.7,0.1,1.4,0.2,2.1
	c0,0,0,0,0,0c0-0.7-0.1-1.4-0.1-2.1c0.4,0.1,0.8-0.2,0.8-0.7c0.7-9.7,1.1-19.4,1.5-29.2c1-10.1,1.6-20.3,2.1-30.4
	c0.2-2.4,0.4-4.7,0.6-7.1c0.6,0.9,1.1,1.9,1.7,2.8c2.7,4.5,5.5,8.8,8.4,13.2c1.9,2.8,3.8,5.8,5.9,8.5c3.4,6.2,7.1,12.4,11.5,17.9
	c0.4,0.6,1.3-0.2,0.9-0.7c-4.2-7.8-8.9-15.3-13.4-22.9c-4-7.6-8-15.3-12-22.9c15.9,1,31.8,1.9,47.7,3.2c7.9,0.6,15.9,1.4,23.8,2.4
	c4,0.5,8,1,11.9,1.7c1.4,0.2,2.8-0.1,4.1,0.1c2,0.3,3.9,0.6,5.9,0.9C1811.9,2205.7,1812.2,2204.8,1811.6,2204.6z M2071.6,2085.4
	c-5.5,0-10,4.5-10,10s4.5,10,10,10c5.5,0,10-4.5,10-10S2077.1,2085.4,2071.6,2085.4z M2113.9,2382.1c-2.9,0-5.3,2.4-5.3,5.3
	c0,2.9,2.4,5.3,5.3,5.3c2.9,0,5.3-2.4,5.3-5.3C2119.2,2384.4,2116.9,2382.1,2113.9,2382.1z M1656.1,914.7c3.9,0,3.9-6.1,0-6.1
	S1652.2,914.7,1656.1,914.7z M1655.3,1065.8c0,1.2,1,2.3,2.3,2.3c1.2,0,2.3-1,2.3-2.3s-1-2.3-2.3-2.3
	C1656.3,1063.5,1655.3,1064.6,1655.3,1065.8z M1666.5,996.7c0.5,0.5,1.3-0.3,0.8-0.8c-1-1.1-2-2.2-3.1-3.3c-0.6-0.7-1.6,0.4-1,1
	C1664.3,994.6,1665.4,995.6,1666.5,996.7z M1679.6,1023.4c2.3,0,2.3-3.6,0-3.6C1677.3,1019.8,1677.3,1023.4,1679.6,1023.4z
	 M2306.7,2917.8c-2.9,0-5.3,2.4-5.3,5.3c0,2.9,2.4,5.3,5.3,5.3c2.9,0,5.3-2.4,5.3-5.3C2311.9,2920.1,2309.6,2917.8,2306.7,2917.8z
	 M2698.1,944.5c0,2.9,2.4,5.3,5.3,5.3c2.9,0,5.3-2.4,5.3-5.3c0-2.9-2.4-5.3-5.3-5.3C2700.5,939.2,2698.1,941.6,2698.1,944.5z
	 M2698.1,667.5c2.9,0,5.3-2.4,5.3-5.3s-2.4-5.3-5.3-5.3c-2.9,0-5.3,2.4-5.3,5.3S2695.2,667.5,2698.1,667.5z M2106.3,410.3
	c2.9,0,5.3-2.4,5.3-5.3c0-2.9-2.4-5.3-5.3-5.3c-2.9,0-5.3,2.4-5.3,5.3C2101,408,2103.4,410.3,2106.3,410.3z M2018.4,924.5
	c3.8,0.2,7.2,0.2,10.3,0.3c3.3,0.1,5.6,2.9,5.4,7.1c-0.2,3.8-0.6,8.1-1.1,13.1c-0.6,5.5,1.4,6.3,4.3,0.9c2.6-4.8,4.9-9.1,6.8-12.8
	c2.1-4.1,6.2-6.3,10.4-5.9c3.9,0.4,8.4,0.8,13.5,0.9c5.6,0.1,6.3-2,1.9-4.2c-3.9-2.1-7.4-4-10.3-5.9c-3.2-2-3.9-5.5-1.9-8.2
	c1.9-2.5,4-5.1,6.3-8c2.7-3.2,0.2-4.1-4.1-2.1c-3.9,1.7-7.1,3.3-9.9,4.6c-3.1,1.5-6.8,1-9-1.5c-2-2.2-4.2-4.9-6.8-8.3
	c-3-4-4.5-3.4-3.2,1.3c1,4.1,1.7,7.6,2.3,10.6c0.6,3.3-1.3,6.5-4.4,8.1c-2.8,1.3-6,2.9-9.8,4.8
	C2014.7,921.5,2014.1,924.3,2018.4,924.5z M2119.5,1463.9c-1.7-3.9-34,3.3-41.3,1.3c-7.3-2.4-18.2-26.5-27-26.3
	c-8.9,0.2-2.1,26.5-6.6,32.1c-4.6,5.3-40.1,7.6-38.1,14.3c3.3,6.6,37.6,8.9,42.2,14.8c4.5,5.5,8.6,36.5,14.3,38
	c3.3,0.5,5.2-28.8,12.2-31c7.4-3.3,18.4,2.4,22.8,2.9c0.6-0.2,1.3-0.5,1.9-0.7c3.8-4-8.7-17.4-8.3-23.9
	C2091.9,1478.4,2120,1466.5,2119.5,1463.9z M3195.3,1778.9c-2.9,0-5.3,2.4-5.3,5.3c0,2.9,2.4,5.3,5.3,5.3c2.9,0,5.3-2.4,5.3-5.3
	C3200.6,1781.3,3198.2,1778.9,3195.3,1778.9z M3229.2,1483.2c-3.8-5-4.6-12.8-1.9-17.4c2.4-4.2,5-8.4,7.7-12.5
	c3-4.6,1.8-7.3-3.2-6.3c-4.5,1-9.1,1.9-13.9,2.8c-5.2,1-12.1-2.4-15.1-7.8c-2.7-4.9-5.2-9.9-7.6-15c-2.6-5.6-5.5-5.2-6.6,1.2
	c-0.9,5.8-1.6,11.6-2.1,17.4c-0.6,6.4-5,12.8-10.2,14.5c-4.7,1.5-9.4,3.2-14,5c-5,2-5,5.5,0.1,7.7c4.7,2,9.6,4,14.6,6
	c5.5,2.2,10.9,8.7,12.2,13.8c1.1,4.7,2.5,9.1,3.9,13.2c1.6,4.4,5.3,5.1,7.8,2c2.3-2.9,4.5-6,6.7-9.3c2.5-3.6,9.2-5.2,14.9-3.1
	c5.2,1.8,10.3,3.7,15.2,5.6c5.4,2,6,0.1,1.9-4.6C3236.1,1492.2,3232.5,1487.8,3229.2,1483.2z M3551.2,1829.5c5.5,0,10-4.5,10-10
	c0-5.5-4.5-10-10-10s-10,4.5-10,10C3541.2,1825,3545.7,1829.5,3551.2,1829.5z M3699,1307.9c-5.5,0-10,4.5-10,10c0,5.5,4.5,10,10,10
	c5.5,0,10-4.5,10-10C3709,1312.4,3704.6,1307.9,3699,1307.9z M3858,1968.8c-5.5,0-10,4.5-10,10s4.5,10,10,10c5.5,0,10-4.5,10-10
	S3863.5,1968.8,3858,1968.8z M3970.7,1741.1c0-2.9-2.4-5.3-5.3-5.3c-2.9,0-5.3,2.4-5.3,5.3c0,2.9,2.4,5.3,5.3,5.3
	C3968.3,1746.4,3970.7,1744,3970.7,1741.1z M4035.3,1407.2c2,0.3,3.9,0.6,5.9,0.9c0.6,0.1,0.9-0.8,0.3-1c-3.2-0.8-6.5-1.3-9.6-2.6
	c-3-1.2-7.3-1.1-10.6-1.5c-1.3-0.2-2.5-0.3-3.8-0.5c0.2-0.5,0-1.3-0.7-1.5c-6.4-1.7-13.2-2.3-19.8-3.1c-7.4-0.9-14.8-1.8-22.3-2.5
	c-9.3-1-18.5-1.8-27.8-2.6c0.3-0.3,0.5-0.6,0.8-0.9c26.6,3,53.1,6.9,79.8,8.2c1.1,0.1,1-1.5,0-1.6c-25.8-3.4-51.8-6.4-77.7-9.1
	c17.7-20.5,35-41.3,55.8-58.7c0.2-0.1-0.1-0.4-0.2-0.2c-16.8,13.6-31.3,29.7-45.6,45.8c-3.8,4.3-7.6,8.6-11.4,13
	c-0.8-0.1-1.6-0.2-2.4-0.2c0-0.1,0-0.2,0-0.3c14.2-16.8,27.9-33.9,43.1-49.8c0.1-0.1-0.1-0.4-0.2-0.2
	c-15.5,14.9-28.9,31.8-42.7,48.2c0.3-3.1,0.6-6.2,0.9-9.2c2-20.9,3.6-41.7,4-62.6c1.8-10.6,4.3-21,7.7-31.2c0-0.1-0.1-0.1-0.1,0
	c-3.2,9-5.6,18.1-7.6,27.4c0-4.4,0-8.7-0.1-13.1c0.8-6.6,1.6-13.2,2.5-19.7c0-0.2-0.4-0.3-0.4-0.1c-0.7,4.7-1.5,9.4-2.2,14.2
	c-0.1-1.9-0.2-3.9-0.3-5.8c0-0.1-0.2-0.1-0.2,0c0.1,2.5,0.1,5,0.2,7.5c-3.8,25-7.4,50.1-9.6,75.3c-0.4,5-0.9,10-1.2,15
	c-0.8-1.7-1.7-3.3-2.5-5c-7.6-14.8-15.5-29.7-25.5-43.1c-1.7-3.8-3.4-7.6-5.1-11.3c0-0.1-0.2,0-0.2,0.1c1.1,3,2.3,5.9,3.5,8.8
	c-0.2-0.2-0.3-0.5-0.5-0.7c-0.1-0.2-0.5,0-0.3,0.2c0.6,0.8,1.1,1.6,1.6,2.5c5.9,14.5,12.6,28.7,19.7,42.6c1.6,3.2,3.3,6.3,5,9.4
	c-14.7-1.5-29.4-2.7-44.1-3.2c-7.9-0.3-15.9-0.5-23.9-0.4c-8.1,0-16,0.8-24,1.2c-0.9,0-1.9,0-2.8,0c-0.2,0-0.3,0.3,0,0.4
	c6.1,1.1,12.3,1.9,18.5,2.6c25.2,6.2,51,8.9,76.8,10.7c-4.5,5.1-9,10.2-13.6,15.1c-7.7,8.2-16,15.6-24.1,23.3
	c-0.3,0.3,0.1,0.9,0.5,0.6c8.6-6.4,16.3-14.5,23.6-22.3c5.1-5.4,10.1-11,15-16.7c0.5,0,1.1,0.1,1.6,0.1c0,0.3-0.1,0.6-0.1,1
	c-7.9,8.9-15.9,17.7-24.1,26.3c-0.3,0.3,0.2,0.7,0.5,0.5c8.2-7.8,15.9-16.1,23.4-24.5c-1.8,18.5-2.7,37.1-3.9,55.6
	c-1.5-2-3.5-3.8-6-3.9c-0.1,0-0.1,0.2,0,0.2c2.4,0.3,4.4,1.7,6,3.7c0,0.2,0,0.3,0,0.5c-0.5,8.2-1.2,16.4-1.9,24.6
	c-0.7,3.1-1.4,6.3-2.2,9.4c-0.2,0.8,0.5,1.2,1.1,1.1c-0.3,2.3-0.5,4.6-1,6.9c-0.4,1.8-0.7,4.4-2,5.9c-0.1,0.1,0,0.2,0.1,0.1
	c1.1-1.1,1.4-3,1.8-4.4c0.9-3.3,1.5-6.5,2-9.8c2.7-8.3,4.7-16.8,6.1-25.4c0,0.1,0,0.2,0.1,0.3c0.1,1.2,0.1,2.4,0.2,3.6
	c0,0.4,0.3,0.6,0.5,0.7c0.1,0.7,0.1,1.4,0.2,2.1c0,0,0,0,0,0c0-0.7-0.1-1.4-0.1-2.1c0.4,0.1,0.8-0.2,0.8-0.7
	c0.7-9.7,1.1-19.4,1.5-29.2c1-10.1,1.6-20.3,2.1-30.4c0.2-2.4,0.4-4.7,0.6-7.1c0.6,0.9,1.1,1.9,1.7,2.8c2.7,4.5,5.5,8.8,8.4,13.2
	c1.9,2.8,3.8,5.8,5.9,8.5c3.4,6.2,7.1,12.4,11.5,17.9c0.4,0.6,1.3-0.2,0.9-0.7c-4.2-7.8-8.9-15.3-13.4-22.9c-4-7.6-8-15.3-12-22.9
	c15.9,1,31.8,1.9,47.7,3.2c7.9,0.6,15.9,1.4,23.8,2.4c4,0.5,8,1,11.9,1.7C4032.6,1407.3,4034,1407,4035.3,1407.2z M4301.5,1287.8
	c-5.5,0-10,4.5-10,10s4.5,10,10,10s10-4.5,10-10S4307,1287.8,4301.5,1287.8z M4338.6,1589.8c0,2.9,2.4,5.3,5.3,5.3
	c2.9,0,5.3-2.4,5.3-5.3c0-2.9-2.4-5.3-5.3-5.3C4341,1584.5,4338.6,1586.9,4338.6,1589.8z M4518.9,2139.4c-3.2-0.8-6.5-1.3-9.6-2.6
	c-3-1.2-7.3-1.1-10.6-1.5c-1.3-0.2-2.5-0.3-3.8-0.5c0.2-0.5,0-1.3-0.7-1.5c-6.4-1.7-13.2-2.3-19.8-3.1c-7.4-0.9-14.8-1.8-22.3-2.5
	c-9.3-1-18.5-1.8-27.8-2.6c0.3-0.3,0.5-0.6,0.8-0.9c26.6,3,53.1,6.9,79.8,8.2c1.1,0.1,1-1.5,0-1.6c-25.8-3.4-51.8-6.4-77.7-9.1
	c17.7-20.5,35-41.3,55.8-58.7c0.2-0.1-0.1-0.4-0.2-0.2c-16.8,13.6-31.3,29.7-45.6,45.8c-3.8,4.3-7.6,8.6-11.4,13
	c-0.8-0.1-1.6-0.2-2.4-0.2c0-0.1,0-0.2,0-0.3c14.2-16.8,27.9-33.9,43.1-49.8c0.1-0.1-0.1-0.4-0.2-0.2
	c-15.5,14.9-28.9,31.8-42.7,48.2c0.3-3.1,0.6-6.2,0.9-9.2c2-20.9,3.6-41.7,4-62.6c1.8-10.6,4.3-21,7.7-31.2c0-0.1-0.1-0.1-0.1,0
	c-3.2,9-5.6,18.1-7.6,27.4c0-4.4,0-8.7-0.1-13.1c0.8-6.6,1.6-13.2,2.5-19.7c0-0.2-0.4-0.3-0.4-0.1c-0.7,4.7-1.5,9.4-2.2,14.2
	c-0.1-1.9-0.2-3.9-0.3-5.8c0-0.1-0.2-0.1-0.2,0c0.1,2.5,0.1,5,0.2,7.5c-3.8,25-7.4,50.1-9.6,75.3c-0.4,5-0.9,10-1.2,15
	c-0.8-1.7-1.7-3.3-2.5-5c-7.6-14.8-15.5-29.7-25.5-43.1c-1.7-3.8-3.4-7.6-5.1-11.3c0-0.1-0.2,0-0.2,0.1c1.1,3,2.3,5.9,3.5,8.8
	c-0.2-0.2-0.3-0.5-0.5-0.7c-0.1-0.2-0.5,0-0.3,0.2c0.6,0.8,1.1,1.6,1.6,2.5c5.9,14.5,12.6,28.7,19.7,42.6c1.6,3.2,3.3,6.3,5,9.4
	c-14.7-1.5-29.4-2.7-44.1-3.2c-7.9-0.3-15.9-0.5-23.9-0.4c-8.1,0-16,0.8-24,1.2c-0.9,0-1.9,0-2.8,0c-0.2,0-0.3,0.3,0,0.4
	c6.1,1.1,12.3,1.9,18.5,2.6c25.2,6.2,51,8.9,76.8,10.7c-4.5,5.1-9,10.2-13.6,15.1c-7.7,8.2-16,15.6-24.1,23.3
	c-0.3,0.3,0.1,0.9,0.5,0.6c8.6-6.4,16.3-14.5,23.6-22.3c5.1-5.4,10.1-11,15-16.7c0.5,0,1.1,0.1,1.6,0.1c0,0.3-0.1,0.6-0.1,1
	c-7.9,8.9-15.9,17.7-24.1,26.3c-0.3,0.3,0.2,0.7,0.5,0.5c8.2-7.8,15.9-16.1,23.4-24.5c-1.8,18.5-2.7,37.1-3.9,55.6
	c-1.5-2-3.5-3.8-6-3.9c-0.1,0-0.1,0.2,0,0.2c2.4,0.3,4.4,1.7,6,3.7c0,0.2,0,0.3,0,0.5c-0.5,8.2-1.2,16.4-1.9,24.6
	c-0.7,3.1-1.4,6.3-2.2,9.4c-0.2,0.8,0.5,1.2,1.1,1.1c-0.3,2.3-0.5,4.6-1,6.9c-0.4,1.8-0.7,4.4-2,5.9c-0.1,0.1,0,0.2,0.1,0.1
	c1.1-1.1,1.4-3,1.8-4.4c0.9-3.3,1.5-6.5,2-9.8c2.7-8.3,4.7-16.8,6.1-25.4c0,0.1,0,0.2,0.1,0.3c0.1,1.2,0.1,2.4,0.2,3.6
	c0,0.4,0.3,0.6,0.5,0.7c0.1,0.7,0.1,1.4,0.2,2.1c0,0,0,0,0,0c0-0.7-0.1-1.4-0.1-2.1c0.4,0.1,0.8-0.2,0.8-0.7
	c0.7-9.7,1.1-19.4,1.5-29.2c1-10.1,1.6-20.3,2.1-30.4c0.2-2.4,0.4-4.7,0.6-7.1c0.6,0.9,1.1,1.9,1.7,2.8c2.7,4.5,5.5,8.8,8.4,13.2
	c1.9,2.8,3.8,5.8,5.9,8.5c3.4,6.2,7.1,12.4,11.5,17.9c0.4,0.6,1.3-0.2,0.9-0.7c-4.2-7.8-8.9-15.3-13.4-22.9c-4-7.6-8-15.3-12-22.9
	c15.9,1,31.8,1.9,47.7,3.2c7.9,0.6,15.9,1.4,23.8,2.4c4,0.5,8,1,11.9,1.7c1.4,0.2,2.8-0.1,4.1,0.1c2,0.3,3.9,0.6,5.9,0.9
	C4519.2,2140.5,4519.5,2139.6,4518.9,2139.4z M4788.9,2030.2c0-5.5-4.5-10-10-10c-5.5,0-10,4.5-10,10c0,5.5,4.5,10,10,10
	C4784.4,2040.2,4788.9,2035.7,4788.9,2030.2z M4785.6,1400c-7.3-2.4-18.2-26.5-27-26.3c-8.9,0.2-2.1,26.5-6.6,32.1
	c-4.6,5.3-40.1,7.6-38.1,14.3c3.3,6.6,37.6,8.9,42.2,14.8c4.5,5.5,8.6,36.5,14.3,38c3.3,0.5,5.2-28.8,12.2-31
	c7.4-3.3,18.4,2.4,22.8,2.9c0.6-0.2,1.3-0.5,1.9-0.7c3.8-4-8.7-17.4-8.3-23.9c0.3-6.9,28.5-18.8,28-21.4
	C4825.1,1394.7,4792.8,1401.9,4785.6,1400z M1829.2,371.6c-2.9,0-5.3,2.4-5.3,5.3c0,2.9,2.4,5.3,5.3,5.3s5.3-2.4,5.3-5.3
	C1834.5,373.9,1832.1,371.6,1829.2,371.6z M1744.6,857.1c5.5,0,10-4.5,10-10c0-5.5-4.5-10-10-10c-5.5,0-10,4.5-10,10
	C1734.5,852.6,1739,857.1,1744.6,857.1z M1734.4,1122.4c2.9,0,5.3-2.4,5.3-5.3c0-2.9-2.4-5.3-5.3-5.3c-2.9,0-5.3,2.4-5.3,5.3
	C1729.2,1120,1731.5,1122.4,1734.4,1122.4z M1862.4,3030.4c-5.5,0-10,4.5-10,10c0,5.5,4.5,10,10,10s10-4.5,10-10
	C1872.5,3034.9,1868,3030.4,1862.4,3030.4z M3055.7,2328c-2.9,0-5.3,3.4-5.3,7.5c0,4.2,2.4,7.5,5.3,7.5c2.9,0,5.3-3.4,5.3-7.5
	C3061,2331.4,3058.6,2328,3055.7,2328z M3339.9,2264.3c-2.9,0-5.3,3.4-5.3,7.5c0,4.2,2.4,7.5,5.3,7.5c2.9,0,5.3-3.4,5.3-7.5
	C3345.2,2267.7,3342.8,2264.3,3339.9,2264.3z M3523.1,2486.8c0,7.9,4.5,14.3,10,14.3c5.5,0,10-6.4,10-14.3c0-7.9-4.5-14.3-10-14.3
	C3527.6,2472.5,3523.1,2478.9,3523.1,2486.8z M3692,2515.4c-5.5,0-10,6.4-10,14.3s4.5,14.3,10,14.3c5.5,0,10-6.4,10-14.3
	S3697.6,2515.4,3692,2515.4z M4370.7,2312.9c-2.9,0-5.3,3.4-5.3,7.5c0,4.2,2.4,7.5,5.3,7.5c2.9,0,5.3-3.4,5.3-7.5
	C4376,2316.3,4373.6,2312.9,4370.7,2312.9z M3936.5,2153c0-7.9-4.5-14.3-10-14.3s-10,6.4-10,14.3c0,7.9,4.5,14.3,10,14.3
	S3936.5,2160.9,3936.5,2153z M2266.9,2313.6c0.9,0.9,1.8,1.8,2.7,2.7C2268.7,2315.3,2267.9,2314.4,2266.9,2313.6z M2265.2,2312.4
	c0.6,0.4,1.1,0.8,1.6,1.2c-0.5-0.5-1-0.9-1.4-1.4C2265.3,2312,2265,2312.3,2265.2,2312.4z M2203.4,1457.6c-2.9,0-5.3,2.4-5.3,5.3
	c0,2.9,2.4,5.3,5.3,5.3s5.3-2.4,5.3-5.3C2208.7,1460,2206.3,1457.6,2203.4,1457.6z M2315.6,2254c-1.1,2.3-2.1,4.9-2.8,7.6
	C2313.7,2259,2314.8,2256.5,2315.6,2254z M2316.2,2252.2c-0.2,0.6-0.4,1.2-0.6,1.8c0.3-0.6,0.5-1.1,0.8-1.7
	C2316.5,2252.1,2316.2,2252,2316.2,2252.2z M2346.2,2282.4c0.4,0.3,0.8,0.6,1.2,0.9c-0.3-0.4-0.7-0.8-1-1.2
	C2346.3,2282,2346.1,2282.3,2346.2,2282.4z M2347.5,2283.3c3.6,4.1,7,8,10.1,12.3C2355,2290.8,2351.7,2286.6,2347.5,2283.3z
	 M2376.3,627.1c-4.1-3.4-8.3-6.7-12.6-9.9c-4.7-3.5-7.4-10.9-5.9-16.8c1.4-5.3,2.6-10.7,3.6-16.2c1.1-6-1.9-7.8-6.5-3.9
	c-4.2,3.5-8.4,7.1-12.6,10.6c-4.7,3.9-12.8,4.8-17.8,2c-4.6-2.5-9.2-5-13.7-7.6c-5-2.8-7.3-0.9-5.5,4.5c1.7,4.9,3.3,9.9,4.9,14.9
	c1.8,5.5-0.7,13.2-5.4,17.1c-4.3,3.5-8.6,7-12.8,10.4c-4.7,3.7-3.5,7,2.6,7.1c5.5,0,11.1-0.1,16.6-0.4c6.1-0.3,12.8,3.6,15.4,9
	c2.3,4.8,4.7,9.6,7.3,14.3c2.9,5.1,5.9,4.6,6.9-1.1c1-5.1,2.2-10.3,3.6-15.5c1.5-5.7,7.8-10.9,13.7-11.3c5.3-0.4,10.6-0.6,15.9-0.6
	C2379.7,633.7,2380.8,630.9,2376.3,627.1z M2382.3,2279.4c0.5,0.2,0.9,0.4,1.3,0.6c-0.4-0.3-0.8-0.6-1.2-0.8
	C2382.2,2279,2382.1,2279.3,2382.3,2279.4z M2383.6,2280c2.8,2,5.5,4,8.1,6.1C2389.3,2283.5,2386.6,2281.4,2383.6,2280z
	 M2418.3,1920.2c-2.9,0-5.3,2.4-5.3,5.3c0,2.9,2.4,5.3,5.3,5.3c2.9,0,5.3-2.4,5.3-5.3C2423.6,1922.5,2421.2,1920.2,2418.3,1920.2z
	 M2439.8,764.1c-2.9,0-5.3,2.4-5.3,5.3s2.4,5.3,5.3,5.3c2.9,0,5.3-2.4,5.3-5.3S2442.7,764.1,2439.8,764.1z M2445,537.1
	c-2.9,0-5.3,2.4-5.3,5.3c0,2.9,2.4,5.3,5.3,5.3c2.9,0,5.3-2.4,5.3-5.3C2450.3,539.4,2447.9,537.1,2445,537.1z M2543,360.3
	c2.9-1,6.1-1.9,8.9-3.4C2549,357.7,2545.9,359.1,2543,360.3z M2554.2,355.6c-0.7,0.5-1.5,1-2.2,1.4c0.8-0.2,1.7-0.4,2.5-0.5
	C2555.4,356.4,2554.8,355.1,2554.2,355.6z M2539.1,362c1.3-0.5,2.6-1,3.9-1.6c-0.2,0.1-0.3,0.1-0.5,0.2c-3.4,1.3-6.9,2.5-10.4,3.7
	c-7.6,2.6-15.2,5.1-22.8,7.6c-14.7,4.7-29.4,9-44.3,12.8c-29.3,7.5-59,13.9-87.8,22.9c-28.7,9-56.4,21.8-83.1,35.6
	c-13.4,6.9-26.5,14.5-39.9,21.5c-13.7,7.1-27.7,13.3-41.9,19.1c-35.3,14.3-71.4,25.5-107.6,37.3c-17.4,5.7-34.5,10.6-50.7,19.3
	c-6.3,3.4-13.2,6.6-18.2,11.8c-1.2,1-1.3,1.2-0.3,0.7c-0.7,0.5-1.5,1.1-2.2,1.6c-1.9,1.3-3.8,2.7-5.3,4.5c-0.9,1.1-1.9,2.2-3,3.2
	c-1,0.9,0.1,0.2-1.6,1.1c-6.7,3.4-3.9,12.1,1.9,14.4c4.4,1.7,10.7,2,15.3,0.9c2-0.5,3.6-1.2,5.5-2c0.2-0.1,4-1.2,1.9-0.7
	c3.8-1,7.2-2.6,10.6-4.7c11.2-7.1,23.4-12.9,34.6-17.9c27.2-12.3,55-23.2,82.3-35.1c28-12.2,55.1-26.1,82.2-40.2
	c26.8-14,52.9-29.2,80.2-42.3c17.1-8.2,34.6-15.7,52.1-22.9c17.5-7.2,35.5-12.5,53.4-18.6c17.9-6.1,35.8-12,53.8-17.7
	c9.4-3,18.8-6.1,28.2-9.3C2529.9,365.4,2534.5,363.7,2539.1,362z M2589,2261.1c-2.9,0-5.3,2.4-5.3,5.3c0,2.9,2.4,5.3,5.3,5.3
	s5.3-2.4,5.3-5.3C2594.2,2263.5,2591.9,2261.1,2589,2261.1z M2631.2,2246.2c-0.1,0.7-0.2,1.5-0.4,2.2c0.2-0.7,0.4-1.4,0.7-2.2
	C2631.5,2246.1,2631.2,2246,2631.2,2246.2z M2630.8,2248.4c-0.6,2.1-1.2,4.2-1.8,6.4C2629.8,2252.7,2630.4,2250.6,2630.8,2248.4z
	 M2655.3,2270.4c0.6,0.4,1.3,0.8,1.9,1.2c-0.6-0.5-1.1-1-1.7-1.5C2655.3,2270,2655.1,2270.3,2655.3,2270.4z M2657.2,2271.6
	c3,2.6,5.9,5.1,8.6,7.9C2663.3,2276.5,2660.4,2273.8,2657.2,2271.6z M2695.7,1908.5c-1.1-2.6-2-5.2-2.9-7.9c-1.2-4.9,7.3-8,9.3-9.7
	c0.4-0.3,1.9-1.2,0.8-2c-0.6-0.4-1.5-0.5-2.1-0.6c-2.5-0.6-5-1.2-7.5-1.8c-1.9-0.5-3.9-1-4.2-3.8c-0.3-2.7-0.4-5.4-0.3-8.1
	c0-0.7,0.6-5.7,0.1-5.9c-0.6-0.2-2.6,3.8-2.9,4.4c-2,3.2-5,10.6-8.9,9.9c-2.2-0.4-4.3-0.7-6.5-1.1c-1.3-0.2-3.1-1.1-4.7-0.7
	c-1.6,0.4,0.6,4.4,0.9,4.8c1,2,2.2,4,3.6,6c2.8,3.9-1.2,8.7-3.9,13.1c-1,1.8-3.4,4.5-3.7,6.5c-0.2,1.8,5.1-1.3,5.7-1.5
	c4-2,11.4-7.5,15.2-4.4c3.7,2.9,7.9,5.6,12.5,8.2C2699.8,1916,2696,1909.4,2695.7,1908.5z M2697.3,2258.4c0.4,0.1,0.8,0.2,1.3,0.2
	c-0.4-0.2-0.8-0.3-1.2-0.5C2697.2,2258,2697.1,2258.4,2697.3,2258.4z M2711.6,2264.6c-4.1-2.8-8.4-5-13-5.9
	C2703,2260.6,2707.4,2262.3,2711.6,2264.6z M2851.5,2266.6c-1.5,1.8-2.8,3.6-4.2,5.4C2848.7,2270.2,2850.1,2268.4,2851.5,2266.6z
	 M2853.3,2264.2c-0.6,0.8-1.2,1.6-1.9,2.4C2852.1,2265.8,2852.7,2265,2853.3,2264.2C2853.4,2264.2,2853.4,2264.2,2853.3,2264.2z
	 M2856.3,2246.4c0.4,0.3,0.7,0.6,1.1,1c-0.3-0.4-0.6-0.8-0.9-1.2C2856.4,2246,2856.1,2246.2,2856.3,2246.4z M2857.4,2247.3
	c2.6,3.4,5,6.7,7.1,10.2C2862.6,2253.7,2860.3,2250.1,2857.4,2247.3z M2904.5,1531.7c-2.9,0-5.3,2.4-5.3,5.3c0,2.9,2.4,5.3,5.3,5.3
	s5.3-2.4,5.3-5.3C2909.8,1534.1,2907.4,1531.7,2904.5,1531.7z M2964.2,2219.2c-0.3,0.9-0.6,1.8-0.8,2.6c0.4-0.8,0.7-1.7,1.1-2.5
	C2964.6,2219.1,2964.3,2219,2964.2,2219.2z M2963.4,2221.8c-1.5,3.6-2.8,7.5-3.9,11.4C2960.8,2229.4,2962.1,2225.7,2963.4,2221.8z
	 M2971.3,1899.9c-2.9,0-5.3,2.4-5.3,5.3s2.4,5.3,5.3,5.3s5.3-2.4,5.3-5.3S2974.2,1899.9,2971.3,1899.9z M2984.9,1169.5
	c-0.2-1.3-2.2-0.9-2.2,0.3c0,1.1-0.1,2.1-0.1,3.2c-2.1-4.5-5-8.7-8.6-12c-4.2-3.9-9-5.9-14.1-6.8c-0.1-0.1-0.2-0.2-0.3-0.2
	c-19-7.2-39.2-8.4-59.2-6.3c-5.8,0-11.6,0-17.3,0.2c-0.7,0-0.7,1.1,0,1.1c1.9,0.1,3.9,0.1,5.8,0.2c-0.8,0.1-1.5,0.2-2.3,0.4
	c-12.4,2.1-24.4,5.7-36,10.6c-4,1.7-9.1,3.5-13,6.2c-0.3,0.1-0.6,0.2-0.9,0.3c-2.5,0.9-4.9,1.8-7.3,2.8c-0.3-0.8-1.2-1.3-2-0.8
	c-7,4.2-14.3,7.9-22,10.6c-3.7,1.3-7.6,2.2-11.5,2.8c-0.7,0.1-1.1,0.7-1.7,1.2c-2.5-0.8-5-1.4-7.5-1.9c-19.9-3.9-40.7-1.5-59.7,5.4
	c-10.1,3.6-19.8,7.9-29,13.3c-9.6,5.7-18,12.7-26.6,19.6c-4.1,3.3-7.7,7.2-11.2,11c-1.7,1.9-3.3,3.8-5,5.7c-0.8,1-1.6,1.9-2.4,2.9
	c-0.9,1.1-1.7,2.2-2.6,3.3c-0.5,0.6-2.4,3.1-0.1,0.2c-6.9,8.8-12.4,18.8-16.8,29.1c-0.7,1.7-1.4,3.4-2,5.1
	c-3.4,2.3-6.9,4.6-10.2,7.2c-7.7,5.8-14.8,12.4-21.6,19.2c-13.9,13.6-27.5,28.2-38.5,44.3c-11,16.1-19.8,33.4-25.9,52
	c-5.5,16.8-9.2,34.3-10.2,52c-0.4,6.6,3.7,10.3,8.2,14.4c3.9,3.5,8.3,6.5,12.8,9c8.4,4.7,17.5,6.9,27.1,7.9
	c18,1.9,36.4-3.4,53.2-9.2c9.5-3.2,18.7-7.3,27.8-11.4c8.5-3.9,17.4-7,25.3-12.1c2.3-1.4,3.2-3.7,3.1-5.9
	c6.7-2.9,13.4-6.3,18.4-11.6c1.8-1.9,0-5.4-2.6-4.5c-5.4,1.8-10.4,4.5-15.6,6.6c-2.9,1.2-5.8,2.3-8.8,3.2
	c-9.8,0.2-19.5,3.2-28.9,6.2c-4.7,0.6-9.5,1.1-14.3,1.2c-11.3,0.4-22.4,0.6-33.4-2.2c-8.1-2-16-5.3-22.7-10.2
	c-2.1-4.8-3.6-9.7-4.5-14.8c2.4-18.7,5.6-37.3,12.7-55c8.2-20.6,21.8-40.7,40.5-53.1c-1,10-0.9,20.2,0.6,30.4
	c1.4,10.1,4,20.4,8.9,29.5c2.7,5,5.8,9.3,9.8,13.3c4,4,7.6,8,12.4,11.2c0.4,0.2,0.7,0.4,1.1,0.6c0.3,0.3,0.7,0.6,1.1,0.9
	c-0.9-0.7,2,1.9,1.6,1.6c1.4,1,2.8,1.2,4.5,1.3c4.5,0.2,11-0.7,14.2-4.2c1.4-1.1,2.6-2.4,2.9-4.1c5.3,0.2,9.8-3.8,10.5-8.9
	c2.6,4.4,9.2,5.3,13.4,2.9c5.1-3,5.9-8.8,3.6-13.8c-14-30.2-14-64-5.4-95.7c4.2-15.4,10.1-30.7,17.4-44.9c1.3-2.4,2.6-4.8,3.9-7.2
	c1-1,2.1-2.1,3.1-3.1c2.4-2.3,2.7-4,5.1-6.1c1.9-1.7,3.8-3.4,5.8-4.9c0.5-0.1,0.9-0.2,1.4-0.3c0,0.2,0,0.4,0,0.6
	c0,0.1,0,0.2,0.1,0.4c-0.1,0.2-0.2,0.4-0.3,0.5c-0.6,1.1,0.1,2.2,1,2.5c-10.2,11.5-17.1,25.3-21.3,40.1c-5,17.5-4.3,36.8-1.7,54.6
	c0.1,0.6,1.2,0.5,1.1-0.1c-1.7-17.7,0.6-34.8,5.1-52c4.2-15.8,12.1-30.7,23.6-42.4c1.7-1.7,0.2-4.1-1.6-4.4c0.6-0.7,1.1-1.3,1.7-2
	c0.5-0.2,1-0.3,1.4-0.5c3.8-1.2,7.6-2.3,11.2-3.9c4.3-1.9,8.4-3.2,13-4.4c0.5-0.1,0.3-0.8-0.2-0.7c-4.6,1.1-8.9,2-13.5,2.6
	c-2.7,0.3-5.3,1-7.9,1.7c0.5-0.7,1.1-1.4,1.6-2.2c0.7-1,0.7-2.2,0.1-3.3c0.6-0.1,1.2-0.2,1.8-0.3c0.9-0.2,1.9-0.3,2.8-0.4
	c0,0,2.6-0.3,3.1-0.3c4.7-0.5,9.5-0.5,14.2-0.3c2.1,0.1,4.1,0.3,6.1,0.5c0.1,0,2.2,0.3,2.6,0.4c1.3,0.2,2.6,0.5,3.9,0.8
	c0.5,0.1,1,0.2,1.5,0.4c-1.6,1.1-3.1,2.2-4.6,3.4c-0.4,0.3,0,0.9,0.4,0.6c2.1-1.2,4.1-2.4,6.2-3.5c3.4,0.9,6.9,1.8,10.2,3.1
	c2.7,1,2.6,1,5.4,2.3c2.3,1.1,4.6,2.3,6.8,3.6c4.6,2.7,7.8,5.4,11.7,8.8c8.8,7.6,15.8,16.8,21.7,26.7c8.9,15,15.3,31.2,19.6,48.1
	c0.8,3,5.2,1.7,4.6-1.3c-5.6-27.1-14.5-53.4-32.4-75c-7.7-9.2-17.2-17.3-27.9-23.3c3.6-3.4,7.6-6.4,11.9-9c0.6-0.3,1.2-0.7,1.8-1
	c2.9-1.6,5.9-3,9.1-4.2c0.1-0.1,0.1-0.3-0.1-0.2c-2.8,0.9-5.4,2-8,3.3c0-0.3-0.1-0.5-0.2-0.7c0.9-0.7,1.8-1.4,2.8-2.1
	c4.1-1,8.2-2,12.3-3.2c-3.6,1.4-7.1,3-10.4,5c-0.9,0.6-0.3,2.2,0.8,1.8c11.5-4.1,22.7-8,34.8-9.8c12.8-1.9,25.4-2.2,38.3-0.7
	c5.9,0.7,11.7,2.2,17.5,3.3c5.7,1.1,11.4,2.5,16.9,4.2c9.1,2.8,18.2,7.2,24.8,13.9c3.1,3.1,5.3,6.7,7.7,11.2
	c2.2,4.2,3.2,8.8,3.2,13.8c0.2,15-5.2,29.5-12.3,42.6c-0.1,0.1,0.1,0.3,0.2,0.1c2.9-3.8,5.7-7.9,8.4-12.1c-1.8,3.8-3.7,7.4-5.8,11
	c-7,12-15,23.8-24.8,33.7c-10.2,10.4-21.9,18.8-33.1,28.1c-0.3,0.2,0.1,0.7,0.4,0.5c12.5-7.1,24-17,34.4-26.9
	c10.7-10.2,20.8-20.7,28.5-33.4c7.5-12.5,13.1-26.2,16.4-40.3c-0.7,7.8-1.9,15-3.4,20.9c-0.1,0.5,0.6,0.7,0.7,0.2
	c4.3-14.9,7.3-30.6,6.2-46.1C2987.7,1185.8,2986.4,1177.5,2984.9,1169.5z M2583.2,1211.8c2.9,0,5.3-2.4,5.3-5.3
	c0-2.9-2.4-5.3-5.3-5.3c-2.9,0-5.3,2.4-5.3,5.3C2577.9,1209.4,2580.3,1211.8,2583.2,1211.8z M2806,1315.1c-2.9,0-5.3,2.4-5.3,5.3
	c0,2.9,2.4,5.3,5.3,5.3s5.3-2.4,5.3-5.3C2811.3,1317.4,2809,1315.1,2806,1315.1z M3046.3,1373.1c0-2.9-2.4-5.3-5.3-5.3
	s-5.3,2.4-5.3,5.3c0,2.9,2.4,5.3,5.3,5.3S3046.3,1376,3046.3,1373.1z M3047.2,2182.2c-1,1.5-1.9,3-2.8,4.5
	C3045.4,2185.3,3046.3,2183.8,3047.2,2182.2z M3048.3,2180.2c-0.3,0.7-0.7,1.4-1.1,2.1c0.4-0.7,0.9-1.3,1.3-1.9
	C3048.6,2180.2,3048.3,2180,3048.3,2180.2z M3072.2,2195.2c-0.1,0.7-0.2,1.4-0.3,2.1c0.2-0.7,0.3-1.4,0.6-2.1
	C3072.6,2195.1,3072.3,2195,3072.2,2195.2z M3072,2197.4c-0.6,2.3-1,4.7-1.4,7C3071.2,2202.1,3071.6,2199.7,3072,2197.4z
	 M3098.7,2178.9c-2.1,4.1-3.6,8.6-4.7,13.3C3095.5,2187.8,3097.1,2183.4,3098.7,2178.9z M3099.2,2177.2c-0.2,0.6-0.4,1.1-0.6,1.7
	c0.3-0.5,0.6-1.1,0.8-1.6C3099.6,2177.1,3099.3,2177,3099.2,2177.2z M3153.3,2204.3c0.3,0.4,0.6,0.8,0.9,1.3
	c-0.2-0.5-0.4-0.9-0.6-1.4C3153.5,2204,3153.1,2204.2,3153.3,2204.3z M3158.3,2213.6c-1.2-2.8-2.5-5.5-4.2-8
	C3155.3,2208.3,3156.8,2210.9,3158.3,2213.6z M3153.4,2048.8c-2.9,0-5.3,2.4-5.3,5.3c0,2.9,2.4,5.3,5.3,5.3s5.3-2.4,5.3-5.3
	C3158.7,2051.2,3156.3,2048.8,3153.4,2048.8z M3279.3,2126.3c0.1,0.7,0.2,1.3,0.2,2c0-0.7,0.1-1.3,0.1-2
	C3279.6,2126,3279.2,2126,3279.3,2126.3z M3278.8,2141.9c0.8-4.6,1.1-9.2,0.7-13.7C3279.3,2132.9,3279.1,2137.4,3278.8,2141.9z
	 M3297.3,2174.2c0.1,0.7,0.1,1.5,0.1,2.3c0-0.8,0.1-1.5,0.2-2.3C3297.6,2174,3297.2,2174,3297.3,2174.2z M3315.3,2161.5
	c0.2-4.8,0.4-9.7,0.1-14.4C3315.2,2151.8,3315.2,2156.6,3315.3,2161.5z M3315.3,2144.2c0.1,0.9,0.1,1.9,0.1,2.8
	c0-0.9,0.1-1.9,0.2-2.8C3315.6,2144,3315.2,2144,3315.3,2144.2z M2341.3,2506.4c-2.9,0-5.3,2.4-5.3,5.3c0,2.9,2.4,5.3,5.3,5.3
	c2.9,0,5.3-2.4,5.3-5.3C2346.5,2508.7,2344.2,2506.4,2341.3,2506.4z M2697.2,2536.8c-5.5,0-10,4.5-10,10c0,5.5,4.5,10,10,10
	s10-4.5,10-10C2707.2,2541.3,2702.7,2536.8,2697.2,2536.8z M3003.9,2696.3c-5.5,0-10,4.5-10,10c0,5.5,4.5,10,10,10
	c5.5,0,10-4.5,10-10C3013.9,2700.7,3009.4,2696.3,3003.9,2696.3z M3111.4,2463.3c-2.9,0-5.3,2.4-5.3,5.3c0,2.9,2.4,5.3,5.3,5.3
	c2.9,0,5.3-2.4,5.3-5.3C3116.6,2465.6,3114.3,2463.3,3111.4,2463.3z M2201.7,3055.4c-2.9,0-5.3,3.4-5.3,7.5c0,4.2,2.4,7.5,5.3,7.5
	c2.9,0,5.3-3.4,5.3-7.5C2206.9,3058.8,2204.6,3055.4,2201.7,3055.4z M2485.8,2991.8c-2.9,0-5.3,3.4-5.3,7.5c0,4.2,2.4,7.5,5.3,7.5
	c2.9,0,5.3-3.4,5.3-7.5C2491.1,2995.2,2488.7,2991.8,2485.8,2991.8z M3231,2200.2c-5.5,0-10,6.4-10,14.3c0,7.9,4.5,14.3,10,14.3
	c5.5,0,10-6.4,10-14.3C3241,2206.6,3236.5,2200.2,3231,2200.2z M3389.9,2243.1c-5.5,0-10,6.4-10,14.3c0,7.9,4.5,14.3,10,14.3
	c5.5,0,10-6.4,10-14.3C3400,2249.5,3395.5,2243.1,3389.9,2243.1z M3072.4,2866.1c-5.5,0-10,6.4-10,14.3c0,7.9,4.5,14.3,10,14.3
	s10-6.4,10-14.3C3082.4,2872.5,3077.9,2866.1,3072.4,2866.1z M1997.4,2994c-1.5,1.8-2.8,3.6-4.2,5.4
	C1994.6,2997.6,1996,2995.8,1997.4,2994z M1999.3,2991.6c-0.6,0.8-1.2,1.6-1.9,2.4C1998.1,2993.2,1998.7,2992.5,1999.3,2991.6
	C1999.4,2991.7,1999.3,2991.6,1999.3,2991.6z M2002.2,2973.8c0.4,0.3,0.7,0.6,1.1,1c-0.3-0.4-0.6-0.8-0.9-1.2
	C2002.3,2973.4,2002,2973.7,2002.2,2973.8z M2003.3,2974.8c2.6,3.4,5,6.7,7.1,10.2C2008.6,2981.1,2006.3,2977.5,2003.3,2974.8z
	 M2110.2,2946.6c-0.3,0.9-0.6,1.8-0.8,2.6c0.4-0.8,0.7-1.7,1.1-2.5C2110.5,2946.6,2110.2,2946.4,2110.2,2946.6z M2109.3,2949.3
	c-1.5,3.6-2.8,7.5-3.9,11.4C2106.7,2956.9,2108.1,2953.1,2109.3,2949.3z M2117.3,2627.3c-2.9,0-5.3,2.4-5.3,5.3s2.4,5.3,5.3,5.3
	s5.3-2.4,5.3-5.3S2120.2,2627.3,2117.3,2627.3z M2193.1,2909.7c-1,1.5-1.9,3-2.8,4.5C2191.3,2912.7,2192.3,2911.2,2193.1,2909.7z
	 M2194.2,2907.6c-0.3,0.7-0.7,1.4-1.1,2.1c0.4-0.7,0.9-1.3,1.3-1.9C2194.6,2907.6,2194.3,2907.4,2194.2,2907.6z M2217.9,2924.8
	c-0.6,2.3-1,4.7-1.4,7C2217.1,2929.5,2217.6,2927.1,2217.9,2924.8z M2218.2,2922.7c-0.1,0.7-0.2,1.4-0.3,2.1
	c0.2-0.7,0.3-1.4,0.6-2.1C2218.5,2922.5,2218.2,2922.5,2218.2,2922.7z M2245.2,2904.6c-0.2,0.6-0.4,1.1-0.6,1.7
	c0.3-0.5,0.6-1.1,0.8-1.6C2245.6,2904.6,2245.3,2904.4,2245.2,2904.6z M2244.6,2906.3c-2.1,4.1-3.6,8.6-4.7,13.3
	C2241.4,2915.2,2243.1,2910.8,2244.6,2906.3z M2299.2,2931.8c0.3,0.4,0.6,0.8,0.9,1.3c-0.2-0.5-0.4-0.9-0.6-1.4
	C2299.4,2931.4,2299.1,2931.6,2299.2,2931.8z M2304.2,2941c-1.2-2.8-2.5-5.5-4.2-8C2301.3,2935.7,2302.7,2938.4,2304.2,2941z
	 M2304.6,2781.6c0-2.9-2.4-5.3-5.3-5.3s-5.3,2.4-5.3,5.3c0,2.9,2.4,5.3,5.3,5.3S2304.6,2784.5,2304.6,2781.6z M5.3,2782.7
	c-2.9,0-5.3,2.4-5.3,5.3s2.4,5.3,5.3,5.3c2.9,0,5.3-2.4,5.3-5.3S8.2,2782.7,5.3,2782.7z M289.4,2827.3c-2.9,0-5.3,2.4-5.3,5.3
	c0,2.9,2.4,5.3,5.3,5.3c2.9,0,5.3-2.4,5.3-5.3C294.7,2829.6,292.4,2827.3,289.4,2827.3z M479.6,2335.1c0-2.9-2.4-5.3-5.3-5.3
	c-2.9,0-5.3,2.4-5.3,5.3c0,2.9,2.4,5.3,5.3,5.3C477.2,2340.4,479.6,2338,479.6,2335.1z M482.7,2671.9c-5.5,0-10,4.5-10,10
	c0,5.5,4.5,10,10,10c5.5,0,10-4.5,10-10C492.7,2676.4,488.2,2671.9,482.7,2671.9z M641.6,2641.9c-5.5,0-10,4.5-10,10s4.5,10,10,10
	c5.5,0,10-4.5,10-10S647.1,2641.9,641.6,2641.9z M749.1,2408.9c-2.9,0-5.3,2.4-5.3,5.3c0,2.9,2.4,5.3,5.3,5.3c2.9,0,5.3-2.4,5.3-5.3
	C754.3,2411.3,752,2408.9,749.1,2408.9z M1320.2,2793.2c-2.9,0-5.3,2.4-5.3,5.3c0,2.9,2.4,5.3,5.3,5.3c2.9,0,5.3-2.4,5.3-5.3
	C1325.5,2795.6,1323.2,2793.2,1320.2,2793.2z M876,2905.8c-5.5,0-10,4.5-10,10c0,5.5,4.5,10,10,10s10-4.5,10-10
	C886,2910.3,881.5,2905.8,876,2905.8z M1354.8,2381.9c-2.9,0-5.3,2.4-5.3,5.3s2.4,5.3,5.3,5.3c2.9,0,5.3-2.4,5.3-5.3
	S1357.7,2381.9,1354.8,2381.9z M1215.2,2930.9c-2.9,0-5.3,3.4-5.3,7.5c0,4.2,2.4,7.5,5.3,7.5c2.9,0,5.3-3.4,5.3-7.5
	C1220.5,2934.3,1218.1,2930.9,1215.2,2930.9z M1012.8,2867.1c-0.6,0.8-1.2,1.6-1.9,2.4C1011.6,2868.7,1012.3,2867.9,1012.8,2867.1
	C1013,2867.1,1012.9,2867.1,1012.8,2867.1z M1011,2869.5c-1.5,1.8-2.8,3.6-4.2,5.4C1008.2,2873.1,1009.6,2871.3,1011,2869.5z
	 M1015.8,2849.3c0.4,0.3,0.7,0.6,1.1,1c-0.3-0.4-0.6-0.8-0.9-1.2C1015.9,2848.9,1015.6,2849.1,1015.8,2849.3z M1016.9,2850.2
	c2.6,3.4,5,6.7,7.1,10.2C1022.2,2856.6,1019.9,2853,1016.9,2850.2z M1122.9,2824.7c-1.5,3.6-2.8,7.5-3.9,11.4
	C1120.3,2832.3,1121.7,2828.6,1122.9,2824.7z M1123.8,2822.1c-0.3,0.9-0.6,1.8-0.8,2.6c0.4-0.8,0.7-1.7,1.1-2.5
	C1124.1,2822,1123.8,2821.9,1123.8,2822.1z M1130.9,2502.8c-2.9,0-5.3,2.4-5.3,5.3s2.4,5.3,5.3,5.3s5.3-2.4,5.3-5.3
	S1133.8,2502.8,1130.9,2502.8z M1206.7,2785.1c-1,1.5-1.9,3-2.8,4.5C1204.9,2788.2,1205.8,2786.7,1206.7,2785.1z M1207.8,2783.1
	c-0.3,0.7-0.7,1.4-1.1,2.1c0.4-0.7,0.9-1.3,1.3-1.9C1208.1,2783.1,1207.9,2782.9,1207.8,2783.1z M1231.5,2800.3
	c-0.6,2.3-1,4.7-1.4,7C1230.7,2805,1231.2,2802.6,1231.5,2800.3z M1231.8,2798.1c-0.1,0.7-0.2,1.4-0.3,2.1c0.2-0.7,0.3-1.4,0.6-2.1
	C1232.1,2798,1231.8,2797.9,1231.8,2798.1z M1258.2,2781.8c-2.1,4.1-3.6,8.6-4.7,13.3C1255,2790.7,1256.7,2786.3,1258.2,2781.8z
	 M1258.8,2780.1c-0.2,0.6-0.4,1.1-0.6,1.7c0.3-0.5,0.6-1.1,0.8-1.6C1259.1,2780,1258.8,2779.9,1258.8,2780.1z M1317.8,2816.5
	c-1.2-2.8-2.5-5.5-4.2-8C1314.9,2811.2,1316.3,2813.8,1317.8,2816.5z M1312.8,2807.2c0.3,0.4,0.6,0.8,0.9,1.3
	c-0.2-0.5-0.4-0.9-0.6-1.4C1313,2806.9,1312.7,2807.1,1312.8,2807.2z M1318.2,2657c0-2.9-2.4-5.3-5.3-5.3s-5.3,2.4-5.3,5.3
	c0,2.9,2.4,5.3,5.3,5.3S1318.2,2659.9,1318.2,2657z M5.3,723.8c-2.9,0-5.3,2.4-5.3,5.3s2.4,5.3,5.3,5.3c2.9,0,5.3-2.4,5.3-5.3
	S8.2,723.8,5.3,723.8z M289.4,768.4c-2.9,0-5.3,2.4-5.3,5.3c0,2.9,2.4,5.3,5.3,5.3c2.9,0,5.3-2.4,5.3-5.3
	C294.7,770.8,292.4,768.4,289.4,768.4z M474.3,281.5c2.9,0,5.3-2.4,5.3-5.3c0-2.9-2.4-5.3-5.3-5.3c-2.9,0-5.3,2.4-5.3,5.3
	C469,279.2,471.4,281.5,474.3,281.5z M472.6,623.1c0,5.5,4.5,10,10,10c5.5,0,10-4.5,10-10c0-5.5-4.5-10-10-10
	C477.1,613.1,472.6,617.6,472.6,623.1z M641.6,603.1c5.5,0,10-4.5,10-10s-4.5-10-10-10c-5.5,0-10,4.5-10,10S636.1,603.1,641.6,603.1
	z M749.1,350.1c-2.9,0-5.3,2.4-5.3,5.3c0,2.9,2.4,5.3,5.3,5.3c2.9,0,5.3-2.4,5.3-5.3C754.3,352.4,752,350.1,749.1,350.1z
	 M1315,739.7c0,2.9,2.4,5.3,5.3,5.3c2.9,0,5.3-2.4,5.3-5.3c0-2.9-2.4-5.3-5.3-5.3C1317.3,734.4,1315,736.8,1315,739.7z M876,847
	c-5.5,0-10,4.5-10,10c0,5.5,4.5,10,10,10s10-4.5,10-10C886,851.5,881.5,847,876,847z M1354.8,323c-2.9,0-5.3,2.4-5.3,5.3
	s2.4,5.3,5.3,5.3c2.9,0,5.3-2.4,5.3-5.3S1357.7,323,1354.8,323z M1215.2,887.1c2.9,0,5.3-3.4,5.3-7.5s-2.4-7.5-5.3-7.5
	c-2.9,0-5.3,3.4-5.3,7.5S1212.3,887.1,1215.2,887.1z M1011,810.6c-1.5,1.8-2.8,3.6-4.2,5.4C1008.2,814.3,1009.6,812.5,1011,810.6z
	 M1012.8,808.3c-0.6,0.8-1.2,1.6-1.9,2.4C1011.6,809.9,1012.3,809.1,1012.8,808.3C1013,808.3,1012.9,808.2,1012.8,808.3z
	 M1015.8,790.4c0.4,0.3,0.7,0.6,1.1,1c-0.3-0.4-0.6-0.8-0.9-1.2C1015.9,790,1015.6,790.3,1015.8,790.4z M1016.9,791.4
	c2.6,3.4,5,6.7,7.1,10.2C1022.2,797.7,1019.9,794.1,1016.9,791.4z M1122.9,765.9c-1.5,3.6-2.8,7.5-3.9,11.4
	C1120.3,773.5,1121.7,769.7,1122.9,765.9z M1123.8,763.3c-0.3,0.9-0.6,1.8-0.8,2.6c0.4-0.8,0.7-1.7,1.1-2.5
	C1124.1,763.2,1123.8,763.1,1123.8,763.3z M1130.9,454.5c2.9,0,5.3-2.4,5.3-5.3s-2.4-5.3-5.3-5.3s-5.3,2.4-5.3,5.3
	S1127.9,454.5,1130.9,454.5z M1203.9,730.8c1-1.5,1.9-3,2.8-4.5C1205.7,727.8,1204.8,729.3,1203.9,730.8z M1207.8,724.2
	c-0.3,0.7-0.7,1.4-1.1,2.1c0.4-0.7,0.9-1.3,1.3-1.9C1208.1,724.2,1207.9,724,1207.8,724.2z M1231.8,739.3c-0.1,0.7-0.2,1.4-0.3,2.1
	c0.2-0.7,0.3-1.4,0.6-2.1C1232.1,739.1,1231.8,739.1,1231.8,739.3z M1230.1,748.5c0.6-2.3,1-4.7,1.4-7
	C1230.9,743.7,1230.5,746.1,1230.1,748.5z M1258.8,721.3c-0.2,0.6-0.4,1.1-0.6,1.7c0.3-0.5,0.6-1.1,0.8-1.6
	C1259.1,721.2,1258.8,721,1258.8,721.3z M1258.2,722.9c-2.1,4.1-3.6,8.6-4.7,13.3C1255,731.8,1256.7,727.4,1258.2,722.9z
	 M1312.8,748.4c0.3,0.4,0.6,0.8,0.9,1.3c-0.2-0.5-0.4-0.9-0.6-1.4C1313,748,1312.7,748.2,1312.8,748.4z M1317.8,757.6
	c-1.2-2.8-2.5-5.5-4.2-8C1314.9,752.3,1316.3,755,1317.8,757.6z M1312.9,603.5c2.9,0,5.3-2.4,5.3-5.3c0-2.9-2.4-5.3-5.3-5.3
	s-5.3,2.4-5.3,5.3C1307.6,601.1,1310,603.5,1312.9,603.5z M5455.4,405.1c0-2.9-2.4-5.3-5.3-5.3c-2.9,0-5.3,2.4-5.3,5.3
	s2.4,5.3,5.3,5.3C5453,410.3,5455.4,408,5455.4,405.1z M5588.1,662.2c-2.9,0-5.3,2.4-5.3,5.3s2.4,5.3,5.3,5.3c2.9,0,5.3-2.4,5.3-5.3
	S5591.1,662.2,5588.1,662.2z M5806.3,507.4c-5.5-1.6-11-3.5-16.4-5.6c-6-2.2-10.9-8.5-11.1-14c-0.2-4.9-0.2-9.9-0.2-15
	c0.1-5.6-2.5-7.3-6.2-3.6c-3.4,3.3-6.8,6.6-10.4,10c-3.9,3.7-11.7,4.5-17.2,1.5c-5-2.8-9.9-5.7-14.7-8.7c-5.3-3.4-7.6-1.5-5,4.6
	c2.4,5.5,4.9,10.9,7.7,16.2c3,5.8,2.7,13.7-0.9,18c-3.2,3.9-6.4,7.9-9.3,11.9c-3.2,4.4-1.3,7.5,4.2,6.6c5.1-0.8,10.4-1.8,15.9-2.8
	c6-1.1,14.1,1.5,18.1,5.3c3.5,3.5,7.1,6.5,10.6,9.2c3.8,2.9,7.3,1.6,7.8-2.5c0.4-3.7,0.6-7.6,0.7-11.6c0.2-4.5,5.1-9.5,11.2-10.8
	c5.5-1.2,10.9-2.4,16.1-3.5C5812.9,511.2,5812.4,509.2,5806.3,507.4z M4676.9,276.3c0-2.9-2.4-5.3-5.3-5.3c-2.9,0-5.3,2.4-5.3,5.3
	c0,2.9,2.4,5.3,5.3,5.3C4674.5,281.5,4676.9,279.2,4676.9,276.3z M4690,623.1c0-5.5-4.5-10-10-10c-5.5,0-10,4.5-10,10
	c0,5.5,4.5,10,10,10C4685.5,633.1,4690,628.6,4690,623.1z M4848.9,593.1c0-5.5-4.5-10-10-10s-10,4.5-10,10s4.5,10,10,10
	S4848.9,598.6,4848.9,593.1z M4946.4,360.6c2.9,0,5.3-2.4,5.3-5.3c0-2.9-2.4-5.3-5.3-5.3c-2.9,0-5.3,2.4-5.3,5.3
	C4941.1,358.3,4943.4,360.6,4946.4,360.6z M5517.5,734.4c-2.9,0-5.3,2.4-5.3,5.3c0,2.9,2.4,5.3,5.3,5.3c2.9,0,5.3-2.4,5.3-5.3
	C5522.8,736.8,5520.5,734.4,5517.5,734.4z M5552.1,333.6c2.9,0,5.3-2.4,5.3-5.3s-2.4-5.3-5.3-5.3c-2.9,0-5.3,2.4-5.3,5.3
	S5549.2,333.6,5552.1,333.6z M5328.2,454.5c2.9,0,5.3-2.4,5.3-5.3s-2.4-5.3-5.3-5.3s-5.3,2.4-5.3,5.3S5325.2,454.5,5328.2,454.5z
	 M5404,726.3c-1,1.5-1.9,3-2.8,4.5C5402.2,729.3,5403.1,727.8,5404,726.3z M5405.1,724.2c-0.3,0.7-0.7,1.4-1.1,2.1
	c0.4-0.7,0.9-1.3,1.3-1.9C5405.4,724.2,5405.2,724,5405.1,724.2z M5428.8,741.4c-0.6,2.3-1,4.7-1.4,7
	C5428,746.1,5428.5,743.8,5428.8,741.4z M5429.1,739.3c-0.1,0.7-0.2,1.4-0.3,2.1c0.2-0.7,0.3-1.4,0.6-2.1
	C5429.4,739.1,5429.1,739.1,5429.1,739.3z M5456.1,721.3c-0.2,0.6-0.4,1.1-0.6,1.7c0.3-0.5,0.6-1.1,0.8-1.6
	C5456.4,721.2,5456.1,721,5456.1,721.3z M5455.5,722.9c-2.1,4.1-3.6,8.6-4.7,13.3C5452.3,731.8,5454,727.4,5455.5,722.9z
	 M5510.1,748.4c0.3,0.4,0.6,0.8,0.9,1.3c-0.2-0.5-0.4-0.9-0.6-1.4C5510.3,748,5510,748.2,5510.1,748.4z M5515.1,757.6
	c-1.2-2.8-2.5-5.5-4.2-8C5512.2,752.3,5513.6,755,5515.1,757.6z M5515.5,598.2c0-2.9-2.4-5.3-5.3-5.3s-5.3,2.4-5.3,5.3
	c0,2.9,2.4,5.3,5.3,5.3S5515.5,601.1,5515.5,598.2z M2425.2,2853.7c0.1,0.7,0.2,1.3,0.2,2c0-0.7,0.1-1.3,0.1-2
	C2425.5,2853.5,2425.2,2853.5,2425.2,2853.7z M2424.8,2869.3c0.8-4.6,1.1-9.2,0.7-13.7C2425.2,2860.3,2425.1,2864.8,2424.8,2869.3z
	 M2443.2,2901.7c0.1,0.7,0.1,1.5,0.1,2.3c0-0.8,0.1-1.5,0.2-2.3C2443.5,2901.5,2443.2,2901.5,2443.2,2901.7z M2461.2,2888.9
	c0.2-4.8,0.4-9.7,0.1-14.4C2461.1,2879.2,2461.1,2884.1,2461.2,2888.9z M2461.2,2871.7c0.1,0.9,0.1,1.9,0.1,2.8
	c0-0.9,0.1-1.9,0.2-2.8C2461.5,2871.5,2461.2,2871.5,2461.2,2871.7z M3320.8,3111.8c-2.9,0-5.3,2.4-5.3,5.3c0,2.9,2.4,5.3,5.3,5.3
	c2.9,0,5.3-2.4,5.3-5.3C3326.1,3114.2,3323.8,3111.8,3320.8,3111.8z M3881.2,2454.2c-5.5,0-10,4.5-10,10c0,5.5,4.5,10,10,10
	c5.5,0,10-4.5,10-10C3891.2,2458.6,3886.7,2454.2,3881.2,2454.2z M3329.2,2762.9c-5.5,0-10,4.5-10,10c0,5.5,4.5,10,10,10
	c5.5,0,10-4.5,10-10C3339.3,2767.4,3334.8,2762.9,3329.2,2762.9z M4040.1,2424.1c-5.5,0-10,4.5-10,10s4.5,10,10,10
	c5.5,0,10-4.5,10-10S4045.7,2424.1,4040.1,2424.1z M4147.6,2191.1c-2.9,0-5.3,2.4-5.3,5.3c0,2.9,2.4,5.3,5.3,5.3
	c2.9,0,5.3-2.4,5.3-5.3C4152.9,2193.5,4150.5,2191.1,4147.6,2191.1z M3671.7,2862.1c-3.2-0.8-6.5-1.3-9.6-2.6
	c-3-1.2-7.3-1.1-10.6-1.5c-1.3-0.2-2.5-0.3-3.8-0.5c0.2-0.5,0-1.3-0.7-1.5c-6.4-1.7-13.2-2.3-19.8-3.1c-7.4-0.9-14.8-1.8-22.3-2.5
	c-9.3-1-18.5-1.8-27.8-2.6c0.3-0.3,0.5-0.6,0.8-0.9c26.6,3,53.1,6.9,79.8,8.2c1.1,0.1,1-1.5,0-1.6c-25.8-3.4-51.8-6.4-77.7-9.1
	c17.7-20.5,35-41.3,55.8-58.7c0.2-0.1-0.1-0.4-0.2-0.2c-16.8,13.6-31.3,29.7-45.6,45.8c-3.8,4.3-7.6,8.6-11.4,13
	c-0.8-0.1-1.6-0.2-2.4-0.2c0-0.1,0-0.2,0-0.3c14.2-16.8,27.9-33.9,43.1-49.8c0.1-0.1-0.1-0.4-0.2-0.2
	c-15.5,14.9-28.9,31.8-42.7,48.2c0.3-3.1,0.6-6.2,0.9-9.2c2-20.9,3.6-41.7,4-62.6c1.8-10.6,4.3-21,7.7-31.2c0-0.1-0.1-0.1-0.1,0
	c-3.2,9-5.6,18.1-7.6,27.4c0-4.4,0-8.7-0.1-13.1c0.8-6.6,1.6-13.2,2.5-19.7c0-0.2-0.4-0.3-0.4-0.1c-0.7,4.7-1.5,9.4-2.2,14.2
	c-0.1-1.9-0.2-3.9-0.3-5.8c0-0.1-0.2-0.1-0.2,0c0.1,2.5,0.1,5,0.2,7.5c-3.8,25-7.4,50.1-9.6,75.3c-0.4,5-0.9,10-1.2,15
	c-0.8-1.7-1.7-3.3-2.5-5c-7.6-14.8-15.5-29.7-25.5-43.1c-1.7-3.8-3.4-7.6-5.1-11.3c0-0.1-0.2,0-0.2,0.1c1.1,3,2.3,5.9,3.5,8.8
	c-0.2-0.2-0.3-0.5-0.5-0.7c-0.1-0.2-0.5,0-0.3,0.2c0.6,0.8,1.1,1.6,1.6,2.5c5.9,14.5,12.6,28.7,19.7,42.6c1.6,3.2,3.3,6.3,5,9.4
	c-14.7-1.5-29.4-2.7-44.1-3.2c-7.9-0.3-15.9-0.5-23.9-0.4c-8.1,0-16,0.8-24,1.2c-0.9,0-1.9,0-2.8,0c-0.2,0-0.3,0.3,0,0.4
	c6.1,1.1,12.3,1.9,18.5,2.6c25.2,6.2,51,8.9,76.8,10.7c-4.5,5.1-9,10.2-13.6,15.1c-7.7,8.2-16,15.6-24.1,23.3
	c-0.3,0.3,0.1,0.9,0.5,0.6c8.6-6.4,16.3-14.5,23.6-22.3c5.1-5.4,10.1-11,15-16.7c0.5,0,1.1,0.1,1.6,0.1c0,0.3-0.1,0.6-0.1,1
	c-7.9,8.9-15.9,17.7-24.1,26.3c-0.3,0.3,0.2,0.7,0.5,0.5c8.2-7.8,15.9-16.1,23.4-24.5c-1.8,18.5-2.7,37.1-3.9,55.6
	c-1.5-2-3.5-3.8-6-3.9c-0.1,0-0.1,0.2,0,0.2c2.4,0.3,4.4,1.7,6,3.7c0,0.2,0,0.3,0,0.5c-0.5,8.2-1.2,16.4-1.9,24.6
	c-0.7,3.1-1.4,6.3-2.2,9.4c-0.2,0.8,0.5,1.2,1.1,1.1c-0.3,2.3-0.5,4.6-1,6.9c-0.4,1.8-0.7,4.4-2,5.9c-0.1,0.1,0,0.2,0.1,0.1
	c1.1-1.1,1.4-3,1.8-4.4c0.9-3.3,1.5-6.5,2-9.8c2.7-8.3,4.7-16.8,6.1-25.4c0,0.1,0,0.2,0.1,0.3c0.1,1.2,0.1,2.4,0.2,3.6
	c0,0.4,0.3,0.6,0.5,0.7c0.1,0.7,0.1,1.4,0.2,2.1c0,0,0,0,0,0c0-0.7-0.1-1.4-0.1-2.1c0.4,0.1,0.8-0.2,0.8-0.7
	c0.7-9.7,1.1-19.4,1.5-29.2c1-10.1,1.6-20.3,2.1-30.4c0.2-2.4,0.4-4.7,0.6-7.1c0.6,0.9,1.1,1.9,1.7,2.8c2.7,4.5,5.5,8.8,8.4,13.2
	c1.9,2.8,3.8,5.8,5.9,8.5c3.4,6.2,7.1,12.4,11.5,17.9c0.4,0.6,1.3-0.2,0.9-0.7c-4.2-7.8-8.9-15.3-13.4-22.9c-4-7.6-8-15.3-12-22.9
	c15.9,1,31.8,1.9,47.7,3.2c7.9,0.6,15.9,1.4,23.8,2.4c4,0.5,8,1,11.9,1.7c1.4,0.2,2.8-0.1,4.1,0.1c2,0.3,3.9,0.6,5.9,0.9
	C3672.1,2863.2,3672.4,2862.2,3671.7,2862.1z M3931.7,2742.8c-5.5,0-10,4.5-10,10c0,5.5,4.5,10,10,10c5.5,0,10-4.5,10-10
	C3941.7,2747.3,3937.3,2742.8,3931.7,2742.8z M3974.1,3039.5c-2.9,0-5.3,2.4-5.3,5.3c0,2.9,2.4,5.3,5.3,5.3c2.9,0,5.3-2.4,5.3-5.3
	C3979.4,3041.9,3977,3039.5,3974.1,3039.5z M4724.1,2580.8c0-2.9-2.4-5.3-5.3-5.3c-2.9,0-5.3,2.4-5.3,5.3c0,2.9,2.4,5.3,5.3,5.3
	C4721.7,2586,4724.1,2583.7,4724.1,2580.8z M4274.5,2688.1c-5.5,0-10,4.5-10,10c0,5.5,4.5,10,10,10s10-4.5,10-10
	C4284.6,2692.6,4280.1,2688.1,4274.5,2688.1z M4915.9,2985.4c-2.9,0-5.3,3.4-5.3,7.5s2.4,7.5,5.3,7.5c2.9,0,5.3-3.4,5.3-7.5
	S4918.8,2985.4,4915.9,2985.4z M5200,2921.8c-2.9,0-5.3,3.4-5.3,7.5c0,4.2,2.4,7.5,5.3,7.5c2.9,0,5.3-3.4,5.3-7.5
	C5205.3,2925.2,5202.9,2921.8,5200,2921.8z M5945.2,2130.2c-5.5,0-10,6.4-10,14.3c0,7.9,4.5,14.3,10,14.3c5.5,0,10-6.4,10-14.3
	C5955.2,2136.6,5950.7,2130.2,5945.2,2130.2z M5786.6,2796.1c-5.5,0-10,6.4-10,14.3c0,7.9,4.5,14.3,10,14.3s10-6.4,10-14.3
	C5796.6,2802.5,5792.1,2796.1,5786.6,2796.1z M4125.4,2969.8c0.6,0.4,1.1,0.8,1.6,1.2c-0.5-0.5-1-0.9-1.4-1.4
	C4125.4,2969.4,4125.2,2969.7,4125.4,2969.8z M4127,2971c0.9,0.9,1.8,1.8,2.7,2.7C4128.9,2972.7,4128,2971.8,4127,2971z
	 M4175.8,2911.4c-1.1,2.3-2.1,4.9-2.8,7.6C4173.9,2916.5,4174.9,2914,4175.8,2911.4z M4176.3,2909.6c-0.2,0.6-0.4,1.2-0.6,1.8
	c0.3-0.6,0.5-1.1,0.8-1.7C4176.7,2909.6,4176.4,2909.4,4176.3,2909.6z M4206.4,2939.8c0.4,0.3,0.8,0.6,1.2,0.9
	c-0.3-0.4-0.7-0.8-1-1.2C4206.4,2939.4,4206.2,2939.7,4206.4,2939.8z M4207.6,2940.7c3.6,4.1,7,8,10.1,12.3
	C4215.2,2948.3,4211.9,2944,4207.6,2940.7z M4243.8,2937.4c2.8,2,5.5,4,8.1,6.1C4249.5,2940.9,4246.8,2938.8,4243.8,2937.4z
	 M4242.4,2936.8c0.5,0.2,0.9,0.4,1.3,0.6c-0.4-0.3-0.8-0.6-1.2-0.8C4242.4,2936.4,4242.2,2936.8,4242.4,2936.8z M4449.1,2918.5
	c-2.9,0-5.3,2.4-5.3,5.3c0,2.9,2.4,5.3,5.3,5.3s5.3-2.4,5.3-5.3C4454.4,2920.9,4452,2918.5,4449.1,2918.5z M4491,2905.9
	c-0.6,2.1-1.2,4.2-1.8,6.4C4489.9,2910.2,4490.5,2908,4491,2905.9z M4491.3,2903.6c-0.1,0.7-0.2,1.5-0.4,2.2
	c0.2-0.7,0.4-1.4,0.7-2.2C4491.7,2903.5,4491.4,2903.5,4491.3,2903.6z M4515.4,2927.8c0.6,0.4,1.3,0.8,1.9,1.2
	c-0.6-0.5-1.1-1-1.7-1.5C4515.4,2927.4,4515.2,2927.7,4515.4,2927.8z M4517.3,2929c3,2.6,5.9,5.1,8.6,7.9
	C4523.4,2933.9,4520.6,2931.3,4517.3,2929z M4557.5,2915.8c0.4,0.1,0.8,0.2,1.3,0.2c-0.4-0.2-0.8-0.3-1.2-0.5
	C4557.4,2915.5,4557.3,2915.8,4557.5,2915.8z M4571.7,2922c-4.1-2.8-8.4-5-13-5.9C4563.2,2918,4567.5,2919.7,4571.7,2922z
	 M4711.6,2924c-1.5,1.8-2.8,3.6-4.2,5.4C4708.8,2927.7,4710.2,2925.8,4711.6,2924z M4713.5,2921.7c-0.6,0.8-1.2,1.6-1.9,2.4
	C4712.3,2923.3,4712.9,2922.5,4713.5,2921.7C4713.6,2921.7,4713.5,2921.6,4713.5,2921.7z M4716.4,2903.8c0.4,0.3,0.7,0.6,1.1,1
	c-0.3-0.4-0.6-0.8-0.9-1.2C4716.5,2903.4,4716.2,2903.7,4716.4,2903.8z M4717.5,2904.8c2.6,3.4,5,6.7,7.1,10.2
	C4722.8,2911.1,4720.5,2907.5,4717.5,2904.8z M4824.4,2876.6c-0.3,0.9-0.6,1.8-0.8,2.6c0.4-0.8,0.7-1.7,1.1-2.5
	C4824.7,2876.6,4824.4,2876.4,4824.4,2876.6z M4823.5,2879.3c-1.5,3.6-2.8,7.5-3.9,11.4C4820.9,2886.9,4822.3,2883.1,4823.5,2879.3z
	 M4908.4,2837.6c-0.3,0.7-0.7,1.4-1.1,2.1c0.4-0.7,0.9-1.3,1.3-1.9C4908.8,2837.6,4908.5,2837.4,4908.4,2837.6z M4907.3,2839.7
	c-1,1.5-1.9,3-2.8,4.5C4905.5,2842.7,4906.5,2841.2,4907.3,2839.7z M4932.4,2852.7c-0.1,0.7-0.2,1.4-0.3,2.1
	c0.2-0.7,0.3-1.4,0.6-2.1C4932.7,2852.5,4932.4,2852.5,4932.4,2852.7z M4932.1,2854.8c-0.6,2.3-1,4.7-1.4,7
	C4931.3,2859.5,4931.8,2857.2,4932.1,2854.8z M4959.4,2834.6c-0.2,0.6-0.4,1.1-0.6,1.7c0.3-0.5,0.6-1.1,0.8-1.6
	C4959.8,2834.6,4959.5,2834.4,4959.4,2834.6z M4958.8,2836.3c-2.1,4.1-3.6,8.6-4.7,13.3C4955.6,2845.2,4957.3,2840.8,4958.8,2836.3z
	 M5018.5,2871c-1.2-2.8-2.5-5.5-4.2-8C5015.5,2865.7,5016.9,2868.4,5018.5,2871z M5013.4,2861.8c0.3,0.4,0.6,0.8,0.9,1.3
	c-0.2-0.5-0.4-0.9-0.6-1.4C5013.6,2861.4,5013.3,2861.6,5013.4,2861.8z M5013.5,2706.3c-2.9,0-5.3,2.4-5.3,5.3
	c0,2.9,2.4,5.3,5.3,5.3s5.3-2.4,5.3-5.3C5018.8,2708.7,5016.5,2706.3,5013.5,2706.3z M5139.4,2783.7c0.1,0.7,0.2,1.3,0.2,2
	c0-0.7,0.1-1.3,0.1-2C5139.7,2783.5,5139.4,2783.5,5139.4,2783.7z M5139,2799.3c0.8-4.6,1.1-9.2,0.7-13.7
	C5139.4,2790.3,5139.3,2794.8,5139,2799.3z M5157.4,2831.7c0.1,0.7,0.1,1.5,0.1,2.3c0-0.8,0.1-1.5,0.2-2.3
	C5157.7,2831.5,5157.4,2831.5,5157.4,2831.7z M5175.4,2801.7c0.1,0.9,0.1,1.9,0.1,2.8c0-0.9,0.1-1.9,0.2-2.8
	C5175.7,2801.5,5175.4,2801.5,5175.4,2801.7z M5175.4,2818.9c0.2-4.8,0.4-9.7,0.1-14.4C5175.3,2809.2,5175.3,2814.1,5175.4,2818.9z
	 M4758.6,2169.4c0-2.9-2.4-5.3-5.3-5.3c-2.9,0-5.3,2.4-5.3,5.3c0,2.9,2.4,5.3,5.3,5.3C4756.3,2174.7,4758.6,2172.3,4758.6,2169.4z
	 M5109.3,2194.6c-5.5,0-10,4.5-10,10c0,5.5,4.5,10,10,10c5.5,0,10-4.5,10-10C5119.3,2199,5114.8,2194.6,5109.3,2194.6z M5416,2354
	c-5.5,0-10,4.5-10,10c0,5.5,4.5,10,10,10c5.5,0,10-4.5,10-10C5426,2358.5,5421.5,2354,5416,2354z M4971.5,3120.7
	c-2.9,0-5.3,2.4-5.3,5.3c0,2.9,2.4,5.3,5.3,5.3c2.9,0,5.3-2.4,5.3-5.3C4976.8,3123.1,4974.4,3120.7,4971.5,3120.7z M4613.8,2713.1
	c-2.9,0-5.3,3.4-5.3,7.5c0,4.2,2.4,7.5,5.3,7.5s5.3-3.4,5.3-7.5C4619,2716.5,4616.7,2713.1,4613.8,2713.1z M4897.9,2649.5
	c-2.9,0-5.3,3.4-5.3,7.5c0,4.2,2.4,7.5,5.3,7.5c2.9,0,5.3-3.4,5.3-7.5C4903.2,2652.9,4900.8,2649.5,4897.9,2649.5z M5091.1,2857.7
	c-5.5,0-10,6.4-10,14.3c0,7.9,4.5,14.3,10,14.3c5.5,0,10-6.4,10-14.3C5101.2,2864.1,5096.7,2857.7,5091.1,2857.7z M5250.1,2900.5
	c-5.5,0-10,6.4-10,14.3s4.5,14.3,10,14.3s10-6.4,10-14.3S5255.6,2900.5,5250.1,2900.5z M5484.5,2523.8c-5.5,0-10,6.4-10,14.3
	c0,7.9,4.5,14.3,10,14.3s10-6.4,10-14.3C5494.5,2530.2,5490,2523.8,5484.5,2523.8z M4411.4,2649.4c-0.6,0.8-1.2,1.6-1.9,2.4
	C4410.2,2651,4410.8,2650.2,4411.4,2649.4C4411.5,2649.4,4411.4,2649.3,4411.4,2649.4z M4409.5,2651.7c-1.5,1.8-2.8,3.6-4.2,5.4
	C4406.7,2655.4,4408.1,2653.5,4409.5,2651.7z M4414.3,2631.5c0.4,0.3,0.7,0.6,1.1,1c-0.3-0.4-0.6-0.8-0.9-1.2
	C4414.4,2631.1,4414.2,2631.4,4414.3,2631.5z M4415.4,2632.5c2.6,3.4,5,6.7,7.1,10.2C4420.7,2638.8,4418.4,2635.2,4415.4,2632.5z
	 M4521.4,2607c0.4-0.8,0.7-1.7,1.1-2.5c0.1-0.2-0.2-0.3-0.3-0.1C4522,2605.2,4521.7,2606.1,4521.4,2607z M4521.4,2607
	c-1.5,3.6-2.8,7.5-3.9,11.4C4518.8,2614.6,4520.2,2610.8,4521.4,2607z M4529.4,2285.1c-2.9,0-5.3,2.4-5.3,5.3s2.4,5.3,5.3,5.3
	s5.3-2.4,5.3-5.3S4532.3,2285.1,4529.4,2285.1z M4605.2,2567.4c-1,1.5-1.9,3-2.8,4.5C4603.4,2570.4,4604.4,2568.9,4605.2,2567.4z
	 M4606.3,2565.3c-0.3,0.7-0.7,1.4-1.1,2.1c0.4-0.7,0.9-1.3,1.3-1.9C4606.7,2565.3,4606.4,2565.1,4606.3,2565.3z M4630,2582.5
	c-0.6,2.3-1,4.7-1.4,7C4629.2,2587.2,4629.7,2584.9,4630,2582.5z M4630.3,2580.4c-0.1,0.7-0.2,1.4-0.3,2.1c0.2-0.7,0.3-1.4,0.6-2.1
	C4630.6,2580.2,4630.3,2580.2,4630.3,2580.4z M4656.7,2564c-2.1,4.1-3.6,8.6-4.7,13.3C4653.5,2572.9,4655.2,2568.5,4656.7,2564z
	 M4657.3,2562.3c-0.2,0.6-0.4,1.1-0.6,1.7c0.3-0.5,0.6-1.1,0.8-1.6C4657.7,2562.3,4657.4,2562.1,4657.3,2562.3z M4712.2,2590.7
	c1.2,2.7,2.6,5.3,4.2,8C4715.2,2595.9,4713.8,2593.2,4712.2,2590.7z M4712.2,2590.7c-0.2-0.5-0.4-0.9-0.6-1.4
	c-0.1-0.2-0.4,0-0.3,0.1C4711.6,2589.9,4711.9,2590.3,4712.2,2590.7z M4711.4,2444.6c2.9,0,5.3-2.4,5.3-5.3c0-2.9-2.4-5.3-5.3-5.3
	s-5.3,2.4-5.3,5.3C4706.2,2442.2,4708.5,2444.6,4711.4,2444.6z M4836.9,2527.1c0.8-4.6,1.1-9.2,0.7-13.7
	C4837.3,2518,4837.2,2522.5,4836.9,2527.1z M4837.3,2511.4c0.1,0.7,0.2,1.3,0.2,2c0-0.7,0.1-1.3,0.1-2
	C4837.6,2511.2,4837.3,2511.2,4837.3,2511.4z M4855.3,2559.4c0.1,0.7,0.1,1.5,0.1,2.3c0-0.8,0.1-1.5,0.2-2.3
	C4855.6,2559.2,4855.3,2559.2,4855.3,2559.4z M4873.3,2529.4c0.1,0.9,0.1,1.9,0.1,2.8c0-0.9,0.1-1.9,0.2-2.8
	C4873.6,2529.2,4873.3,2529.2,4873.3,2529.4z M4873.3,2546.6c0.2-4.8,0.4-9.7,0.1-14.4C4873.2,2536.9,4873.2,2541.8,4873.3,2546.6z
	 M5736.5,2095.7c0.2-0.1,0.3-0.3,0.5-0.4c-0.3,0-0.6,0-0.9,0.1C5736.2,2095.5,5736.3,2095.6,5736.5,2095.7z M5916,1854.2
	c-0.2-1.5-0.7-2.9-1.3-4.2c0-0.1-0.1-0.2-0.1-0.3c-0.1-0.2-0.2-0.4-0.4-0.7c-0.1-0.2-0.2-0.4-0.3-0.5c-0.1-0.2-0.2-0.4-0.3-0.5
	c-0.2-0.2-0.3-0.4-0.5-0.7c-0.1-0.1-0.2-0.3-0.3-0.4c-0.3-0.3-0.6-0.7-0.9-1c-0.3-0.3-0.6-0.6-1-0.9c-0.1-0.1-0.2-0.2-0.4-0.3
	c-0.2-0.2-0.4-0.3-0.7-0.5c-0.2-0.1-0.3-0.2-0.5-0.3c-0.2-0.1-0.4-0.3-0.6-0.4c-0.2-0.1-0.3-0.2-0.5-0.3c-2.1-1.1-4.5-1.7-6.9-1.7
	h-2.1c-4,0-7.8,1.6-10.6,4.4c-2.8,2.8-4.4,6.6-4.4,10.6c0,4,1.6,7.8,4.4,10.6c2.8,2.8,6.6,4.4,10.6,4.4h2.1c2.3,0,4.5-0.5,6.6-1.5
	c0.3-0.2,0.7-0.3,1-0.5c0.1,0,0.1-0.1,0.2-0.1c0.3-0.2,0.6-0.3,0.8-0.5c0.1-0.1,0.3-0.2,0.4-0.3c0.2-0.1,0.4-0.3,0.6-0.5
	c0.3-0.3,0.7-0.6,1-0.9c2.8-2.8,4.4-6.6,4.4-10.6c0,0,0-0.1,0-0.1C5916.2,1855.7,5916.1,1854.9,5916,1854.2z M5841.6,1992.8
	c0.6-0.6,1.2-1.1,1.8-1.7c0.1-0.5,0.4-1.1,0.7-1.7c0.4-0.6,0.7-1.2,1.1-1.9c0,0,0,0,0,0C5844,1989.3,5842.8,1991.1,5841.6,1992.8z
	 M5918.7,2033.4c0.4-0.1,0.8-0.2,1.2-0.3c-0.3-0.2-0.7-0.4-1-0.6C5918.8,2032.8,5918.8,2033.1,5918.7,2033.4z M5847.8,1758.1
	c0,0,0.1,0,0.1,0.1c0.1,0.1,0.3,0.2,0.6,0.3c0,0,0,0,0,0C5848.1,1758.3,5847.9,1758.2,5847.8,1758.1z M6004.7,1990.2
	c0.1-0.3,0.1-0.5,0.2-0.8c-0.1,0.2-0.2,0.4-0.3,0.7C6004.6,1990.1,6004.7,1990.2,6004.7,1990.2z M5628.5,2205.9
	c0.3-0.9,0.6-1.8,0.9-2.7c-0.2,0.4-0.5,1.1-0.6,1.8C5628.7,2205.3,5628.6,2205.6,5628.5,2205.9z M5005.2,1152.4c0-0.1,0-0.2,0-0.3
	c-0.3,0.1-0.6,0.2-0.9,0.3c0.3,0.1,0.5,0.3,0.8,0.5C5005.1,1152.8,5005.1,1152.6,5005.2,1152.4z M5007.1,1150.3
	c-0.2-0.1-0.3-0.2-0.5-0.3c-0.6-0.4-1.8-1.1-2.8-1.4c0.9,0.7,1.7,1.3,2.6,2C5006.7,1150.4,5006.9,1150.4,5007.1,1150.3z
	 M5018.1,1163.4c1.6,0.5,3.1,1.1,4.6,1.8c-2.4-1.8-5-3.5-7.5-5.1C5016.3,1161.1,5017.3,1162.2,5018.1,1163.4z M5005.3,1151.7
	c0.1-0.1,0.2-0.3,0.3-0.4c-1-0.9-2.1-1.8-3.1-2.7c-0.4,0.2-0.7,0.6-0.6,1.6c0,0.1,0,0.1-0.1,0.1c0,0.3,0,0.6,0,0.9
	c0.8,0.4,1.5,0.8,2.3,1.2c0.3-0.1,0.7-0.2,1-0.4C5005.2,1151.9,5005.3,1151.8,5005.3,1151.7z M4993.4,1173.5
	c0.7,0.5,2.1,1.1,3.4,1.9c-1.4-1.7-2.8-3.4-4.2-5.1c0,0.9-0.2,1.8-0.6,2.7c0.3,0.2,0.6,0.3,0.8,0.5
	C4993,1173.3,4993.2,1173.3,4993.4,1173.5z M5000.7,1146.9c0.4,0.6,0.7,1.3,0.9,2c0.1-0.3,0.3-0.5,0.5-0.7
	C5001.7,1147.8,5001.2,1147.3,5000.7,1146.9z M5760.5,1060c0,0.6,0,1.3,0,1.9c0.1,0,0.1-0.1,0.2-0.1c0.1-0.9,0.1-1.8,0.2-2.7
	c-0.1,0-0.3,0.1-0.4,0.1C5760.5,1059.4,5760.5,1059.7,5760.5,1060z M4988,1816.9c-2.9,0-5.3,3.4-5.3,7.5c0,4.2,2.4,7.5,5.3,7.5
	s5.3-3.4,5.3-7.5C4993.3,1820.3,4990.9,1816.9,4988,1816.9z M5272.1,1753.3c-2.9,0-5.3,3.4-5.3,7.5c0,4.2,2.4,7.5,5.3,7.5
	c2.9,0,5.3-3.4,5.3-7.5C5277.4,1756.6,5275.1,1753.3,5272.1,1753.3z M6017.3,961.7c-5.5,0-10,6.4-10,14.3c0,7.9,4.5,14.3,10,14.3
	c5.5,0,10-6.4,10-14.3C6027.3,968.1,6022.9,961.7,6017.3,961.7z M5858.7,1627.6c-5.5,0-10,6.4-10,14.3c0,7.9,4.5,14.3,10,14.3
	s10-6.4,10-14.3C5868.7,1634,5864.2,1627.6,5858.7,1627.6z M4979.4,1671.2c-1,1.5-1.9,3-2.8,4.5
	C4977.7,1674.2,4978.6,1672.7,4979.4,1671.2z M4980.5,1669.1c-0.3,0.7-0.7,1.4-1.1,2.1c0.4-0.7,0.9-1.3,1.3-1.9
	C4980.9,1669.1,4980.6,1668.9,4980.5,1669.1z M5004.2,1686.3c-0.6,2.3-1,4.7-1.4,7C5003.4,1691,5003.9,1688.6,5004.2,1686.3z
	 M5004.5,1684.2c-0.1,0.7-0.2,1.4-0.3,2.1c0.2-0.7,0.3-1.4,0.6-2.1C5004.9,1684,5004.5,1683.9,5004.5,1684.2z M5030.9,1667.8
	c-2.1,4.1-3.6,8.6-4.7,13.3C5027.7,1676.7,5029.4,1672.3,5030.9,1667.8z M5031.5,1666.1c-0.2,0.6-0.4,1.1-0.6,1.7
	c0.3-0.5,0.6-1.1,0.8-1.6C5031.9,1666.1,5031.6,1665.9,5031.5,1666.1z M5090.6,1702.5c-1.2-2.8-2.5-5.5-4.2-8
	C5087.6,1697.2,5089,1699.9,5090.6,1702.5z M5085.5,1693.2c0.3,0.4,0.6,0.8,0.9,1.3c-0.2-0.5-0.4-0.9-0.6-1.4
	C5085.7,1692.9,5085.4,1693.1,5085.5,1693.2z M5085.7,1548.3c2.9,0,5.3-2.4,5.3-5.3c0-2.9-2.4-5.3-5.3-5.3s-5.3,2.4-5.3,5.3
	C5080.4,1546,5082.7,1548.3,5085.7,1548.3z M5211.1,1630.8c0.8-4.6,1.1-9.2,0.7-13.7C5211.6,1621.8,5211.4,1626.3,5211.1,1630.8z
	 M5211.5,1615.2c0.1,0.7,0.2,1.3,0.2,2c0-0.7,0.1-1.3,0.1-2C5211.8,1614.9,5211.5,1615,5211.5,1615.2z M5229.5,1663.2
	c0.1,0.7,0.1,1.5,0.1,2.3c0-0.8,0.1-1.5,0.2-2.3C5229.8,1663,5229.5,1663,5229.5,1663.2z M5247.5,1633.2c0.1,0.9,0.1,1.9,0.1,2.8
	c0-0.9,0.1-1.9,0.2-2.8C5247.8,1633,5247.5,1633,5247.5,1633.2z M5247.5,1650.4c0.2-4.8,0.4-9.7,0.1-14.4
	C5247.4,1640.7,5247.4,1645.6,5247.5,1650.4z M5181.4,1026c-5.5,0-10,4.5-10,10c0,5.5,4.5,10,10,10c5.5,0,10-4.5,10-10
	C5191.4,1030.5,5186.9,1026,5181.4,1026z M5488.1,1185.5c-5.5,0-10,4.5-10,10c0,5.5,4.5,10,10,10c5.5,0,10-4.5,10-10
	C5498.1,1189.9,5493.7,1185.5,5488.1,1185.5z M5043.6,1952.2c-2.9,0-5.3,2.4-5.3,5.3c0,2.9,2.4,5.3,5.3,5.3c2.9,0,5.3-2.4,5.3-5.3
	C5048.9,1954.6,5046.5,1952.2,5043.6,1952.2z M4970,1496.1c2.9,0,5.3-3.4,5.3-7.5c0-0.7-0.1-1.3-0.2-2c21.3,3.5,43.1,5.1,64.6,6.4
	c0.4-0.5,0.9-1,1.3-1.5c0,0,0-0.1,0-0.1c-3.9-0.3-7.9-0.7-11.8-1c-15-1.3-29.9-2.5-44.9-3.8c-3.1-0.3-6.3-0.5-9.4-0.8
	c-0.3-1-0.7-1.9-1.2-2.6c4.4,0.4,8.9,0.7,13.3,1c15,1.1,29.9,2.1,44.9,3.3c2.6,0.2,5.2,0.4,7.7,0.6c-0.2-0.4-0.5-0.9-0.7-1.3
	c-0.4,0-0.7-0.1-1.1-0.1c-15.3-1.6-30.5-2.9-45.9-3.7c-6.4-0.4-12.8-0.7-19.3-1c-0.8-0.6-1.7-1-2.6-1c-0.9,0-1.7,0.3-2.4,0.8
	c-5.5-0.2-11-0.3-16.5-0.2c0,0,0.1,0,0.1,0c5.2,0.2,10.4,0.5,15.6,0.9c-1.2,1.4-2,3.5-2,5.9
	C4964.8,1492.7,4967.1,1496.1,4970,1496.1z M5163.3,1689.1c-5.5,0-10,6.4-10,14.3c0,7.9,4.5,14.3,10,14.3c5.5,0,10-6.4,10-14.3
	C5173.3,1695.6,5168.8,1689.1,5163.3,1689.1z M5322.2,1732c-5.5,0-10,6.4-10,14.3c0,7.9,4.5,14.3,10,14.3c5.5,0,10-6.4,10-14.3
	C5332.2,1738.4,5327.7,1732,5322.2,1732z M5556.6,1355.3c-5.5,0-10,6.4-10,14.3c0,7.9,4.5,14.3,10,14.3s10-6.4,10-14.3
	C5566.6,1361.7,5562.1,1355.3,5556.6,1355.3z M5808.6,927.2c0.2-0.1,0.3-0.3,0.5-0.4c-0.3,0-0.6,0-0.9,0.1
	C5808.3,927,5808.5,927.1,5808.6,927.2z M5988.1,685.7c-0.2-1.5-0.7-2.9-1.3-4.2c0-0.1-0.1-0.2-0.1-0.3c-0.1-0.2-0.2-0.4-0.4-0.7
	c-0.1-0.2-0.2-0.4-0.3-0.5c-0.1-0.2-0.2-0.4-0.3-0.5c-0.2-0.2-0.3-0.4-0.5-0.7c-0.1-0.1-0.2-0.3-0.3-0.4c-0.3-0.3-0.6-0.7-0.9-1
	c-0.3-0.3-0.6-0.6-1-0.9c-0.1-0.1-0.2-0.2-0.4-0.3c-0.2-0.2-0.4-0.3-0.7-0.5c-0.2-0.1-0.3-0.2-0.5-0.3c-0.2-0.1-0.4-0.3-0.6-0.4
	c-0.2-0.1-0.3-0.2-0.5-0.3c-2.1-1.1-4.5-1.7-6.9-1.7h-2.1c-4,0-7.8,1.6-10.6,4.4c-2.8,2.8-4.4,6.6-4.4,10.6c0,4,1.6,7.8,4.4,10.6
	c2.8,2.8,6.6,4.4,10.6,4.4h2.1c2.3,0,4.5-0.5,6.6-1.5c0.3-0.2,0.7-0.3,1-0.5c0.1,0,0.1-0.1,0.2-0.1c0.3-0.2,0.6-0.3,0.8-0.5
	c0.1-0.1,0.3-0.2,0.4-0.3c0.2-0.1,0.4-0.3,0.6-0.5c0.3-0.3,0.7-0.6,1-0.9c2.8-2.8,4.4-6.6,4.4-10.6c0,0,0-0.1,0-0.1
	C5988.3,687.1,5988.2,686.4,5988.1,685.7z M5913.7,824.3c0.6-0.6,1.2-1.1,1.8-1.7c0.1-0.5,0.3-1.1,0.7-1.7c0.4-0.6,0.7-1.2,1.1-1.9
	c0,0,0,0,0,0C5916.1,820.8,5914.9,822.6,5913.7,824.3z M5990.8,864.9c0.4-0.1,0.8-0.2,1.2-0.3c-0.3-0.2-0.7-0.4-1-0.6
	C5990.9,864.3,5990.9,864.6,5990.8,864.9z M6076.7,821.6c0.1,0.1,0.1,0.1,0.2,0.2c0.1-0.3,0.1-0.5,0.2-0.8
	C6076.9,821.1,6076.8,821.3,6076.7,821.6z M5700.7,1037.4c0.3-0.9,0.6-1.8,0.9-2.7c-0.2,0.4-0.5,1.1-0.6,1.8
	C5700.8,1036.8,5700.7,1037.1,5700.7,1037.4z M4266,292.7c1.1,0.8,2.2,1.6,3.3,2.4c-0.9-1-1.9-2.1-2.8-3.2c-0.6-0.4-1.2-0.8-1.8-1.3
	c0.2,0.5,0.4,1,0.5,1.5C4265.5,292.3,4265.7,292.5,4266,292.7z M4274.9,281.4c-0.4-0.2-0.7-0.4-1-0.7c-0.2,0-0.5,0-0.7,0
	c0.6,0.4,1.3,0.7,1.9,1.1C4275.1,281.7,4275,281.6,4274.9,281.4z M4297.5,370.6c0.2,0.1,0.4,0.1,0.6,0.2c-0.5-0.7-1-1.3-1.6-2
	C4296.8,369.4,4297.2,370,4297.5,370.6z M4280.9,274.3c0.4,0.1,0.8,0.3,1.2,0.4c-1-1.3-2.1-2.7-3.1-4c-0.3,0.8-0.7,1.6-1.3,2.3
	c0.4,0.1,0.9,0.2,1.3,0.4C4279.6,273.7,4280.2,274,4280.9,274.3z M4261.2,315.6c0.1,0,0.1-0.1,0.2-0.1c-0.3-0.3-0.7-0.7-1-1
	c0,0.1,0,0.3,0,0.4c0.2,0.1,0.4,0.3,0.5,0.4C4261,315.4,4261.1,315.5,4261.2,315.6z M4283.1,306.3c0.5,0.4,0.9,0.8,1.4,1.2
	c0.2-0.7,0.3-1.4,0.3-2C4284.2,306,4283.7,306.3,4283.1,306.3z M4283.3,294c-0.6,0.3-1.4,0.4-2.3,0c-0.4-0.2-0.8-0.3-1.2-0.5
	c0.2,0.2,0.3,0.3,0.5,0.5c0.3-0.1,0.7,0,1,0.3c1.2,0.9,2.4,1.7,3.6,2.5c0.3,0.1,0.5,0.2,0.8,0.3c-0.6-1-1.3-2-1.9-2.9
	C4283.6,294,4283.4,294,4283.3,294z M4340.1,131.8c-1.2-0.1-2.4-0.2-3.5-0.3c1.1,0.2,2.2,0.5,3.2,0.7
	C4339.9,132,4340,131.9,4340.1,131.8z M4331.2,189.9c4.2,0.7,8.5,1.5,12.7,2.5c-3.4-1.4-6.7-2.7-10.1-4c-1.2-0.3-2.3-0.5-3.5-0.7
	c0.2,0.7,0.4,1.4,0.6,2.1C4331,189.8,4331.1,189.9,4331.2,189.9z M4414,226.9c9.1,6.5,18.2,13,27.2,19.5
	C4433.2,238.6,4423.9,232.3,4414,226.9z M4324.1,137c0,0-0.1,0-0.1,0C4324,136.9,4324,137,4324.1,137
	C4324,137,4324.1,137,4324.1,137z M4321.4,264.1c-1.1-0.6-2.2-1.1-3.4-1.6c-5.4-2.5-10.8-4.9-16.4-7c0.1,0.6,0.2,1.2,0.3,1.7
	C4308.4,259.4,4314.9,261.7,4321.4,264.1z M4309.7,306.3c0.3,0.1,0.6,0.3,0.9,0.5c0.8,0.2,1.7,0.3,2.5,0.4c-4-1.8-8.2-3.3-12.4-4.5
	C4303.6,304,4306.8,304.9,4309.7,306.3z M4357.7,135.3c-0.3,0.2-0.6,0.4-0.9,0.6c0.4,0.1,0.8,0.2,1.2,0.3
	C4357.9,135.9,4357.8,135.6,4357.7,135.3z M4298,303.2C4298,303.2,4298,303.2,4298,303.2c-0.5-0.5-1-0.9-1.6-1.2
	c0.2,0.3,0.5,0.6,0.7,0.9C4297.4,303,4297.7,303.1,4298,303.2z M4483,135c0-0.1,0-0.2,0-0.3c-0.3,0.1-0.6,0.2-0.9,0.3
	c0.3,0.1,0.5,0.3,0.8,0.5C4483,135.3,4483,135.1,4483,135z M4484.9,132.8c-0.2-0.1-0.3-0.2-0.5-0.3c-0.6-0.4-1.8-1.1-2.8-1.4
	c0.9,0.7,1.7,1.3,2.6,2C4484.5,133,4484.7,132.9,4484.9,132.8z M4500.6,147.7c-2.4-1.8-5-3.5-7.5-5.1c1.1,1,2.1,2.2,2.9,3.3
	C4497.5,146.4,4499.1,147,4500.6,147.7z M4479.7,132.8c0,0.3,0,0.6,0,0.9c0.8,0.4,1.5,0.8,2.3,1.2c0.3-0.1,0.7-0.2,1-0.4
	c0-0.1,0.1-0.2,0.1-0.3c0.1-0.1,0.2-0.3,0.3-0.4c-1-0.9-2.1-1.8-3.1-2.7c-0.4,0.2-0.7,0.6-0.6,1.6
	C4479.8,132.7,4479.8,132.8,4479.7,132.8z M4420,161.1c2.8,0.4,5.7,0.8,8.5,1.2c-14.1-3.7-28.1-8.1-42.1-12
	c-0.7,1.3-1.7,2.4-2.9,3.2c0,0,0,0,0.1,0C4395.6,156.6,4407.7,159.3,4420,161.1z M4471.2,156c0.7,0.5,2.1,1.1,3.4,1.9
	c-1.4-1.7-2.8-3.4-4.2-5.1c0,0.9-0.2,1.8-0.6,2.7c0.3,0.2,0.6,0.3,0.8,0.5C4470.8,155.9,4471,155.9,4471.2,156z M4480,130.7
	c-0.5-0.4-0.9-0.9-1.4-1.3c0.4,0.6,0.7,1.3,0.9,2C4479.6,131.1,4479.8,130.9,4480,130.7z M3992.6,74.9
	C3992.7,75,3992.7,75,3992.6,74.9L3992.6,74.9z M3991.5,74.4C3991.5,74.4,3991.5,74.4,3991.5,74.4
	C3992.6,74.6,3992.6,74.6,3991.5,74.4z M4011.9,0.3C4011.8-0.1,4011.8-0.1,4011.9,0.3L4011.9,0.3z M4015,2.9
	C4015,2.9,4015,2.9,4015,2.9C4015.6,3,4015.6,3,4015,2.9z M4036,40.3C4035.8,39.6,4035.9,40,4036,40.3
	C4036,40.3,4036,40.3,4036,40.3z M4302.4,387.3c0.1,0.1,0.2,0.1,0.3,0.2c-0.3-0.2-0.6-0.5-0.8-0.8c-0.2,0.1-0.3,0.2-0.5,0.3
	c0,0,0.1,0.1,0.1,0.1C4301.8,387.1,4302.1,387.2,4302.4,387.3z M5238.3,42.6c0,0.6,0,1.3,0,1.9c0.1,0,0.1-0.1,0.2-0.1
	c0.1-0.9,0.1-1.8,0.2-2.7c-0.1,0-0.3,0.1-0.4,0.1C5238.3,42,5238.3,42.3,5238.3,42.6z M3841.2,442.6c6.1,1.1,12.3,1.9,18.5,2.6
	c25.2,6.2,51,8.9,76.8,10.7c-4.5,5.1-9,10.2-13.6,15.1c-7.7,8.2-16,15.6-24.1,23.3c-0.3,0.3,0.1,0.9,0.5,0.6
	c8.6-6.4,16.3-14.5,23.6-22.3c5.1-5.4,10.1-11,15-16.7c0.5,0,1.1,0.1,1.6,0.1c0,0.3-0.1,0.6-0.1,1c-7.9,8.9-15.9,17.7-24.1,26.3
	c-0.3,0.3,0.2,0.7,0.5,0.5c8.2-7.8,15.9-16.1,23.4-24.5c-1.8,18.5-2.7,37.1-3.9,55.6c-1.5-2-3.5-3.8-6-3.9c-0.1,0-0.1,0.2,0,0.2
	c2.4,0.3,4.4,1.7,6,3.7c0,0.2,0,0.3,0,0.5c-0.5,8.2-1.2,16.4-1.9,24.6c-0.7,3.1-1.4,6.3-2.2,9.4c-0.2,0.8,0.5,1.2,1.1,1.1
	c-0.3,2.3-0.5,4.6-1,6.9c-0.4,1.8-0.7,4.4-2,5.9c-0.1,0.1,0,0.2,0.1,0.1c1.1-1.1,1.4-3,1.8-4.4c0.9-3.3,1.5-6.5,2-9.8
	c2.7-8.3,4.7-16.8,6.1-25.4c0,0.1,0,0.2,0.1,0.3c0.1,1.2,0.1,2.4,0.2,3.6c0,0.4,0.3,0.6,0.5,0.7c0.1,0.7,0.1,1.4,0.2,2.1
	c0,0,0,0,0,0c0-0.7-0.1-1.4-0.1-2.1c0.4,0.1,0.8-0.2,0.8-0.7c0.7-9.7,1.1-19.4,1.5-29.2c1-10.1,1.6-20.3,2.1-30.4
	c0.2-2.4,0.4-4.7,0.6-7.1c0.6,0.9,1.1,1.9,1.7,2.8c2.7,4.5,5.5,8.8,8.4,13.2c1.9,2.8,3.8,5.8,5.9,8.5c3.4,6.2,7.1,12.4,11.5,17.9
	c0.4,0.6,1.3-0.2,0.9-0.7c-4.2-7.8-8.9-15.3-13.4-22.9c-4-7.6-8-15.3-12-22.9c15.9,1,31.8,1.9,47.7,3.2c7.9,0.6,15.9,1.4,23.8,2.4
	c4,0.5,8,1,11.9,1.7c1.4,0.2,2.8-0.1,4.1,0.1c2,0.3,3.9,0.6,5.9,0.9c0.6,0.1,0.9-0.8,0.3-1c-3.2-0.8-6.5-1.3-9.6-2.6
	c-3-1.2-7.3-1.1-10.6-1.5c-1.3-0.2-2.5-0.3-3.8-0.5c0.2-0.5,0-1.3-0.7-1.5c-6.4-1.7-13.2-2.3-19.8-3.1c-7.4-0.9-14.8-1.8-22.3-2.5
	c-9.3-1-18.5-1.8-27.8-2.6c0.3-0.3,0.5-0.6,0.8-0.9c26.6,3,53.1,6.9,79.8,8.2c1.1,0.1,1-1.5,0-1.6c-25.8-3.4-51.8-6.4-77.7-9.1
	c17.7-20.5,35-41.3,55.8-58.7c0.2-0.1-0.1-0.4-0.2-0.2c-16.8,13.6-31.3,29.7-45.6,45.8c-3.8,4.3-7.6,8.6-11.4,13
	c-0.8-0.1-1.6-0.2-2.4-0.2c0-0.1,0-0.2,0-0.3c14.2-16.8,27.9-33.9,43.1-49.8c0.1-0.1-0.1-0.4-0.2-0.2
	c-15.5,14.9-28.9,31.8-42.7,48.2c0.3-3.1,0.6-6.2,0.9-9.2c2-20.9,3.6-41.7,4-62.6c1.8-10.6,4.3-21,7.7-31.2c0-0.1-0.1-0.1-0.1,0
	c-3.2,9-5.6,18.1-7.6,27.4c0-4.4,0-8.7-0.1-13.1c0.8-6.6,1.6-13.2,2.5-19.7c0-0.2-0.4-0.3-0.4-0.1c-0.7,4.7-1.5,9.4-2.2,14.2
	c-0.1-1.9-0.2-3.9-0.3-5.8c0-0.1-0.2-0.1-0.2,0c0.1,2.5,0.1,5,0.2,7.5c-3.8,25-7.4,50.1-9.6,75.3c-0.4,5-0.9,10-1.2,15
	c-0.8-1.7-1.7-3.3-2.5-5c-7.6-14.8-15.5-29.7-25.5-43.1c-1.7-3.8-3.4-7.6-5.1-11.3c0-0.1-0.2,0-0.2,0.1c1.1,3,2.3,5.9,3.5,8.8
	c-0.2-0.2-0.3-0.5-0.5-0.7c-0.1-0.2-0.5,0-0.3,0.2c0.6,0.8,1.1,1.6,1.6,2.5c5.9,14.5,12.6,28.7,19.7,42.6c1.6,3.2,3.3,6.3,5,9.4
	c-14.7-1.5-29.4-2.7-44.1-3.2c-7.9-0.3-15.9-0.5-23.9-0.4c-8.1,0-16,0.8-24,1.2c-0.9,0-1.9,0-2.8,0
	C3841,442.2,3841,442.6,3841.2,442.6z M3083,315.1c5.5,0,10-6.4,10-14.3c0-7.9-4.5-14.3-10-14.3c-5.5,0-10,6.4-10,14.3
	C3073,308.7,3077.5,315.1,3083,315.1z M3242,329.4c-5.5,0-10,6.4-10,14.3c0,7.9,4.5,14.3,10,14.3c5.5,0,10-6.4,10-14.3
	C3252,335.8,3247.5,329.4,3242,329.4z M3920.6,142c2.9,0,5.3-3.4,5.3-7.5c0-4.2-2.4-7.5-5.3-7.5c-2.9,0-5.3,3.4-5.3,7.5
	C3915.3,138.6,3917.7,142,3920.6,142z M3048.1,1247.9c0-5.5-4.5-10-10-10c-5.5,0-10,4.5-10,10s4.5,10,10,10
	C3043.6,1257.9,3048.1,1253.4,3048.1,1247.9z M3150.8,1010.2c0-2.9-2.4-5.3-5.3-5.3c-2.9,0-5.3,2.4-5.3,5.3c0,2.9,2.4,5.3,5.3,5.3
	C3148.5,1015.4,3150.8,1013.1,3150.8,1010.2z M3152.4,715.5c0.4,0.6,1.3-0.2,0.9-0.7c-4.2-7.8-8.9-15.3-13.4-22.9
	c-4-7.6-8-15.3-12-22.9c15.9,1,31.8,1.9,47.7,3.2c7.9,0.6,15.9,1.4,23.8,2.4c4,0.5,8,1,11.9,1.7c1.4,0.2,2.8-0.1,4.1,0.1
	c2,0.3,3.9,0.6,5.9,0.9c0.6,0.1,0.9-0.8,0.3-1c-3.2-0.8-6.5-1.3-9.6-2.6c-3-1.2-7.3-1.1-10.6-1.5c-1.3-0.2-2.5-0.3-3.8-0.5
	c0.2-0.5,0-1.3-0.7-1.5c-6.4-1.7-13.2-2.3-19.8-3.1c-7.4-0.9-14.8-1.8-22.3-2.5c-9.3-1-18.5-1.8-27.8-2.6c0.3-0.3,0.5-0.6,0.8-0.9
	c26.6,3,53.1,6.9,79.8,8.2c1.1,0.1,1-1.5,0-1.6c-25.8-3.4-51.8-6.4-77.7-9.1c17.7-20.5,35-41.3,55.8-58.7c0.2-0.1-0.1-0.4-0.2-0.2
	c-16.8,13.6-31.3,29.7-45.6,45.8c-3.8,4.3-7.6,8.6-11.4,13c-0.8-0.1-1.6-0.2-2.4-0.2c0-0.1,0-0.2,0-0.3
	c14.2-16.8,27.9-33.9,43.1-49.8c0.1-0.1-0.1-0.4-0.2-0.2c-15.5,14.9-28.9,31.8-42.7,48.2c0.3-3.1,0.6-6.2,0.9-9.2
	c2-20.9,3.6-41.7,4-62.6c1.8-10.6,4.3-21,7.7-31.2c0-0.1-0.1-0.1-0.1,0c-3.2,9-5.6,18.1-7.6,27.4c0-4.4,0-8.7-0.1-13.1
	c0.8-6.6,1.6-13.2,2.5-19.7c0-0.2-0.4-0.3-0.4-0.1c-0.7,4.7-1.5,9.4-2.2,14.2c-0.1-1.9-0.2-3.9-0.3-5.8c0-0.1-0.2-0.1-0.2,0
	c0.1,2.5,0.1,5,0.2,7.5c-3.8,25-7.4,50.1-9.6,75.3c-0.4,5-0.9,10-1.2,15c-0.8-1.7-1.7-3.3-2.5-5c-7.6-14.8-15.5-29.7-25.5-43.1
	c-1.7-3.8-3.4-7.6-5.1-11.3c0-0.1-0.2,0-0.2,0.1c1.1,3,2.3,5.9,3.5,8.8c-0.2-0.2-0.3-0.5-0.5-0.7c-0.1-0.2-0.5,0-0.3,0.2
	c0.6,0.8,1.1,1.6,1.6,2.5c5.9,14.5,12.6,28.7,19.7,42.6c1.6,3.2,3.3,6.3,5,9.4c-14.7-1.5-29.4-2.7-44.1-3.2
	c-7.9-0.3-15.9-0.5-23.9-0.4c-8.1,0-16,0.8-24,1.2c-0.9,0-1.9,0-2.8,0c-0.2,0-0.3,0.3,0,0.4c6.1,1.1,12.3,1.9,18.5,2.6
	c25.2,6.2,51,8.9,76.8,10.7c-4.5,5.1-9,10.2-13.6,15.1c-7.7,8.2-16,15.6-24.1,23.3c-0.3,0.3,0.1,0.9,0.5,0.6
	c8.6-6.4,16.3-14.5,23.6-22.3c5.1-5.4,10.1-11,15-16.7c0.5,0,1.1,0.1,1.6,0.1c0,0.3-0.1,0.6-0.1,1c-7.9,8.9-15.9,17.7-24.1,26.3
	c-0.3,0.3,0.2,0.7,0.5,0.5c8.2-7.8,15.9-16.1,23.4-24.5c-1.8,18.5-2.7,37.1-3.9,55.6c-1.5-2-3.5-3.8-6-3.9c-0.1,0-0.1,0.2,0,0.2
	c2.4,0.3,4.4,1.7,6,3.7c0,0.2,0,0.3,0,0.5c-0.5,8.2-1.2,16.4-1.9,24.6c-0.7,3.1-1.4,6.3-2.2,9.4c-0.2,0.8,0.5,1.2,1.1,1.1
	c-0.3,2.3-0.5,4.6-1,6.9c-0.4,1.8-0.7,4.4-2,5.9c-0.1,0.1,0,0.2,0.1,0.1c1.1-1.1,1.4-3,1.8-4.4c0.9-3.3,1.5-6.5,2-9.8
	c2.7-8.3,4.7-16.8,6.1-25.4c0,0.1,0,0.2,0.1,0.3c0.1,1.2,0.1,2.4,0.2,3.6c0,0.4,0.3,0.6,0.5,0.7c0.1,0.7,0.1,1.4,0.2,2.1
	c0,0,0,0,0,0c0-0.7-0.1-1.4-0.1-2.1c0.4,0.1,0.8-0.2,0.8-0.7c0.7-9.7,1.1-19.4,1.5-29.2c1-10.1,1.6-20.3,2.1-30.4
	c0.2-2.4,0.4-4.7,0.6-7.1c0.6,0.9,1.1,1.9,1.7,2.8c2.7,4.5,5.5,8.8,8.4,13.2c1.9,2.8,3.8,5.8,5.9,8.5
	C3144.3,703.9,3148,710.1,3152.4,715.5z M3481.7,576.9c5.5,0,10-4.5,10-10s-4.5-10-10-10c-5.5,0-10,4.5-10,10
	S3476.1,576.9,3481.7,576.9z M3524,864.1c2.9,0,5.3-2.4,5.3-5.3c0-2.9-2.4-5.3-5.3-5.3c-2.9,0-5.3,2.4-5.3,5.3
	C3518.8,861.7,3521.1,864.1,3524,864.1z M3716.8,1389.2c-2.9,0-5.3,2.4-5.3,5.3c0,2.9,2.4,5.3,5.3,5.3c2.9,0,5.3-2.4,5.3-5.3
	C3722,1391.6,3719.7,1389.2,3716.8,1389.2z M4465.8,814.5c2.9,0,5.3-3.4,5.3-7.5s-2.4-7.5-5.3-7.5s-5.3,3.4-5.3,7.5
	S4462.9,814.5,4465.8,814.5z M4750,750.9c2.9,0,5.3-3.4,5.3-7.5c0-4.2-2.4-7.5-5.3-7.5c-2.9,0-5.3,3.4-5.3,7.5
	C4744.7,747.5,4747.1,750.9,4750,750.9z M4953.2,958.3c0-7.9-4.5-14.3-10-14.3s-10,6.4-10,14.3c0,7.9,4.5,14.3,10,14.3
	S4953.2,966.2,4953.2,958.3z M5102.1,1015.4c5.5,0,10-6.4,10-14.3c0-7.9-4.5-14.3-10-14.3s-10,6.4-10,14.3
	C5092.1,1009,5096.6,1015.4,5102.1,1015.4z M5336.5,610.1c-5.5,0-10,6.4-10,14.3c0,7.9,4.5,14.3,10,14.3s10-6.4,10-14.3
	C5346.6,616.5,5342.1,610.1,5336.5,610.1z M3676.9,785c0.9,0.9,1.8,1.8,2.7,2.7C3678.8,786.7,3677.9,785.8,3676.9,785z
	 M3675.3,783.8c0.6,0.4,1.1,0.8,1.6,1.2c-0.5-0.5-1-0.9-1.4-1.4C3675.3,783.4,3675.1,783.7,3675.3,783.8z M3726.3,723.7
	c-0.2,0.6-0.4,1.2-0.6,1.8c0.3-0.6,0.5-1.1,0.8-1.7C3726.6,723.6,3726.3,723.5,3726.3,723.7z M3725.7,725.4
	c-1.1,2.3-2.1,4.9-2.8,7.6C3723.8,730.5,3724.8,728,3725.7,725.4z M3756.3,753.8c0.4,0.3,0.8,0.6,1.2,0.9c-0.3-0.4-0.7-0.8-1-1.2
	C3756.4,753.4,3756.1,753.7,3756.3,753.8z M3757.5,754.8c3.6,4.1,7,8,10.1,12.3C3765.1,762.3,3761.8,758,3757.5,754.8z
	 M3792.4,750.8c0.5,0.2,0.9,0.4,1.3,0.6c-0.4-0.3-0.8-0.6-1.2-0.8C3792.3,750.5,3792.2,750.8,3792.4,750.8z M3793.7,751.4
	c2.8,2,5.5,4,8.1,6.1C3799.4,755,3796.7,752.8,3793.7,751.4z M3993.8,737.8c0,2.9,2.4,5.3,5.3,5.3s5.3-2.4,5.3-5.3
	c0-2.9-2.4-5.3-5.3-5.3S3993.8,734.9,3993.8,737.8z M4041.3,717.7c-0.1,0.7-0.2,1.5-0.4,2.2c0.2-0.7,0.4-1.4,0.7-2.2
	C4041.6,717.6,4041.3,717.5,4041.3,717.7z M4040.9,719.9c-0.6,2.1-1.2,4.2-1.8,6.4C4039.9,724.2,4040.5,722.1,4040.9,719.9z
	 M4067.3,743.1c3,2.6,5.9,5.1,8.6,7.9C4073.4,747.9,4070.5,745.3,4067.3,743.1z M4065.4,741.8c0.6,0.4,1.3,0.8,1.9,1.2
	c-0.6-0.5-1.1-1-1.7-1.5C4065.4,741.5,4065.2,741.7,4065.4,741.8z M4121.7,736c-4.1-2.8-8.4-5-13-5.9
	C4113.1,732.1,4117.5,733.7,4121.7,736z M4107.4,729.8c0.4,0.1,0.8,0.2,1.3,0.2c-0.4-0.2-0.8-0.3-1.2-0.5
	C4107.3,729.5,4107.2,729.8,4107.4,729.8z M4263.4,735.7c-0.6,0.8-1.2,1.6-1.9,2.4C4262.2,737.3,4262.8,736.5,4263.4,735.7
	C4263.5,735.7,4263.5,735.6,4263.4,735.7z M4261.6,738c-1.5,1.8-2.8,3.6-4.2,5.4C4258.8,741.7,4260.2,739.8,4261.6,738z
	 M4267.5,718.8c2.6,3.4,5,6.7,7.1,10.2C4272.7,725.1,4270.4,721.5,4267.5,718.8z M4266.3,717.8c0.4,0.3,0.7,0.6,1.1,1
	c-0.3-0.4-0.6-0.8-0.9-1.2C4266.4,717.4,4266.2,717.7,4266.3,717.8z M4369.6,704.7c1.3-3.8,2.6-7.6,3.9-11.4
	C4371.9,696.9,4370.6,700.8,4369.6,704.7z M4374.3,690.7c-0.3,0.9-0.6,1.8-0.8,2.6c0.4-0.8,0.7-1.7,1.1-2.5
	C4374.7,690.6,4374.4,690.5,4374.3,690.7z M4458.3,651.6c-0.3,0.7-0.7,1.4-1.1,2.1c0.4-0.7,0.9-1.3,1.3-1.9
	C4458.7,651.6,4458.4,651.4,4458.3,651.6z M4454.5,658.2c1-1.5,1.9-3,2.8-4.5C4456.3,655.2,4455.4,656.7,4454.5,658.2z
	 M4482.3,666.7c-0.1,0.7-0.2,1.4-0.3,2.1c0.2-0.7,0.3-1.4,0.6-2.1C4482.7,666.5,4482.3,666.5,4482.3,666.7z M4482.1,668.8
	c-0.6,2.3-1,4.7-1.4,7C4481.3,673.5,4481.7,671.2,4482.1,668.8z M4509.3,648.7c-0.2,0.6-0.4,1.1-0.6,1.7c0.3-0.5,0.6-1.1,0.8-1.6
	C4509.7,648.6,4509.4,648.4,4509.3,648.7z M4504,663.6c1.5-4.4,3.2-8.8,4.7-13.3C4506.7,654.4,4505.2,659,4504,663.6z M4563.4,675.8
	c0.3,0.4,0.6,0.8,0.9,1.3c-0.2-0.5-0.4-0.9-0.6-1.4C4563.5,675.4,4563.2,675.6,4563.4,675.8z M4568.4,685c-1.2-2.8-2.5-5.5-4.2-8
	C4565.4,679.7,4566.9,682.4,4568.4,685z M4563.5,530.9c2.9,0,5.3-2.4,5.3-5.3c0-2.9-2.4-5.3-5.3-5.3c-2.9,0-5.3,2.4-5.3,5.3
	C4558.2,528.5,4560.6,530.9,4563.5,530.9z M4689.4,597.7c0.1,0.7,0.2,1.3,0.2,2c0-0.7,0.1-1.3,0.1-2
	C4689.7,597.5,4689.3,597.5,4689.4,597.7z M4689.6,599.7c-0.2,4.6-0.3,9.2-0.7,13.7C4689.7,608.8,4690,604.2,4689.6,599.7z
	 M4707.6,645.7c0-0.2-0.3-0.2-0.3,0c0.1,0.7,0.1,1.5,0.1,2.3C4707.5,647.2,4707.6,646.4,4707.6,645.7z M4725.3,632.9
	c0.2-4.8,0.4-9.7,0.1-14.4C4725.3,623.2,4725.2,628.1,4725.3,632.9z M4725.4,615.7c0.1,0.9,0.1,1.9,0.1,2.8c0-0.9,0.1-1.9,0.2-2.8
	C4725.7,615.5,4725.3,615.5,4725.4,615.7z M3751.3,977.8c-2.9,0-5.3,2.4-5.3,5.3c0,2.9,2.4,5.3,5.3,5.3c2.9,0,5.3-2.4,5.3-5.3
	C3756.6,980.2,3754.3,977.8,3751.3,977.8z M4107.3,1008.3c-5.5,0-10,4.5-10,10c0,5.5,4.5,10,10,10s10-4.5,10-10
	C4117.3,1012.8,4112.8,1008.3,4107.3,1008.3z M4404,1177.7c0,5.5,4.5,10,10,10s10-4.5,10-10c0-5.5-4.5-10-10-10
	S4404,1172.2,4404,1177.7z M4521.4,945.3c2.9,0,5.3-2.4,5.3-5.3c0-2.9-2.4-5.3-5.3-5.3c-2.9,0-5.3,2.4-5.3,5.3
	C4516.2,942.9,4518.5,945.3,4521.4,945.3z M3895.9,1463.2c-2.9,0-5.3,3.4-5.3,7.5c0,4.2,2.4,7.5,5.3,7.5c2.9,0,5.3-3.4,5.3-7.5
	C3901.2,1466.6,3898.8,1463.2,3895.9,1463.2z M4482.5,1366.2c5.5,0,10-6.4,10-14.3c0-7.9-4.5-14.3-10-14.3s-10,6.4-10,14.3
	C4472.4,1359.8,4476.9,1366.2,4482.5,1366.2z M3409.4,1463.1c-0.6,0.8-1.2,1.6-1.9,2.4C3408.1,1464.7,3408.8,1463.9,3409.4,1463.1
	C3409.5,1463.1,3409.4,1463.1,3409.4,1463.1z M3407.5,1465.5c-1.5,1.8-2.8,3.6-4.2,5.4C3404.7,1469.1,3406.1,1467.3,3407.5,1465.5z
	 M3412.3,1445.2c0.4,0.3,0.7,0.6,1.1,1c-0.3-0.4-0.6-0.8-0.9-1.2C3412.4,1444.9,3412.1,1445.1,3412.3,1445.2z M3413.4,1446.2
	c2.6,3.4,5,6.7,7.1,10.2C3418.7,1452.5,3416.4,1449,3413.4,1446.2z M3515.6,1432.1c1.3-3.8,2.6-7.6,3.9-11.4
	C3517.9,1424.3,3516.6,1428.2,3515.6,1432.1z M3520.3,1418.1c-0.3,0.9-0.6,1.8-0.8,2.6c0.4-0.8,0.7-1.7,1.1-2.5
	C3520.6,1418,3520.3,1417.9,3520.3,1418.1z M3522.1,1104.1c0,2.9,2.4,5.3,5.3,5.3s5.3-2.4,5.3-5.3s-2.4-5.3-5.3-5.3
	S3522.1,1101.2,3522.1,1104.1z M3604.3,1379.1c-0.3,0.7-0.7,1.4-1.1,2.1c0.4-0.7,0.9-1.3,1.3-1.9
	C3604.7,1379,3604.4,1378.9,3604.3,1379.1z M3600.4,1385.7c1-1.5,1.9-3,2.8-4.5C3602.2,1382.6,3601.3,1384.1,3600.4,1385.7z
	 M3626.6,1403.3c0.6-2.3,1-4.7,1.4-7C3627.4,1398.5,3627,1400.9,3626.6,1403.3z M3628.3,1394.1c-0.1,0.7-0.2,1.4-0.3,2.1
	c0.2-0.7,0.3-1.4,0.6-2.1C3628.6,1394,3628.3,1393.9,3628.3,1394.1z M3650,1391.1c1.5-4.4,3.2-8.8,4.7-13.3
	C3652.6,1381.8,3651.1,1386.4,3650,1391.1z M3655.3,1376.1c-0.2,0.6-0.4,1.1-0.6,1.7c0.3-0.5,0.6-1.1,0.8-1.6
	C3655.7,1376,3655.3,1375.9,3655.3,1376.1z M3709.3,1403.2c0.3,0.4,0.6,0.8,0.9,1.3c-0.2-0.5-0.4-0.9-0.6-1.4
	C3709.5,1402.9,3709.2,1403,3709.3,1403.2z M3714.3,1412.4c-1.2-2.8-2.5-5.5-4.2-8C3711.4,1407.2,3712.8,1409.8,3714.3,1412.4z
	 M3709.4,1258.3c2.9,0,5.3-2.4,5.3-5.3c0-2.9-2.4-5.3-5.3-5.3s-5.3,2.4-5.3,5.3C3704.1,1255.9,3706.5,1258.3,3709.4,1258.3z
	 M3834.9,1340.8c0.8-4.6,1.1-9.2,0.7-13.7C3835.3,1331.7,3835.2,1336.3,3834.9,1340.8z M3835.3,1325.2c0.1,0.7,0.2,1.3,0.2,2
	c0-0.7,0.1-1.3,0.1-2C3835.6,1324.9,3835.3,1324.9,3835.3,1325.2z M3853.3,1373.1c0.1,0.7,0.1,1.5,0.1,2.3c0-0.8,0.1-1.5,0.2-2.3
	C3853.6,1372.9,3853.3,1372.9,3853.3,1373.1z M3871.3,1343.1c0.1,0.9,0.1,1.9,0.1,2.8c0-0.9,0.1-1.9,0.2-2.8
	C3871.6,1342.9,3871.3,1342.9,3871.3,1343.1z M3871.3,1360.4c0.2-4.8,0.4-9.7,0.1-14.4C3871.2,1350.7,3871.2,1355.5,3871.3,1360.4z
	 M5178.7,19c-0.1,0.3-0.2,0.6-0.2,0.9c0.3-0.9,0.6-1.8,0.9-2.7C5179.2,17.6,5178.9,18.4,5178.7,19z"/>
</svg>
