<?xml version="1.0" encoding="utf-8"?>
<svg version="1.1" id="_x33_" xmlns="http://www.w3.org/2000/svg" xmlns:xlink="http://www.w3.org/1999/xlink" x="0px" y="0px"
	 viewBox="0 0 493.3 493.6" style="enable-background:new 0 0 493.3 493.6;" xml:space="preserve">
<style type="text/css">
	.st0{fill: currentColor;}
</style>
<g>
	<g>
		<g>
			<path class="st0" d="M108.9,218.2c23.5-0.7,46.5-5.4,70-6.6c1.3-0.1,1.5-2.1,0.2-2c-23.5,0.9-46.8,4.9-70.2,6.2
				C107.4,215.9,107.5,218.2,108.9,218.2z"/>
		</g>
	</g>
	<g>
		<g>
			<path class="st0" d="M193.2,165c-13.9,2.3-27.4,4.8-40.4,10.4c-1.4,0.6-0.4,2.7,1,2.2c13-4.6,26.3-8,39.7-10.8
				C194.7,166.6,194.3,164.8,193.2,165z"/>
		</g>
	</g>
	<g>
		<g>
			<path class="st0" d="M26.1,126.8c-3.7,6.6-6.4,13.6-8.8,20.7c0,0,0,0,0,0c0,0.1,0,0.1,0,0.2c-0.4,1.1-0.7,2.2-1.1,3.3
				c-0.1,0.2-0.1,0.4-0.2,0.5c-0.3,1-0.6,2-0.9,3c-0.1,0.2-0.1,0.4-0.2,0.6c-1.4,4.9-2.7,9.9-4.1,14.9l0,0c-0.2,0.8-0.4,1.6-0.6,2.3
				c-0.2,0.6-0.3,1.2-0.5,1.9c-0.2,0.7-0.4,1.3-0.5,2c-2.3,8.5-4.9,16.8-8.4,24.9c-0.3,16.7-0.8,33.3-0.5,49.9c-0.5,2-0.3,4,0.1,6
				c0.3,9.7,0.9,19.3,2.1,29c1.3,10.4,3.3,20.8,6.3,30.9c-0.4,0.6-0.8,1.3-1.1,2.1c2.8,6.8,5.6,13.6,7.7,20.6c1,1.6,1.9,3.2,2.9,4.9
				l0,0c0.6,1.1,1.2,2.2,1.8,3.3c0.3,0.6,0.7,1.2,1,1.8c2.5,4.6,4.8,9.3,7.1,14c3.3,4.9,6.5,9.8,9.4,14.9c1.9,3.2,3.6,6.5,5.2,9.8
				c1.3,0.7,2.6,1.4,4,2.1c-0.3,0.3-0.6,0.6-0.8,0.9c0.4,0.5,0.9,1.1,1.2,1.8c2,3.4,4.5,6.6,6.9,9.7c0.1,0.1,0.1,0.2,0.2,0.3
				c2.2,0.3,4.4,0.5,6.6,0.7c0.8,0.7,1.7,1.3,2.5,2c-0.5,0.2-0.9,0.4-1.4,0.7c-1.2,0.6-1.9,1.9-1.9,3.1c5.1,5.3,10.4,10.3,15.9,15.2
				c0.8,0.7,1.6,1.4,2.3,2.1c9.6,8.3,19.7,16,30.2,23.3c0.4,0.3,0.8,0.6,1.1,0.9c2.4,0.7,3.9,2.1,4.8,3.9c5,0.5,9.6,2.1,14.6,4.2
				c0,0,0,0,0,0c0.8,0.3,1.5,0.6,2.3,1c0.5,0.2,0.9,0.4,1.3,0.7c0.2,0.1,0.3,0.2,0.4,0.3c0.2,0.2,0.5,0.3,0.7,0.5
				c0.2,0.1,0.3,0.3,0.4,0.4c0.2,0.2,0.3,0.3,0.5,0.5c0.1,0.1,0.3,0.3,0.4,0.5c0.2,0.2,0.4,0.4,0.5,0.7c0.3,0.1,0.6,0.1,0.8,0.2
				c0,0,0.1,0,0.1,0c0.2,0.1,0.5,0.2,0.7,0.3c0.1,0,0.1,0.1,0.2,0.1c0.2,0.1,0.4,0.2,0.6,0.3c0.1,0,0.2,0.1,0.2,0.1
				c0.3,0.2,0.6,0.3,0.9,0.5c4.4,3,12.9,7,19.1,9.5c0.3,0.1,0.6,0.3,0.9,0.4c0.1,0,0.2,0.1,0.3,0.1c0.2,0.1,0.4,0.2,0.5,0.3
				c0.1,0.1,0.2,0.1,0.3,0.2c0.2,0.1,0.3,0.2,0.4,0.3c0.1,0.1,0.2,0.1,0.3,0.2c0.2,0.2,0.4,0.3,0.5,0.5c0.4,0.1,0.8,0.2,1.2,0.4
				c0,0,0.1,0,0.1,0c3.1,1,6.1,1.9,9.2,2.9c0.8,0.2,1.6,0.5,2.4,0.7c2.8,0.9,5.7,1.7,8.5,2.6c0.3,0.1,0.6,0.2,0.9,0.3c0,0,0,0,0,0
				c3.1,0.9,6.2,1.9,9.4,2.8c1.3,0.4,2.4,1,3.3,1.7c6.8,1.2,13.6,2.7,20.3,4.6c4.3,0.5,8.5,0.6,13.1,0.2c2.5-0.2,6.9-0.8,9.1-2.4
				c0.6,0.1,1.3,0.1,1.9,0.2c2.6,2.2,6.1,3.5,9.5,2.9c9.1-1.6,18.1-3.2,27.2-4.8c5.6-0.9,11.1-1.9,16.6-2.9c0.8-0.1,1.6-0.4,2.3-0.6
				c-0.7,0.5-1.5,0.9-2.2,1.3c-0.3,0.2-0.1,0.8,0.3,0.6c3-1.7,6-3.2,9.1-4.6c2.6,0.8,7.4-0.6,9.1-1.1c0.2-0.1,0.4-0.1,0.6-0.2
				c20.2-3.4,38.8-11,56.2-21.7c8.5-5.2,16.6-11.1,24.4-17.3c1.9-1.5,3.2-3.8,4.9-5.4c2.2-2,4.5-4.1,6.5-6.3c3.7-4,7.1-8.3,11-12.2
				c0.7-0.8-0.2-2-1.1-1.3c-7.4,6.2-15.9,12.5-24.4,17.1c-8.3,4.6-15.6,11.3-23.6,16.4c-1.5,0.9-3,1.8-4.5,2.7
				c1.2-1.3,2.4-2.6,3.5-4.1c1.4-1.9-1.7-4-3-2.1c-6.6,9.2-17.1,14.1-28,16c5.1-4.7,2.3-15.2-5.6-12.8c-9.8,3-19.7,5.5-29.8,7.5
				c0.6-1-0.5-2.6-2-2.1c-6.2,2.4-12.7,3.8-19.1,5.6c-1.9,0.3-3.8,0.5-5.7,0.7c0.3-1.6,0.2-3.3-0.2-4.9c2.7-0.5,5.3-1,8-1.5
				c-1.1,1.2,0.3,3.6,2.1,2.8c4.5-1.9,12.8-6.3,17.6-4c1.1,0.5,2.1-1.3,1-2c-1.6-0.9-3.6-1.2-5.7-1.2c8.2-5.5,15.8-11.8,24.9-15.8
				c2.1-0.9,1-4.3-1.2-3.8c-3.3,0.7-6.4,1.9-9.6,3.1c-2,0.8-4,2.1-6,3.1c-2.6,0.8-5.1,1.6-7.7,2.3c-1.4-4.7-5.8-8.5-12.2-7.9
				c-26.2,2.6-52.4,4-78.6,3.7c-3.2-1.2-6.4-2.4-9.5-3.8c0.5-1.8,0.5-3.8,0-5.6c27.6,0,55.2,0,82.7-0.7c4.3-0.1,6.5-6.7,1.7-8
				c-16.5-4.5-33.1-7.6-49.8-9.7c4.7-3,5.3-10.4-1.2-12.9c-6.6-2.6-13.3-4.6-19.9-7.2c-0.1,0-0.2-0.1-0.4-0.1
				c7.4-0.4,14.9-0.9,22.3-1.5c2.9-0.2,5.8-0.4,8.7-0.7c2.4-0.2,2.2-4.3-0.2-4.2c-19.3,0.7-38.8,0.3-58.2-1.1
				c-0.1,0-0.3-0.1-0.4-0.1c6-0.6,11.9-1.2,17.9-1.9c5.3-0.6,10.6-1.7,15.9-2.9c24.7-3,49.1-7.9,72.8-16.6c4-1.5,1.8-7.9-2.2-7
				c-18.2,4.2-36.9,6.2-55.5,7.8c-10.3,0.9-20.7-0.6-30.8,0.3c-10.6,0.9-21.5,0.9-32.2,0.9c-2.7,0-5.4,0-8.1,0c1-0.4,2-0.9,2.9-1.4
				c3.7-1.9,2-7.7-2.2-7c-7.3,1.3-14.6,3.4-21.8,5.5c0.2-0.2,0.3-0.5,0.5-0.7c1.8-2.5,2.1-5.2,1.4-7.7c4.1-0.5,8.3-1,12.4-1.6
				c25.1-3.6,52.6-8.7,75.2-21.5c6.8-1.9,13.6-4,20.3-6.4c20-7.1,40-14.9,57-27.9c1.5-1.1-0.1-3.3-1.7-2.6
				c-19.2,8-38.4,16-57.6,23.9c2.7-2.5,5.3-5.2,7.8-8.2c1.6-1.9-1-4.9-3.1-3.7c-14.6,8.3-29.8,15.1-45.4,20.6c-10,1-20,1.6-29.7,1.9
				c-8.2,0.3-16.3,0.4-24.5,0.4c0.4-3-1.5-6.4-5.2-7c-6.1-1-12.2-2.8-18.3-4.5c3.8-0.8,7.6-1.8,11.4-2.9c0.5,0,0.9,0.1,1.4,0.1
				c0.8,0.8,1.9,1.3,3.2,1.2c0.9-0.1,1.9-0.2,2.8-0.2c4-0.4,4-5.4,1.6-7.5c-0.5-0.4-1-0.9-1.6-1.4c1-1.5,0.5-3.9-1.7-3.9
				c-7.6-0.1-15.1,1.2-22.6,2.4c-4.9,0.3-9.8,0.7-14.7,1c-0.8-0.8-1.8-1.5-2.8-2c3.2-0.4,6.5-0.4,9.8,0c3.7,0.5,4.8-5.2,1.3-6.3
				c-0.4-0.1-0.7-0.2-1.1-0.4c11.5-0.5,23-1.8,34.5-3.6c17.3-2.7,33.6-8.2,49.8-14.5c4-1.6,1.8-7.7-2.2-7c-15.4,2.9-31,4.7-46.4,7.4
				c-10.7,1.9-21.5,3.4-32.4,4.4c-0.2,0-0.5,0-0.7,0c7.4-1,14.7-2.4,21.9-4c0.2,0,0.5,0,0.7-0.1c22.8-2.4,46-6.4,68.5-12.3
				c0.2,0.2,0.4,0.3,0.7,0.2c0.6-0.3,1.2-0.6,1.8-0.8c6-1.6,12-3.3,17.9-5.2c1.8-0.3,3.5-0.6,5.3-0.9c2.4-0.4,7.8-0.1,9.7-1.7
				c1.2-1,2.1-2.7,3-4c1-1.3-0.3-3.6-2-3.1c-28.4,8.4-57.9,16.7-87.8,21.9c0.1-1.3-0.8-2.7-2.4-2.3c-9.7,2.7-19.6,4.9-29.6,6.6
				c-9.4,0.9-18.9,1.3-28.3,1.3c7-0.7,14-1.5,20.5-3.6c5.1,0,10.1-0.1,15.2-0.2c1.4,0,1.6-2.2,0.2-2.2c-3.2,0-6.5,0.1-9.7,0.1
				c2.6-1.3,5-2.8,7.4-4.7c2.2-1.8,1.6-6-1-7c12.9-3.2,25.7-7.3,37.7-12.3c0.8-0.3,0.4-1.6-0.4-1.4c-15.1,4.6-30,9.8-45.2,13.7
				c-5.1,0.1-10.2,0.1-15.3,0.1c-0.6-1.5-1.9-2.6-4-2.8c-3.3-0.3-6.7-0.4-10-0.6c0.7-2.3,0.7-4.8,0.1-7.2c8.7-1,17.3-2.4,25.9-4
				c13.9-2.6,28.1-5.3,41.5-9.8c6.3-2.1,12.3-5,18.6-7.1c4.1-1.4,8.2-2.7,12.3-4.1c9-0.5,17.9-1,26.9-1.7c1.5-0.1,1.3-2.6-0.1-2.6
				c-5.8,0.2-11.7,0.4-17.5,0.5c1.7-1.9-0.2-5.4-3.1-5.1c-6.6,0.7-13.2,2-19.7,3.1c-3.1,0.5-6.2,0.9-9.3,1.3c-1.6,0-3.2-0.1-4.7-0.1
				c-0.3-0.1-0.6-0.2-1-0.1c-0.4,0-0.8,0.1-1.2,0.1c-15.8-0.4-31.7-0.6-47.5,0.3c-6.3,0.4-12.7,1.1-18.9,2.2c-0.1-1-0.4-2-0.8-2.9
				c0.7-0.8,1.3-1.8,1.9-2.9c1.4-2.9,0.1-6.5-1.6-8.9c-0.6-0.8-1.4-1.4-2.2-2c-1.2-1-2.5-1.5-3.8-1.6c0.3-0.3,0.6-0.5,1-0.8
				c6-1,11.9-2.1,17.9-3.2c0.4-0.1,0.2-0.6-0.1-0.5c-5.6,1-11.3,2.1-16.9,3c1.7-1.4,3.4-2.8,5-4.3c0.6-0.5,1.3-1.1,1.9-1.6
				c1,0,2-0.1,3-0.1c1.6-0.1,1.9-2,1.1-3.1c3.7-0.2,7.4-0.6,11-1.5c1.4-0.2,2.4-0.7,3.2-1.4c13.9-0.3,27.8,0.1,41.7,0.8
				c1.1,0.1,1.2-1.6,0.1-1.7c-13.6-1.1-27-1.9-40.4-1.9c0.5-2.7-0.8-5.9-3.5-7.1c3.4-6.4-3.9-13.3-10.5-10.6
				c-2.7,1.1-5.4,2.3-8.1,3.4c-1.2-0.3-2.5-0.2-3.7,0.4c-0.3,0.2-0.6,0.3-0.9,0.5c0-0.8-0.3-1.5-0.7-2.2c0.8-0.6,1.5-1.2,2.3-1.9
				c2.9-2.4,5.9-4.7,9-6.9c1.2-0.3,2.3-0.7,3.4-1.2c0.3,0.7,0.9,1.3,1.7,1.5c-0.6,0-1.2,0-1.7,0c-1.3,0-1.5,2-0.2,2
				c16.7,0.1,33.4-2.9,49.1-8.8c0.3,0.3,0.8,0.4,1.3,0.3c13.5-2.5,27-4.4,40.8-4.3c2.2,0,2.5-3.5,0.3-3.5
				c-14.1-0.1-27.8,1.8-41.7,4.4c-0.8,0.1-1.2,0.7-1.3,1.2c-7.1,2.7-14.5,4.8-22,6.2c0.5-0.7,0.4-1.8-0.3-2.4c2.1-1.1,4-2.5,5.9-3.8
				c2.6-1.9,0.2-5.4-2.4-5.1c-5.3,0.5-10.5,1-15.8,1.6c0.5-0.9,0.7-2.1,0.6-3.7c-0.2-2.5-1.4-5.4-4-6.2c-6-1.9-11.5,2.8-17.1,4.1
				c-5.1,1.2-3.6,9.2,1.5,8c0.9-0.2,1.9-0.5,2.8-0.8c-0.6,0.4-1.2,0.8-1.8,1.2c-3.3,0.6-6.6,1.2-9.9,1.9c0.7-2.3,1-4.8,0.6-7.5
				c6.5-3.2,13.1-6.3,19.7-9.3c4.3-1.9,2.8-7.4-0.7-8.6c1-1.1,0.7-2.6-0.1-3.7c6.5-3.9,13-7.6,19.5-11.4c4.5-2.6,9-5.2,13.4-7.8
				c1.3-0.7,2.7-1.8,4.2-2.9c-0.1,0-0.2,0.1-0.3,0.2c-2.5,1.4-4.9,2.7-7.4,4c-5.5,2.9-10.9,5.8-16.4,8.7c-1.9,1-3.7,2-5.6,2.9
				c1.6-1.3,3.2-2.6,4.7-3.9c0.4-0.2,0.7-0.4,1.1-0.6c1.3-0.1,2.6-0.3,3.8-0.9c1.7-0.8,3-2,4-3.5c3.9-2.1,8-4,12.2-5.5
				c4-1.5,1.5-6.9-2.1-6.6c-3.3,0.3-6.5,1.1-9.6,2.4c-1.4-3-3.1-5.1-5.6-7.4c1.7-0.7,3.3-1.4,5-2.1c23.8-10,48.8-16.9,72.4-27.4
				c2.9-1.3,0.8-5.3-2-4.3c-24.2,8.5-48.2,18.4-71.7,28.9c-2.3,1-4.7,2.1-7,3.2c-2.7-0.7-6-0.4-8.2,0.7
				c-12.1,6.2-23.4,13.8-34.7,21.4c2.1-2.4,4.1-4.9,6-7.4c3.5-2.5,7-4.7,10.4-6.8c16.9-10.1,35.6-17.3,54.2-23.4
				c1.9-0.6,0.9-3.8-1.1-3.3c-16.3,3.8-32.6,9.4-47.5,17.2c8.4-8.2,16.7-16.4,24.9-24.8c1.4-1.1,2.8-2.1,4.2-3.2
				c9.8-1.2,19.5-3.6,28.3-7.5c1.5-0.6,0.4-2.6-1-2.2c-8.7,2.9-17.3,5.4-26.1,7.2c3.6-3.8,7.2-7.7,10.7-11.6
				c0.1-0.1,0.2-0.3,0.3-0.4c2.5-1.4,5.1-2.7,7.6-4.1c1.5-0.8,0.8-3.5-0.9-3c-1.6,0.5-3.2,1-4.7,1.6c1.7-1.1,3.4-2.2,5-3.3
				c0.9-0.4,1.9-0.9,2.9-1.3C162.5,32,174.6,29,187,25.8c1.3-0.3,0.9-2.2-0.4-2c-8.8,1.1-17.6,3.5-26.1,6.7c3.4-2,6.8-4,10.2-5.9
				c3.4-0.3,6.8-0.8,10-2.1c1.7-0.7,2-2.5,1.5-3.9c1-0.5,2-1,3.1-1.5c14.1-5,28.4-10.4,43.2-12.4c0.5-0.1,0.5-0.9-0.1-0.9
				c-16.8,0.3-33.4,0.3-49.6,5.8c-5.8,1.9-11.4,4.3-16.9,6.9c-3.1,0.4-6.1,0.9-9.2,1.5c-0.1,0-0.2-0.1-0.2-0.1
				c-0.3,0.1-0.6,0.2-0.9,0.3c0,0,0,0,0,0c0,0,0,0,0,0c-4.3,1.9-8.7,3.8-13,5.6c-1.4,0.7-2.9,1.4-4.3,2.1c-0.4,0.2-0.8,0.4-1.1,0.6
				c-1.2,0.6-2.4,1.3-3.5,1.9c-0.2,0.1-0.5,0.3-0.7,0.4c-1.4,0.8-2.7,1.5-4.1,2.3c-0.4,0.2-0.7,0.4-1.1,0.6
				c-1.1,0.6-2.1,1.3-3.2,1.9c-0.4,0.2-0.7,0.4-1.1,0.7c-1.3,0.8-2.6,1.7-3.9,2.5c-0.3,0.2-0.6,0.4-1,0.7c-0.8,0.5-1.6,1.1-2.4,1.6
				c-0.2,0.1-0.3,0.2-0.5,0.3c0,0-0.1,0.1-0.1,0.1c-0.4,0.3-0.9,0.6-1.3,0.9c-0.6,0.4-1.1,0.8-1.7,1.2c-0.3,0.2-0.6,0.4-0.9,0.7
				c-0.3,0.2-0.6,0.4-0.8,0.6c-0.3,0.2-0.7,0.5-1,0.7c-0.3,0.2-0.7,0.5-1,0.7c-0.3,0.2-0.6,0.4-0.8,0.6c-0.4,0.3-0.8,0.6-1.2,0.9
				c-0.5,0.4-1,0.7-1.4,1.1c-0.3,0.2-0.6,0.5-0.9,0.7c-0.1,0-0.1,0.1-0.2,0.1c-0.5,0.4-1,0.8-1.5,1.2c-0.4,0.3-0.8,0.6-1.2,0.9
				c-0.2,0.1-0.4,0.3-0.5,0.4c-0.4,0.3-0.8,0.6-1.2,1c-0.5,0.4-1.1,0.9-1.6,1.3c-0.3,0.3-0.7,0.5-1,0.8c-0.3,0.2-0.6,0.5-0.9,0.7
				c-0.6,0.5-1.2,1-1.8,1.5c-0.4,0.3-0.8,0.7-1.2,1c-0.1,0.1-0.2,0.2-0.4,0.3c0,0-0.1,0.1-0.1,0.1c0,0,0,0,0,0
				c-1.1,0.9-2.2,1.9-3.3,2.8c-0.5,0.4-0.9,0.8-1.4,1.2c-0.8,0.7-1.7,1.5-2.5,2.2c-0.5,0.5-1.1,1-1.6,1.4c-0.8,0.7-1.5,1.4-2.2,2
				c-0.5,0.5-1.1,1-1.6,1.5c-0.7,0.7-1.5,1.4-2.2,2c-0.5,0.5-1.1,1-1.6,1.5c-0.7,0.7-1.4,1.4-2.2,2.1c-0.3,0.3-0.5,0.5-0.8,0.8
				c0,0,0,0,0,0c-4,3.9-7.9,7.8-11.8,11.7c-0.2,0.8-0.3,1.7-0.3,2.6c-3.6,3.7-7.2,7.5-10.6,11.4C39.5,108.7,32.6,117.6,26.1,126.8z
				 M296.9,441.7c0.5-0.1,0.9-0.2,1.4-0.3c0.2,0.2,0.5,0.3,0.9,0.1c1.2-0.4,3.5-0.8,5.6-1.5c-2.7,1.9-5.4,3.9-8,5.8
				C297.1,444.5,297.1,443.1,296.9,441.7z M242.7,316.1c15.7-6,31.5-12,47.2-18C275.3,306.3,259.2,312.1,242.7,316.1z M303.1,481.4
				c-0.5-0.4-0.7-1.2-0.3-2.5c0-0.1,0-0.2,0-0.2c0.1-0.4,0.3-0.9,0.3-1.3c1.2-0.3,2.5-0.6,3.8-0.9c0.4,0.3,0.9,0.6,1.4,0.9
				c0,0.2,0,0.4,0,0.5c0.1,0.2,0.2,0.5,0.3,0.7C306.8,479.5,304.9,480.4,303.1,481.4z M140.9,39.2c0.2-0.1,0.3-0.1,0.5-0.2
				c-0.5,0.3-1,0.5-1.5,0.8c-0.2-0.2-0.4-0.4-0.6-0.6c0.1,0,0.2,0,0.2-0.1C140,39.3,140.4,39.4,140.9,39.2z M51.8,129
				c0.3-0.1,0.6-0.3,0.9-0.4c0.2-0.1,0.4-0.2,0.6-0.3c0.1,0.1,0.1,0.2,0.2,0.3c-0.6,0.4-1.2,0.7-1.8,1.1
				C51.8,129.4,51.8,129.2,51.8,129z M62.2,200.7c-0.1-1.3-0.5-2.7-1.1-3.8c0.7,0.1,1.4,0.1,2.1-0.1c1-0.2,2-0.4,3.1-0.6
				c0.7,0,1.3-0.1,2-0.1C66.2,197.6,64.2,199.1,62.2,200.7z M60.4,183.4c-0.6,0.2-1.2,0.4-1.8,0.7c-0.3-0.1-0.7-0.2-1-0.3
				c1.1-0.3,2.1-0.5,3.2-0.8C60.6,183.1,60.5,183.3,60.4,183.4z M126.2,427.2c-0.3,0.4-0.5,0.8-0.7,1.3c-0.4-0.4-0.8-0.8-1.2-1.2
				C125,427.2,125.6,427.2,126.2,427.2z M78.1,168.3c-0.2,0-0.5,0-0.7,0c-0.8-0.7-1.9-1.1-3.3-0.9c-0.7,0.1-1.3,0.2-2,0.3
				c0.3-0.2,0.6-0.3,0.8-0.5c0.5,0.2,1,0.2,1.6,0c2.1-0.8,4.1-1.6,6.2-2.2c0.4-0.1,0.8-0.1,1.2-0.2
				C80.6,165.9,79.3,167.1,78.1,168.3z M51.5,163.6c1.9-0.7,3.9-1.5,5.8-2.3c-1.8,1.2-3.5,2.4-5.3,3.6c-1,0.4-2,0.8-3.1,1.2
				c0.5-0.6,0.9-1.3,1.3-2C50.7,163.9,51.1,163.8,51.5,163.6z M308.4,476.8c0,0.1,0,0.3-0.1,0.4c-0.4-0.3-0.8-0.5-1.2-0.8
				c0.5-0.1,0.9-0.2,1.4-0.4C308.5,476.3,308.4,476.5,308.4,476.8z M110.9,341.7c-1.8,0-3.6-0.1-5.4-0.3c0.5-1,1.1-1.9,1.6-2.8
				c0.2,0,0.3-0.1,0.5-0.1c6.4,0.6,13,1,19.5,1.2C121.8,340.5,116.3,341.1,110.9,341.7z M89.5,231.7c0.3-0.8,0.7-1.6,1.1-2.4
				c10.4-0.9,20.7-1.8,31-2.7c-1.9,0.4-3.7,0.8-5.6,1.1C107.2,229.3,98.3,230.7,89.5,231.7z M76.9,413.2
				C77,413.2,77,413.2,76.9,413.2c0,0-0.1,0-0.1,0C76.8,413.2,76.9,413.2,76.9,413.2z M98.1,426.2c0.1,0.2,0.2,0.5,0.3,0.7
				c-1.8-0.3-3.5-0.5-5.3-0.8C94.7,426.1,96.4,426.2,98.1,426.2z M301.9,480.6c0,0.5,0.2,0.9,0.4,1.2c-0.9,0.5-1.7,0.9-2.6,1.4
				C300.7,482.5,301.4,481.6,301.9,480.6z M309.6,480.9c-1.1,0.3-3,0.9-4.5,1c1.5-0.7,3-1.3,4.5-1.9c0.3,0.3,0.5,0.5,0.9,0.6
				C310.1,480.7,309.9,480.8,309.6,480.9z M338.9,464.9c-4.2,1.7-8.6,3.2-12.9,4.6c2-1.1,3.8-2.4,5.5-3.8
				C334,465.5,336.5,465.3,338.9,464.9z M226.3,414.5c4.3,0.5,8.6,1,12.9,1.6c-22,0-44.1,1.1-66,1.5c-0.6-2.1-1.6-4.2-3-5.9
				c0,0,0.1,0,0.1,0C189,411.8,207.7,412.5,226.3,414.5z M99.5,161.5c0.5-0.3,0.9-0.7,1.4-1c0.5-0.1,0.9-0.1,1.4-0.2
				c0,0.1,0,0.1,0.1,0.2C101.4,160.9,100.5,161.2,99.5,161.5z M125.9,160.3c-6.6,1.1-13.2,1.8-19.9,1.9c4.9-0.7,9.8-0.9,14.6-1.8
				c0.5-0.1,1-0.2,1.5-0.4C123.4,160,124.7,160.1,125.9,160.3z M83.8,152.2c-0.5-1.1-1.2-1.7-2.1-1.9c0.8-0.4,1.6-0.8,2.4-1.2
				C84.2,150.2,84.1,151.2,83.8,152.2z M128.2,61.7c-1,0.8-2,1.5-3,2.3c0.7-0.7,1.4-1.4,2.1-2.2C127.6,61.8,127.9,61.7,128.2,61.7z"
				/>
		</g>
	</g>
	<g>
		<g>
			<path class="st0" d="M151.6,98.9c-0.2,0.3-0.6,0.7-0.9,1c0.4-0.1,0.9-0.3,1.3-0.4C152.7,99.4,152.1,98.3,151.6,98.9z"/>
		</g>
	</g>
	<g>
		<g>
			<path class="st0" d="M144.9,103.2c1.8-0.9,4.2-2,5.9-3.4C148.8,100.5,146.8,101.9,144.9,103.2z"/>
		</g>
	</g>
	<g>
		<g>
			<path class="st0" d="M185.4,351.4c-4.2,0.8-8.3,1.5-12.5,2.3c-0.2,0-0.2,0.4,0.1,0.4c4.2-0.8,8.3-1.5,12.5-2.3
				C185.7,351.8,185.6,351.4,185.4,351.4z"/>
		</g>
	</g>
	<g>
		<g>
			<path class="st0" d="M442.2,394.8c-1.2,1.9-2.5,3.7-3.8,5.6c-0.1,0.1,0.1,0.2,0.2,0.1c1.3-1.8,2.6-3.7,3.9-5.5
				C442.6,394.8,442.3,394.6,442.2,394.8z"/>
		</g>
	</g>
	<g>
		<g>
			<path class="st0" d="M454,369.6c-2.7,5.8-5.4,11.6-8.2,17.4c-1,2,2.3,3.1,3.3,1.2c7.4-14.6,14.4-29.4,21.3-44.1
				c1.1-2.4,2.3-4.8,3.4-7.2c-0.8-1.4-1.2-3-1-4.7c-4.7,12.1-10.6,23.9-17.3,34.9C455.1,367.8,454.6,368.7,454,369.6z"/>
		</g>
	</g>
	<g>
		<g>
			<path class="st0" d="M488.7,239.2c0.7,15.6,0.1,31.2-1.9,46.5c0.7-1.5,1.4-3.1,2.1-4.7c9.3-38.6,2.6-81.1-8.6-118.5
				c-6.2-20.7-15.1-40.8-26.7-59c-2.2-3.5-4.6-7.1-7.2-10.6c-0.6-0.6-1.2-1.1-1.7-1.7c-0.5-0.4-0.9-0.9-1.4-1.3
				c14.5,19.2,24.3,43,31.1,64.5C482.9,181.7,488.3,210.5,488.7,239.2z"/>
		</g>
	</g>
	<g>
		<g>
			<path class="st0" d="M229.5,3.5c10.3,1.1,20.9,0.3,31.3,0.9C271.6,5,282.3,6.5,293,8c21.5,2.9,42.6,8.4,62,18.5
				c0.3,0.2,0.6-0.3,0.3-0.5c-8.8-4.9-17.8-9.5-27.2-13c-10.6-3.9-21.6-5.7-32.4-9c-10.2-3.1-22.1-3.1-32.8-3.5
				c-10.9-0.4-22.9-1.1-33.6,0.9C228.1,1.6,228.2,3.4,229.5,3.5z"/>
		</g>
	</g>
</g>
</svg>
