<svg id="_3" data-name="3" xmlns="http://www.w3.org/2000/svg" viewBox="0 0 1940.409 918.244"><defs><style>.cls-1{fill:currentColor;}</style></defs><title>astronaut-flying</title><path class="cls-1" d="M1886.73,769.891c.834,1.552,1.547,3.1,2.328,4.651.761,1.577,1.549,3.026,2.283,4.752l2.236,5.007.5,1.106.484,1.209.971,2.419c.672,1.6,1.246,3.249,1.834,4.89l.884,2.461.8,2.5c2.155,6.655,3.934,13.481,5.444,20.422,3.013,13.892,4.951,28.227,7.123,42.762s4.638,29.323,8.886,43.935c1.309,4.519,2.813,9.014,4.523,13.447q7.7-.075,15.383-.19a147.688,147.688,0,0,1-5.856-17.236c-3.726-13.553-5.832-27.727-7.817-42.127s-3.781-29.106-6.792-43.844c-1.513-7.365-3.333-14.731-5.6-22.013l-.845-2.732-.936-2.711c-.624-1.809-1.235-3.621-1.954-5.4l-1.041-2.682-.521-1.341-.606-1.4-2.177-5.032c-.677-1.648-1.593-3.439-2.4-5.164-.84-1.725-1.644-3.506-2.52-5.185-1.782-3.334-3.447-6.74-5.378-9.99l-2.818-4.922-2.988-4.818c-1.944-3.245-4.129-6.331-6.219-9.482a243.561,243.561,0,0,0-29.235-34.736,188.658,188.658,0,0,0-36.162-27.912l-.117-.072-.02-.012,0,0a7.56,7.56,0,0,0-.947-.484l.918.462c-3.836-2.144-7.648-4.329-11.5-6.435-3.9-2.025-7.747-4.147-11.684-6.091-7.87-3.9-15.814-7.642-23.88-11.091a503.977,503.977,0,0,0-49.272-18.213c-33.389-10.479-67.585-17.67-101.866-23.15-17.146-2.75-34.327-5.083-51.515-7.139q-25.777-3.107-51.538-5.729c-34.337-3.562-68.605-6.939-102.634-11.464-34-4.6-67.789-10.359-100.828-18.731-16.5-4.22-32.808-9.093-48.8-14.77a440.711,440.711,0,0,1-46.889-19.486,398.986,398.986,0,0,1-84.609-55.178l-9.416-8.316-4.727-4.409c-1.589-1.473-3-2.917-4.507-4.375-5.95-5.853-11.86-12.02-17.6-18.292-11.538-12.525-22.7-25.586-34.006-38.622s-22.706-26.138-34.687-38.85a453.337,453.337,0,0,0-38.06-36.487q-10.193-8.535-21.2-16.23c-1.847-1.262-3.737-2.472-5.6-3.709l-2.817-1.837-2.893-1.735c-1.941-1.14-3.832-2.351-5.817-3.427l-5.96-3.216c-.983-.552-2-1.041-3.03-1.525l-3.065-1.467-3.068-1.464c-1.026-.479-2.09-.887-3.135-1.334-2.1-.863-4.187-1.769-6.309-2.592l-6.449-2.277c-2.13-.812-4.363-1.351-6.548-2.013-2.2-.627-4.379-1.313-6.628-1.763l-6.7-1.5-3.38-.587c-.99-.192-2.319-.34-3.511-.5-1.225-.164-2.443-.315-3.6-.4-1.18-.089-2.354-.221-3.537-.271l-3.552-.143c-1.186-.022-2.374,0-3.562,0a97.311,97.311,0,0,0-14.244,1.276,93.2,93.2,0,0,0-13.96,3.543,84.317,84.317,0,0,0-13.233,5.834c-1.049.6-2.128,1.146-3.149,1.792l-3.065,1.928c-.243.163,0-.023-.641.428l-.328.236-.656.472-2.623,1.889c-.474.365-1,.812-1.5,1.218-1,.83-2.032,1.667-3,2.511l-2.662,2.545c-.909.83-1.7,1.756-2.537,2.653-.815.908-1.679,1.784-2.417,2.746l-2.285,2.837c-.722.968-1.411,1.956-2.114,2.935-.72.972-1.359,1.98-2,2.989s-1.316,2-1.882,3.038a122.458,122.458,0,0,0-6.358,12.5c-1.846,4.222-3.463,8.464-4.971,12.7-1.465,4.225-2.843,8.446-4.129,12.62-2.592,8.344-4.947,16.565-7.652,24.4-1.339,3.932-2.77,7.76-4.355,11.441a91.747,91.747,0,0,1-5.23,10.562c-.936,1.693-2,3.256-3.033,4.844-1.116,1.5-2.175,3.062-3.4,4.434-1.146,1.461-2.462,2.725-3.713,4.06l-2.169,1.987c-.785.705-1.613,1.507-2.36,2.134l-2.154,1.73c-.736.573-1.378,1.176-2.2,1.726l-2.365,1.687-1.18.846-1.23.766c-1.639,1.017-3.253,2.082-4.974,2.947l-2.54,1.375-2.62,1.207a82.567,82.567,0,0,1-10.8,4.033l-2.8.719c-.936.229-1.857.514-2.813.668-1.9.349-3.782.792-5.715,1-15.366,2.232-31.444.1-46.7-4.8a154.935,154.935,0,0,1-42.966-22.323c-3.264-2.435-6.491-4.926-9.584-7.576l-9.753-8.39c-6.377-5.647-13.428-11.195-20.307-16.759a397.649,397.649,0,0,0-43.9-29.76,346.145,346.145,0,0,0-47.954-22.946c-7.454-2.912-14.964-5.583-22.5-8.1a125.234,125.234,0,0,1,2.461,21.839c4.31,1.519,8.6,3.074,12.842,4.722a326.061,326.061,0,0,1,45.3,21.567,378.385,378.385,0,0,1,41.7,28.168c6.527,5.275,13.058,10.353,19.605,16.126l9.868,8.456c3.46,2.951,7.061,5.73,10.719,8.429a174.3,174.3,0,0,0,48.557,24.95,139.49,139.49,0,0,0,27.165,5.794,111.667,111.667,0,0,0,28.176-.46c2.355-.275,4.68-.806,7.014-1.257,1.171-.2,2.315-.546,3.471-.834l3.456-.909a101.809,101.809,0,0,0,13.385-5.049l3.243-1.519,3.143-1.706c2.123-1.1,4.116-2.4,6.13-3.665l1.507-.956,1.447-1.037,2.89-2.08c.963-.656,1.918-1.508,2.874-2.269l2.858-2.354c.894-.768,1.612-1.473,2.425-2.212l2.583-2.395c1.711-1.8,3.473-3.559,5-5.487,1.625-1.866,3-3.871,4.436-5.843,1.322-2.021,2.661-4.04,3.81-6.122a110.659,110.659,0,0,0,6.2-12.613c1.806-4.245,3.374-8.506,4.8-12.738,2.883-8.475,5.24-16.845,7.735-24.973,1.236-4.068,2.521-8.048,3.864-11.973,1.371-3.892,2.814-7.713,4.408-11.4a103.932,103.932,0,0,1,5.313-10.559c.461-.863,1.014-1.636,1.514-2.462s1.016-1.633,1.582-2.391l1.653-2.32,1.763-2.2c.565-.758,1.229-1.41,1.847-2.11.633-.684,1.229-1.408,1.92-2.026l2-1.935,1.948-1.652c.335-.28.615-.545.99-.842l1.308-.949,1.963-1.424.186-.136c.064-.04.187-.121.178-.113l2.4-1.523c.8-.513,1.647-.936,2.465-1.413a66.218,66.218,0,0,1,10.38-4.625,75.222,75.222,0,0,1,11.067-2.853,79.036,79.036,0,0,1,11.483-1.068c.967,0,1.934-.028,2.9-.013l2.909.106c.969.033,1.939.148,2.909.215.99.062,1.91.177,2.822.3.944.126,1.762.184,2.891.394l2.992.5,5.917,1.31c1.985.379,3.919.992,5.867,1.539,1.938.584,3.914,1.033,5.814,1.761l5.752,2c1.9.729,3.77,1.541,5.658,2.3.938.4,1.891.751,2.818,1.182l2.771,1.315,2.772,1.311c.927.432,1.852.866,2.748,1.37l5.431,2.9c1.81.969,3.552,2.084,5.334,3.117L951.269,317l2.6,1.687c1.729,1.139,3.475,2.245,5.192,3.406q10.234,7.086,19.908,15.128a436.265,436.265,0,0,1,36.688,34.928c11.718,12.338,23.024,25.209,34.343,38.179,11.335,12.966,22.625,26.084,34.5,38.877,5.925,6.423,11.966,12.69,18.33,18.9,1.595,1.532,3.212,3.158,4.791,4.61l4.744,4.392.679.623,1.863,1.629,2.485,2.173,4.971,4.343a403.617,403.617,0,0,0,42.413,31.421,412.57,412.57,0,0,0,46.1,25.6,453.512,453.512,0,0,0,48.75,19.768c16.584,5.637,33.417,10.416,50.376,14.506,33.947,8.089,68.321,13.56,102.693,17.786,34.369,4.3,68.757,7.513,103,11.162s68.372,7.672,102.1,13.544c33.7,5.928,67.059,13.525,99.335,24.2q24.2,8,47.476,18.259c7.752,3.406,15.372,7.095,22.911,10.927,3.779,1.9,7.48,3.941,11.224,5.9,3.672,2.021,7.3,4.117,10.954,6.171a8.548,8.548,0,0,1-2.526-2.334l2.622,2.384c-.025-.015-.052-.025-.077-.039.025.013.049.027.073.041l.014.007.011.009,4.4,2.738,2.2,1.365,6.41,4.453,4.143,3.18c1.383,1.055,2.767,2.11,4.082,3.265l4.015,3.366c1.336,1.124,2.594,2.351,3.9,3.52,1.276,1.2,2.62,2.323,3.84,3.59a228.888,228.888,0,0,1,27.352,32.139c1.981,2.921,4.065,5.778,5.912,8.789l2.846,4.468,2.682,4.566C1883.447,763.645,1885.025,766.8,1886.73,769.891Z" transform="translate(0 -1.207)"/><path class="cls-1" d="M409.26,305.372a8.621,8.621,0,0,0,1.961,2.134c-.23-.407-.458-.815-.689-1.217-.3-.53-.619-1.056-.929-1.584ZM351.5,194.713c-.019-.082-.034-.162-.051-.244a8.9,8.9,0,0,1-1.707-1.453c-.013.059-.023.121-.039.179,0,.058,0,.116,0,.175a5.2,5.2,0,0,1-.106.968C350.239,194.461,350.87,194.587,351.5,194.713Zm97.739,165.2a13.011,13.011,0,0,1,1.6,2.8,6.956,6.956,0,0,1,.359,1.21,51.788,51.788,0,0,0,12.491-31.554,73.4,73.4,0,0,0-4.162-27.495,89.2,89.2,0,0,0-3.625-8.886,206.965,206.965,0,0,1-34.046-.345c.15.7.3,1.407.458,2.115a74.979,74.979,0,0,1,10.9-.32c4.5.053,6.2,6.01,2.487,8.1a3.488,3.488,0,0,1-.512,2.383,13.652,13.652,0,0,1-1.131,1.493,7.094,7.094,0,0,1,2.55,4.609,5.952,5.952,0,0,1-.294,2.113c3.773.387,7.547.744,11.3,1.305,4.519.681,4.325,7.034.43,8.42-.175.065-.347.142-.52.211a3.48,3.48,0,0,1-.129,3.835,10.942,10.942,0,0,1-1.921,2.194,4.413,4.413,0,0,1,.794,5.071l-.153.293c.092.035.186.062.278.1a4.342,4.342,0,0,1,1.877,5.874,15.048,15.048,0,0,1-1.7,2.182,13.7,13.7,0,0,1,.846,1.756,3.7,3.7,0,0,1-.232,3.513,19.57,19.57,0,0,0,2.146,1.268C452.872,353.981,451.893,358.408,449.243,359.911Zm105.115,54.525a98,98,0,0,0-15.87-26.057c-5.922-6.9-13.125-13.222-21.631-16.265a25.085,25.085,0,0,0-22.876,2.652,39.955,39.955,0,0,0-6.555,5.583c14.835,2.794,29.248,10.032,38.963,21.432,5.947,6.982,10.342,15.243,11.177,24.509.873,9.731-2.169,19.229-7.47,27.327-.093.144-.193.279-.3.416a52.429,52.429,0,0,0,9.991,2.61c4.462.66,8.727.676,12.5-1.159a6.559,6.559,0,0,0,1.758-1.048c.3-.216.6-.447.875-.687.106-.1.637-.606.625-.574a14.889,14.889,0,0,0,1.4-1.723,7.182,7.182,0,0,0,.925-1.555,21.241,21.241,0,0,0,2.142-9.269c.007-.17.016-.332.022-.508C560.3,431.734,557.709,422.488,554.358,414.436ZM408.771,156.3c.148.468.407,1.289.43,1.358a4.415,4.415,0,0,1-2.824,5.482,26.4,26.4,0,0,0-7.917,4.6,4.188,4.188,0,0,1-2.22,5.518,4.523,4.523,0,0,1-.507,6.943c-.467.33-.942.645-1.419.955a4.979,4.979,0,0,1,.106,2.463c.228,0,.455.006.683.01a4.392,4.392,0,0,1,4.5,4.439c1.448,1.449,1.259,3.9.113,5.6a3.231,3.231,0,0,1-.083.435c.18,0,.356-.013.536-.014,2.657-.006,5.352,2.684,4.562,5.355a17.34,17.34,0,0,1,4.867,1.453,4.072,4.072,0,0,1,2.269,4.379,55.23,55.23,0,0,0,5.835.465c3.3.076,5.639,3.813,4.2,6.449.21.192.409.4.61.6,3.983.6,7.98,1.1,11.992,1.449.78.067,1.567.127,2.356.186-.1-.353-.208-.7-.308-1.055-2.217-7.926-3.611-16.043-5.321-24.083a153.549,153.549,0,0,0-10.64-31.7,56.231,56.231,0,0,0-4.6-8.637,35.769,35.769,0,0,0-7.122,2.818,4.22,4.22,0,0,1,.124,4.018A3.378,3.378,0,0,0,408.771,156.3Zm110.9,250.982a60.874,60.874,0,0,0-27.238-16.809,63.158,63.158,0,0,0-11.574-1.514,87.576,87.576,0,0,0-5.043,9.455,54.679,54.679,0,0,0,6.458,6.533c3.113,2.7,6.794,5.865,10.97,6.638,5.544,1.024,3.723,9.554-1.793,8.534a20.232,20.232,0,0,1-4.513-1.442,2.114,2.114,0,0,1-3.08,1.513,83.236,83.236,0,0,1-19.407-13.394,91.726,91.726,0,0,1-13.2-15.193,138.11,138.11,0,0,1-7.536-12.248q-2.039-3.713-3.9-7.523c-.547-.82-1.078-1.656-1.6-2.5-1.708-1.8-3.36-3.653-4.969-5.535-5.955-6.978-11.327-14.718-18.186-20.857a4.342,4.342,0,0,1-.919-5.2,15.675,15.675,0,0,1,3.021-3.6,10.1,10.1,0,0,1-4.706-5.565,3.741,3.741,0,0,1,.071-2.879,18.041,18.041,0,0,1-2.515-.867c-1.9-.815-2.757-3.32-2.528-5.441a4.645,4.645,0,0,1-1.057-4.56,15.315,15.315,0,0,1-4.339-4.332,12.9,12.9,0,0,1-1.922-4.315,23.27,23.27,0,0,1-7.055-1.833,4.355,4.355,0,0,1-1.877-5.87c.01-.018.023-.033.033-.051a75.024,75.024,0,0,1-12.055-5.164,4.156,4.156,0,0,1-1.9-1.868,150.444,150.444,0,0,0-30.819,1.2c-2.354.361-4.466-1.931-4.584-4.124a4.073,4.073,0,0,1,.737-2.632c-.608.052-1.212.1-1.82.164-3.088.314-3.8-4.463-.705-4.774.724-.074,1.447-.131,2.169-.194,3.593-.312,7.189-.5,10.787-.6q4.4-.115,8.8-.044l1.687.037c.447.012.892.017,1.34.029,6.322.18,12.647.6,18.972,1.154q6.3.549,12.594,1.238a2.519,2.519,0,0,1,3.095.331c12.193,1.343,24.365,2.842,36.474,3.726a166.244,166.244,0,0,0,21.205.163c.84-.046,1.679-.1,2.519-.161a112.533,112.533,0,0,0,13.057-2.288,4.364,4.364,0,0,1,3.144.368,165.349,165.349,0,0,0,32.64-8.885c1.211-.472,2.417-.973,3.623-1.477a15.52,15.52,0,0,0,4.562-1.767c.26-.112.519-.228.777-.343.338-.122.676-.242,1.021-.345a16.173,16.173,0,0,0,4.016-1.845c.266-.082.53-.16.8-.245a3.81,3.81,0,0,0,1.466-.834c6.963-2.272,14.178-5.87,18.554-11.735.025.006.051.006.076.011q.909-1.15,1.818-2.3c.245-.344.487-.688.715-1.039a21.993,21.993,0,0,1,2.9-5.839c-.053-.067-.1-.136-.16-.2.776-.955,1.535-1.923,2.264-2.907a42,42,0,0,0,6.332-11.1c1.43-4.125,1.4-8.2-1.252-11.129a9.7,9.7,0,0,0-2.32-1.862c-6.426-3.779-15.42-3.207-22.506-2.412-6.034.672-11.974,1.985-17.948,3.049-1.3.236-2.61.453-3.914.681a38.175,38.175,0,0,0,2.494-4.4c3.354-1.744,5.138-4.821,6.948-8.247A3.607,3.607,0,0,0,517.34,205q-2.057-1.086-4.11-2.175a3.614,3.614,0,0,0-4.143.6,3.755,3.755,0,0,0-3.915,1.934c-.124.234-.25.468-.374.7-7.771,2.742-14.286,8.073-20.548,13.388a49.3,49.3,0,0,0-10.463,4.731c-.068-.043-.139-.07-.209-.107-.018.011-.035.025-.053.035a17.157,17.157,0,0,1-3.813,1.721c-.768.392-1.536.781-2.312,1.154a12.288,12.288,0,0,1-4.321,1.181,11.864,11.864,0,0,1-4.172.92,5.793,5.793,0,0,1-2.54.315c-5.459-.486-10.859-1.252-16.209-2.216a184.806,184.806,0,0,1-26.98-4.106c-12.7-2.93-25.139-6.936-37.691-10.441a221.474,221.474,0,0,0-32.226-6.973,7.061,7.061,0,0,1-.841.354,4.029,4.029,0,0,1-2.786.037q-1.235.067-2.462.164c-2.8.215-5.592.465-8.384.711-.135.011-.274.024-.412.037-.186.05-.376.093-.58.127a54.394,54.394,0,0,1-7.952.654c-1.859.136-3.72.225-5.577.219a4.714,4.714,0,0,1-1.156-.149c-.048,0-.1.009-.144.012q-1.047.54-2.114,1.029a3.6,3.6,0,0,1-3.913,3.178,56.763,56.763,0,0,0-20.135,3.2,3.827,3.827,0,0,1-.211.381,9.718,9.718,0,0,1-4.5,3.644,29.005,29.005,0,0,1-5.427,4.172,4.052,4.052,0,0,1-.385.2,3.966,3.966,0,0,1-.625.273c-.441.145-.878.311-1.318.467a4.313,4.313,0,0,1-1,1.4,126.815,126.815,0,0,1-10.513,8.542c-.728.556-1.582,1.195-2.46,1.87a3.025,3.025,0,0,1-.682.86q-1.932,1.656-3.922,3.233a6.686,6.686,0,0,0-.67.941c-1.183,2.081-4.2,3.314-6.7,4.442a103.566,103.566,0,0,1-12.106,7.018,3.72,3.72,0,0,1-2.6,1.9c-1.07.249-2.139.487-3.208.721q-3.043,1.25-6.189,2.282a3.978,3.978,0,0,1-3.473-.351c-3.3.6-6.6,1.138-9.916,1.649q-4.383.674-8.773,1.278c-10.673,1.47-21.382,2.713-32.047,4.25a4.081,4.081,0,0,1-2.015-.173c.08,17.023,3.657,33.683,9.373,49.63a3.5,3.5,0,0,0,1.574,4.527c.359.179.725.334,1.092.5-.246.05-.487.1-.733.156v0c2.161,5.541,4.572,11,7.16,16.335.324.668.655,1.334.986,2l.054.107a3.2,3.2,0,0,0,.238.48q.237.486.476.964c.222.445.449.886.673,1.328A55.814,55.814,0,0,0,192.6,347.8a11.986,11.986,0,0,0,1.543,2.253c3.688,6.711,7.573,13.316,11.589,19.832q2.662,4.323,5.435,8.595a253.125,253.125,0,0,0,17.607,24.187c13.278,15.936,29.489,29.963,48.744,37.664a88.763,88.763,0,0,0,11.789,3.786c.627.155,1.255.305,1.889.447a106.205,106.205,0,0,0,26.972,2.239c1.273-.045,2.546-.113,3.82-.2a249.8,249.8,0,0,0,32.661-4.734c7.549-1.5,15.075-3.106,22.58-4.511.079-.014.16-.03.237-.045a2.284,2.284,0,0,1,2.65,2.759,4,4,0,0,1,.838,2.411,4.052,4.052,0,0,1,2.4,1.876c3.911,6.313,7.809,12.695,12.022,18.842q3.041,2.476,6.085,4.941c12.321,9.931,25.121,20.027,39.717,26.427,8.3,3.647,17.388,6.222,26.537,5.573,10.1-.72,19.273-4.9,27.153-11.166,9.838-7.824,16.539-18.828,21.822-30.075,4.626-9.858,8.357-20.082,12.3-30.225-.032-.831-.084-1.663-.19-2.5A35,35,0,0,0,519.672,407.28ZM360.779,131.362a4.491,4.491,0,0,1,2.807,5.868,70.13,70.13,0,0,0,8.232,2.508c4.106.977,4.768,7.191.428,8.419a34.364,34.364,0,0,1-8.824,1.094,33.5,33.5,0,0,1-4.023,1.041,3.875,3.875,0,0,1-.558,1.275c1.425,1.96.53,5.192-1.522,6.5a4.85,4.85,0,0,1-.525,2.53l.273.138c1.947,1,3.18,3.879,1.878,5.873a15.407,15.407,0,0,1-1.625,2.1l4.816,2.483a4.489,4.489,0,0,1,1.132,6.949,4.417,4.417,0,0,1-1.021,1.984,4.657,4.657,0,0,1,5.219,3.657,108.049,108.049,0,0,1,11.318-17.226,77.849,77.849,0,0,1,13.281-19.6,37.658,37.658,0,0,1,6.031-5.138,8.008,8.008,0,0,0,1.2-1.488,4.3,4.3,0,0,1,5.894-1.7,12.437,12.437,0,0,1,3.457-.252q-.873-.916-1.789-1.783c-.055-.053-.115-.1-.168-.154q-1.485-1.4-3.076-2.675c-8.534-6.917-19.105-11.421-29.714-14.155a116.854,116.854,0,0,0-13.894-2.681,4.566,4.566,0,0,1,.181,1.378c1.947,2.65-.117,7.419-3.694,7.058-.176.254-.35.507-.544.749.839.489,1.722.921,2.565,1.361A4.316,4.316,0,0,1,360.779,131.362ZM225.808,87.514c1.167-2.008,2.16-4.125,3.208-6.195,1.445-2.862-1.577-5.255-3.938-4.538a2.967,2.967,0,0,0-1.6-1.93c-3.68-1.9-6.624,3.809-2.943,5.707a3.262,3.262,0,0,0,1.352.377c-.635,1.194-1.257,2.394-1.81,3.621A3.227,3.227,0,0,0,225.808,87.514ZM396.55,497.183c-.1.009-.207.022-.308.029a12.377,12.377,0,0,1-5.617-.731c-2.219-.858-2.878-3.927-1.876-5.87l.783-1.519c-1.315-.2-2.629-.407-3.941-.611a3.891,3.891,0,0,1-1.875-.812c-.891-.068-1.781-.128-2.673-.167a5.343,5.343,0,0,1-2.715-.15c-2.006-.69-3.541-2.243-3.464-4.376-.931-.385-1.854-.807-2.772-1.28a4.419,4.419,0,0,1-1.032-7,4.9,4.9,0,0,1,.616-1.395,3.769,3.769,0,0,1-.758-2.23,84.377,84.377,0,0,0-12.064.516c-3.047.331-4.654-2.282-4.44-4.739-1.781-2.187-1.536-5.93,1.879-6.9a33.313,33.313,0,0,1,8.637-1.007l2.022-.332a4.762,4.762,0,0,1,.008-1.181c-16.825,2.294-33.853,1.84-50.81.331-4.694.178-9.386.242-14.077.13.4.38.805.765,1.209,1.144a368.17,368.17,0,0,0,30.591,26.307c15.3,11.509,32.743,22.47,51.967,25.575,8.8,1.423,17.935,1.188,26.436-1.684q2.094-.707,4.13-1.569c-6.747-.9-13.284-3.233-18.471-7.589A4.074,4.074,0,0,1,396.55,497.183ZM152.342,258.773c-.06-.011-.122-.03-.183-.042h-.069l-.183.021c-.185.048-.37.1-.55.155-.428.142-.85.291-1.275.444a62.885,62.885,0,0,1-12.165,2.933c-10.045,1.548-20.091,3.084-30.171,4.383-12.877,4.57-26.283,8.387-39.868,9.622-.185-2.4-3.656-4.291-5.466-2.173l-.084-.025q-.69-.328-1.359-.694a3.255,3.255,0,0,0-.7-.266,3.886,3.886,0,0,0-1.224-1.071c-3.67-2.022-7.22-4.225-10.851-6.315a39.846,39.846,0,0,0-15.916-4.832c-2.69-.284-5.364,1.933-4.367,4.839a28.944,28.944,0,0,0,5.509,9.28c-.735-.043-1.47-.1-2.2-.133-7.126-.334-14.518-.543-21.526,1.021a17.413,17.413,0,0,0-7.034,2.9,6.311,6.311,0,0,0-2.645,5,10.186,10.186,0,0,0,.051,1.471,20.634,20.634,0,0,0,2.757,7.523c1.652,3,3.407,5.65,6.217,7.63,6.393,4.508,14.284,7.036,21.709,9.254q5.65,1.689,11.375,3.067c.009-.012.017-.026.025-.038.508.124,1.02.247,1.521.365a15.308,15.308,0,0,0,5.947,1.364q4.764,1.008,9.543,1.894,8.246,1.5,16.578,2.584,6.119.787,12.272,1.3a214.259,214.259,0,0,0,28.811.489c7.073-.38,14.11-1.056,21.116-1.939,8.673-1.094,17.3-2.5,25.909-4.064-.856-3.933-1.623-7.883-2.327-11.845C158.42,288.182,155.656,273.42,152.342,258.773Zm19.965-10.845c.031,0,.066,0,.1,0a4.381,4.381,0,0,1,2.6-.392c.987.149,1.973.265,2.954.366,4.577-.1,8.981-.407,13.139-.829a5.735,5.735,0,0,1,2.633-.346c.1.009.2.016.313.026,1.794-.21,3.533-.441,5.211-.68.193-.058.388-.109.582-.17a4.462,4.462,0,0,1,1.84-.194c6.689-1.054,12.254-2.3,16.24-3.178.73-.177,1.4-.344,2.023-.5,11.225-5.026,21.726-11.974,32.064-18.453a212.677,212.677,0,0,1,22.4-12.683,94.232,94.232,0,0,0,15.217-20.44,85.089,85.089,0,0,0,7.559-18.685c.46-2.784.829-5.581,1.069-8.391,1.154-13.63-1.055-27.267-8.732-38.787a3.874,3.874,0,0,1,.123-4.752h0a4.784,4.784,0,0,1,.6-.633.134.134,0,0,1,.029-.023c.1-.087.2-.169.312-.248.015-.012.033-.024.048-.034.1-.074.208-.144.316-.211a.37.37,0,0,0,.051-.029c.111-.065.224-.127.339-.184a.343.343,0,0,1,.044-.019c.121-.058.242-.112.369-.16l.029-.012c.13-.049.265-.094.4-.131,0,0,.007,0,.013-.006.141-.038.281-.07.425-.1a4.064,4.064,0,0,1,4.261,1.865c8.8,13.209,11.3,28.861,9.972,44.457a129.388,129.388,0,0,1-2.508,16.333,3.747,3.747,0,0,1,2.838,3.821c.027,5.185,1.675,9.739,6.754,11.819.529.216,1.072.4,1.621.562.445-.182.893-.356,1.347-.514a3.828,3.828,0,0,1,4.179.863,3.611,3.611,0,0,1,1.579.569,38.465,38.465,0,0,0,4.014-.256,4.007,4.007,0,0,1,2.754-5.181,39.914,39.914,0,0,1,4.214-.938c.389-1.932,2.43-3.128,4.482-3.083,1.044-35.394,3.619-71.955-7.933-105.754-6.728-19.694-18.475-37.1-34.984-49.915-9.86-7.652-20.087-14.442-31.815-18.941a73.3,73.3,0,0,0-16.7-4.491,29.317,29.317,0,0,0-4.828-.906,6.9,6.9,0,0,0-2.114.077,27.155,27.155,0,0,0-9.52-.853l-.527-.212a6.153,6.153,0,0,0-.715-.234c0-.006,0-.013-.008-.015-.694-.038-1.386-.063-2.066-.08a2.448,2.448,0,0,0-.258-.016c-.821-.021-1.634-.042-2.45-.051-2.242-.019-4.461,0-6.64.067-1.089.031-2.165.071-3.241.129-.535.029-1.065.058-1.6.085-.99.06-1.97.13-2.949.212l-.032,0a122.759,122.759,0,0,1,22.333,8.5c15,7.464,31.848,18.516,38.249,34.8a2.66,2.66,0,0,1,.155.571,22.953,22.953,0,0,0-4.992.365c-2.878-6.685-7.9-12.327-13.373-17.023a99.885,99.885,0,0,0-14.206-10.111,3.408,3.408,0,0,0-1.78-2.46c-13.47-7.711-27.638-15.2-42.761-19.128-7.038-1.827-14.8-2.695-21.832-.416-4.271,1.383-8.5,2.93-12.76,4.358a3.526,3.526,0,0,0-1.184.65,5.368,5.368,0,0,0-2.076.493,8.393,8.393,0,0,0-3.377,2.609,3.5,3.5,0,0,0-3.565,3.226c-.9.5-1.8,1.029-2.746,1.577a29.255,29.255,0,0,0-7.979,6.327c-.83.271-1.658.541-2.491.808a3.259,3.259,0,0,0-2.094,4.06,3.186,3.186,0,0,0,1.082,1.543c-.394,2.517,2.148,5.24,4.726,3.328.219-.163.433-.33.649-.5a2.8,2.8,0,0,0,2.481-.506q2.523-1.8,5.021-3.651c5.944-.587,11.436-3.187,17.214-5.1a3.034,3.034,0,0,0,1.749-1.379c1.748-.113,3.492-.175,5.222-.162,1.46.038,2.917.106,4.356.206s2.874.252,4.283.423c.947.114,1.884.256,2.815.4a79.729,79.729,0,0,1,10.962,2.487,81.445,81.445,0,0,1,10.208,3.685A116.661,116.661,0,0,1,237.467,49.45a133.552,133.552,0,0,1,9.432,9.584c.233.26.458.516.69.781A138.67,138.67,0,0,1,259.4,75.42s.01.015.017.02c.224.388.475.7.657,1.019a2.637,2.637,0,0,0,.236-.145v0a.723.723,0,0,0,.024-.127,1.214,1.214,0,0,0,.173-.319q1.4,1.887,2.859,3.714c-.056.052-.119.1-.167.148-.082.105-.1.172-.161.158l-.014.072a5.142,5.142,0,0,1-.463-.314,1.755,1.755,0,0,0-.16-.091.59.59,0,0,0-.086-.06,1.633,1.633,0,0,1-.18-.1.152.152,0,0,1-.074-.055l-.027,0a.12.12,0,0,1-.053-.011.3.3,0,0,0-.049-.01l0,.062c.115.2.225.4.345.6.339.6.684,1.221,1.02,1.808l0,0q.669,1.033,1.257,2.112c.253.438.492.867.73,1.308a6.921,6.921,0,0,1,.387-1.148c.057-.115.116-.238.177-.36a.7.7,0,0,1,.035-.066c.136.274.276.546.41.82a33.91,33.91,0,0,0,2.988,6.068,7.076,7.076,0,0,0,.268,1.106,8.608,8.608,0,0,0,1.036,2.231c.7,1.882,1.413,3.762,2.066,5.668-.041.078-.08.155-.121.23a3.551,3.551,0,0,0,.34,3.78,3.242,3.242,0,0,0,1.139,2.858,4.51,4.51,0,0,1,1.573,2.46,4.161,4.161,0,0,0-.544,2.129,7.41,7.41,0,0,0,.394,1.817c-.031.059-.064.118-.092.177a3.749,3.749,0,0,0,.848,4.494,37.635,37.635,0,0,0,1.054,9.147,50.278,50.278,0,0,1,.882,13.24,2.833,2.833,0,0,0,2.234,2.937c-.254,1.528-.591,3.114-.939,4.786-.313,1.449-.644,2.871-1,4.3a119.087,119.087,0,0,1-5.9,18.014,131.773,131.773,0,0,1-10.277,19.553c-.2.277-.393.559-.587.848-.579.862-1.148,1.746-1.745,2.589-.222.37-.412.595-.514.776-.056.155-.112.319-.182.479a8.808,8.808,0,0,1-.462,1c-.092.16-.189.329-.3.486-.153.229-.3.467-.452.7a61.628,61.628,0,0,1-7.868,10.233.558.558,0,0,1,.047.189.336.336,0,0,0,.015.1v0a.188.188,0,0,0-.095.113,15.821,15.821,0,0,1-1.135,1.109c-.395.342-.8.678-1.212,1.038a.341.341,0,0,1-.09.126c-.473.5-.97,1-1.474,1.477-.167.158-.338.317-.506.462a2.171,2.171,0,0,1-.208.263c-.153.165-.325.32-.486.48l-.007,0a.49.49,0,0,1-.056.076l-.011.024c0,.013-.015.017-.015.033a.075.075,0,0,0-.026.042c-.126.11-.246.217-.378.338-.06.058-.121.123-.186.178a2.79,2.79,0,0,1-.192.2c-.065.059-.128.115-.2.178a4.356,4.356,0,0,1-.634.525.361.361,0,0,1-.045.04c-.017.025-.028.029-.04.046a.343.343,0,0,1-.082.086c-.249.207-.449.37-.673.564a2.533,2.533,0,0,0-.234.2s-.465.3-1.279.94c-.8.65-2.128,1.518-3.775,2.665-1.6,1.218-3.743,2.522-6.214,4.1-1.227.749-2.6,1.541-4.048,2.39-1.49.771-3.078,1.662-4.726,2.525-1.252.626-2.562,1.266-3.935,1.9-.918.422-1.863.849-2.824,1.265-.98.417-1.978.832-3.014,1.232-.516.2-1.026.4-1.562.589-2.117.833-4.35,1.612-6.677,2.319v0c-1.169.356-2.351.685-3.564,1s-2.445.61-3.7.885a92.3,92.3,0,0,1-34.392,1.191,82.061,82.061,0,0,1-11.729-2.807q-1.172-.366-2.347-.775c-.392-.13-.781-.27-1.179-.407-1.171-.428-2.347-.865-3.515-1.337q-1.782-.705-3.537-1.507-2.34-1.064-4.636-2.286-3.453-1.842-6.8-4.006c-.74-.476-1.485-.974-2.224-1.474l-.069-.047a2.682,2.682,0,0,0-.316-1.111,3.329,3.329,0,0,0-1.682-2c-.519-.259-1.046-.507-1.567-.769a3.164,3.164,0,0,0-2.014-.318c-.161-.139-.327-.27-.492-.405.012.172.036.341.051.513-2.011.679-3.185,3.4-2.135,5.111-.071.125-.143.248-.21.374a3.653,3.653,0,0,0,1.548,4.844c3.021,1.9,5.831,4.38,8.868,6.375a4.507,4.507,0,0,1-.057,2.274c1,.577,2.017,1.14,3.063,1.679,1.618.774,3.279,1.508,4.968,2.169,1.122.451,2.262.867,3.411,1.271s2.324.785,3.5,1.144c.594.181,1.187.352,1.779.528a109.26,109.26,0,0,0,14.508,2.694c1.817.214,3.621.382,5.431.5,1.2.081,2.406.143,3.6.186S171.117,247.924,172.307,247.928ZM300.048,55.239a4.192,4.192,0,0,0-.475-.03,3.213,3.213,0,0,0-.71-.725A10.818,10.818,0,0,1,300.048,55.239ZM159.4,14.7a5.274,5.274,0,0,0-.587-.027,4.882,4.882,0,0,0,.623-.1C159.42,14.618,159.41,14.659,159.4,14.7ZM187.56,9.605c-.043-.085-.092-.168-.144-.25.665.13,1.328.266,1.984.415C188.786,9.707,188.175,9.652,187.56,9.605ZM262.807,63.38a.064.064,0,0,1,0-.019c.246-.14.5-.277.749-.412q.046.071.1.138A2.938,2.938,0,0,0,262.807,63.38ZM288.2,53.212c-.038.047-.076.094-.117.142-.034-.038-.076-.07-.113-.108C288.049,53.235,288.125,53.222,288.2,53.212ZM96.617,172.729c1.75,7.542,5.637,14.321,8.724,21.353.705,1.6,1.328,3.232,1.9,4.884,1.35,3.924,7.389,2.007,6.133-1.958-2.175-6.867-5.765-13.16-8.333-19.872-1.353-3.535-1.932-7.2-2.993-10.8-.9-3.068-1.649-6.173-2.278-9.309A128.953,128.953,0,0,1,98.4,117.666c1.622-14.521,5.682-29.547,13.021-42.438a59.272,59.272,0,0,0-3.091,7.806c-.556,1.07-1.107,2.149-1.655,3.225a2.994,2.994,0,0,0,.09,3.084c-.177.974-.338,1.952-.456,2.94-.5,4.143,5.833,5.566,6.422,1.346a48.2,48.2,0,0,1,1.791-7.86,2.342,2.342,0,0,0,.289.031c-1.163,3.367,3.663,5.856,5.733,2.96a3.236,3.236,0,0,0,5.452-.388q.976-1.8,1.949-3.577a3.268,3.268,0,0,0,5.371-.5,57.357,57.357,0,0,1,6.8-9.345,3.017,3.017,0,0,0,1.45,1.5c3.664,1.889,6.6-3.794,2.932-5.683a3.706,3.706,0,0,0-.6-.24c.148-.175.29-.348.437-.523a3.319,3.319,0,0,0,5.053-1.886c-.107.882-.181,1.767-.206,2.659-.115,4.2,6.33,3.8,6.487-.345.006-.216.027-.433.042-.65a3.26,3.26,0,0,0,5.846.3c2.808-5.131,5.435-10.335,8.654-15.231a34.341,34.341,0,0,1,7.764-8.882c-4.4,4.989-8.594,10.1-11.691,16.086-1.911,3.695,3.756,6.605,5.728,2.953a57.354,57.354,0,0,1,3.806-6.059c-1.145,2.069-2.247,4.174-3.328,6.305-1.878,3.7,3.79,6.619,5.715,2.946.3-.577.6-1.149.907-1.723a8.662,8.662,0,0,0,.374,2.379c.535,1.672,2.279,2.245,3.7,2.962a3.292,3.292,0,0,0,4.386-1.4c.2-.383.416-.759.631-1.132a7.594,7.594,0,0,0,1.023,2.491,2.947,2.947,0,0,0,3.727,1.237c.722,2.4,4.472,3.515,6,.654.243-.452.478-.906.716-1.36.1.02.21.047.313.057a3.323,3.323,0,0,0,.893.656,3.215,3.215,0,0,0,1.416.377c-.585,2.413,1.405,5.065,4.127,4.136a29.08,29.08,0,0,0,3.116-1.258,4.211,4.211,0,0,0,1.6,3.013,4.069,4.069,0,0,0,6.469-1.238,2.817,2.817,0,0,0-.649-3.738c.606-1.168,1.221-2.332,1.818-3.508a3.3,3.3,0,0,0-1.41-4.4q-1.037-.522-2.073-1.049a3.3,3.3,0,0,0-4.383,1.4c-.078.144-.16.28-.243.414a16.816,16.816,0,0,1,.95-2.667c1.831-3.94-3.606-6.582-5.9-3.039a3.054,3.054,0,0,1-.921.816c.172-.34.343-.682.518-1.024a2.947,2.947,0,0,0-.606-3.64c.246-.505.5-1.01.752-1.516a3.479,3.479,0,0,0-2.855-4.869,3.249,3.249,0,0,0-4.72.408,3.652,3.652,0,0,0-2.552-1.416c.688-1.98-1.17-4.017-3.22-4.047.889-2.469-1.793-5.075-4.11-4.17a3.335,3.335,0,0,0-4.171-2.122,2.971,2.971,0,0,0-3.947-2.141,19.447,19.447,0,0,0-2.327.971c.752-2.256-1.03-5.238-3.87-4.157a12.194,12.194,0,0,0-5.05,3.342,14.463,14.463,0,0,0-1.368,2c-.182.269-.3.457-.36.567-.258.163-.519.324-.773.5a35.879,35.879,0,0,0-7.949,7.741,50.764,50.764,0,0,0-3.688,5.329c1.33-2.94,2.755-5.846,4.2-8.779,1.724-.042,3.093-1.085,4.21-3.243,1.769-3.406-3.013-6.166-5.229-3.6a3.3,3.3,0,0,0-3.6,1.66c-1.387,2.564-2.743,5.15-4.023,7.77a2.553,2.553,0,0,0-2.744-1.29,18.173,18.173,0,0,0-3.252.931q1.576-1.1,3.248-2.107a3.535,3.535,0,0,0,4.432-2.451,2.715,2.715,0,0,0,.491-4.169c1.322-2.175-.546-5.8-3.665-4.8a27.35,27.35,0,0,0-7.609,3.352,41.051,41.051,0,0,0-7.681,6.865,3.3,3.3,0,0,0-2.13.47c-23.884,14.027-35.43,41.9-39.182,68.236a137.179,137.179,0,0,0,.229,40.857C93.228,160.2,95.142,166.387,96.617,172.729ZM195.029,66.251c-.036.333-.062.668-.082,1l-.4.782A2.982,2.982,0,0,1,195.029,66.251ZM163,53.148a39.768,39.768,0,0,1,2.71-3.23,115.538,115.538,0,0,0-9.4,16.207A37.5,37.5,0,0,1,163,53.148Z" transform="translate(0 -1.207)"/></svg>