<?xml version="1.0" encoding="utf-8"?>
<svg version="1.1" id="Layer_2" xmlns="http://www.w3.org/2000/svg" xmlns:xlink="http://www.w3.org/1999/xlink" x="0px" y="0px"
	 viewBox="0 0 268.1 215.5" style="enable-background:new 0 0 268.1 215.5;" xml:space="preserve">
<style type="text/css">
	.st0{fill:#currentColor;}
</style>
<path class="st0" d="M105.5,32.9c-0.1-1.1-0.9-1.9-2-2.1c-3.5-0.5-11.6-2.5-15.5-9.7C82.9,11.9,82.6,6,82.6,6s0.1-1.3,0.8-2.3
	s-0.3-1.9-0.8-1.6s-1.1,1.7-1.1,1.7s-0.6-2.9-2.7-2.6S76.7,4,76.7,4s0.4,1.9,1.2,3.6s1.1,6.6,1.1,6.6s1.5,5.1,4,9.9
	c0,0,0.8,1.9,0.7,3.2s0.2,5.4-0.8,8.6s-1.1,6.7-1.1,6.7s-0.1,1.5-0.7,2.3s-2.2,4.4-2.3,6.9s-2.5,6.6-2.5,6.6s-4.9,9.2-1.8,11.5
	s7.8-6.4,7.8-6.4l4.9-7.2c0,0,2.8-5.1,3.2-0.9s2.5,13.8,3.2,15.5s2.2,4.2,3.4,4s1.9-1.2,2-2.8s-0.9-5.3,0-7.8s1.4-7.4,1.5-8.2
	s1-8.1,1.6-9.2C102.7,45.9,106.1,38.7,105.5,32.9z M78.2,42.4c0.3,0.7,1.6,2.1,2.2,0.9s0.3-5.2,0.8-6.5s1.2-5.9,1.2-7.7
	s0.5-2.6,0-3.6s-1.8-2.8-1.9-3.5s-1.2-2.1-1.4-1c0,0-4.6,17.9-2.6,19.8C76.5,40.7,77.9,41.7,78.2,42.4z M106,32.4
	c0,0,0.9,3.8-2.2,13.1c0,0-1.5,3.3-0.6,5.7c0.7,1.9,1.1,4.7,3.2,4.1c1.7-0.5,1.9-2.9,2.1-4.6s-0.6-8.4,0-11.8S108.7,30.2,106,32.4z
	 M113.9,4.3c-3.4-3.9-6.9-4.1-12.4-4.2s-8.8,4.6-8.8,4.6s-2.4,4.6-3.6,5.6s-0.5,2.9-0.4,3.9s-0.1,2.6-0.3,3.5s0.3,2.7,1,3.7
	s4.3,4.8,6.7,6.1s7.8,2.8,10.1,3c1.4,0.2,2.3-0.5,2.8-1c0.6-0.6,1.2-1.2,1.8-1.7c1.5-1.2,3.8-3,4.9-4.1c1.8-1.7,2.1-4.3,2.4-8.5
	C118.6,11,117.4,8.1,113.9,4.3z M115.5,19.2c-0.3,1.5-1.1,3-2.1,4.2c-0.9,1-1.9,2.2-2.1,2.4c-0.5,0.4-1.2,1.8-3.5,1.6
	s-9.1-1.2-12.5-4.7s-4.6-3.3-4.6-5.1s-0.4-5.7,0.8-6.9s1.1-3.2,4.1-4.2s7.9-3.4,13.5,0C114,9.5,116.7,13.3,115.5,19.2z M109.4,8.1
	c-4.6-2.8-8.5-1.8-9-1.2s0.1,1.5,0.9,1.4c0.2,0,0.5,0,1,0.1c2.6,0.4,5,1.6,6.9,3.4c1.1,1.1,2.3,2.5,2.8,4.1c1.3,4.1-0.5,5.7-0.5,5.7
	s-1.2,1.6-0.5,2.1s1,0,1,0c3.4-3,2.9-7.9,2.9-7.9S114,10.8,109.4,8.1z M86.7,16.4c0,0,0.5,2,1.2,0.7c0.6-1.3,0-4.3,0-4.3
	c-0.7-1.9-2.4-0.5-2.5,0.2c-0.1,0.8,0.5,1.5,1,1.9C86.8,15.4,86.7,16.4,86.7,16.4z"/>
<g>
	<path class="st0" d="M183,215.5c-0.6,0-1.1-0.3-1.4-0.9c-0.3-0.8,0-1.6,0.8-2c0.9-0.4,93.1-40.8,81.7-74.1
		c-3.8-11-17.3-22.3-60.3-13.5c-11.6,2.4-23.4,6-35.3,10.9c-18.9,7.8-64.5,24.6-103.6,24.6c-25.5,0-48.2-7.2-58.8-28.8
		c-7.5-15.2-8.2-29.4-2.1-42.3c15.4-32.6,68.4-45.4,70.6-45.9c0.8-0.2,1.6,0.3,1.8,1.1c0.2,0.8-0.3,1.6-1.1,1.8
		c-0.1,0-13.7,3.3-28.8,10.4C32.7,63.3,14.5,74.5,6.8,90.8c-5.7,12-5,25.4,2.1,39.7c11,22.3,37,30.9,77.4,25.6
		c32.3-4.2,64.7-16.2,81.1-22.9c12-4.9,24-8.6,35.8-11c24.9-5.1,56.2-6.5,63.7,15.4c12.3,35.9-79.4,76.2-83.3,77.9
		C183.4,215.5,183.2,215.5,183,215.5z"/>
</g>
</svg>
